<svg width="40" height="40" viewBox="0 0 40 40" fill="none" xmlns="http://www.w3.org/2000/svg">
<g clip-path="url(#clip0_480_6544)">
<rect width="40" height="40" rx="20" fill="white"/>
<path d="M0 20C0 31.0469 8.95313 40 20 40C31.0469 40 40 31.0469 40 20C40 8.95313 31.0469 0 20 0C8.95313 0 0 8.95313 0 20ZM13.9688 16.6563C13.9688 13.3281 16.6719 10.625 20 10.625C23.3281 10.625 26.0313 13.3281 26.0313 16.6563C26.0313 20.2109 23.3359 21.7109 21.8359 22.2656C21.6563 23.1094 20.9063 23.75 20 23.75C18.9609 23.75 18.125 22.9141 18.125 21.875C18.125 20.2969 19.2656 19.1719 20.4297 18.7891C20.8984 18.6328 21.3906 18.3906 21.7422 18.0469C22.0469 17.75 22.2813 17.3437 22.2813 16.6641C22.2813 15.4062 21.2578 14.3828 20 14.3828C18.7422 14.3828 17.7187 15.4062 17.7187 16.6641C17.7187 17.7031 16.8828 18.5391 15.8437 18.5391C14.8047 18.5391 13.9688 17.7031 13.9688 16.6641V16.6563ZM22.1875 27.5C22.1875 28.7109 21.2109 29.6875 20 29.6875C18.7891 29.6875 17.8125 28.7109 17.8125 27.5C17.8125 26.2891 18.7891 25.3125 20 25.3125C21.2109 25.3125 22.1875 26.2891 22.1875 27.5Z" fill="#00558C"/>
<path d="M18.1748 17.325C18.1748 16.3188 18.9936 15.5 19.9998 15.5C21.0061 15.5 21.8248 16.3188 21.8248 17.325C21.8248 17.8688 21.6311 18.1938 21.3936 18.4313C21.1123 18.7063 20.7248 18.9 20.3436 19.025C19.4123 19.3375 18.4998 20.2313 18.4998 21.4938C18.4998 22.325 19.1686 22.9938 19.9998 22.9938C20.7186 22.9938 21.3248 22.4875 21.4686 21.8063C22.6686 21.3625 24.8248 20.1625 24.8248 17.3188C24.8248 14.6563 22.6623 12.4938 19.9998 12.4938C17.3373 12.4938 15.1748 14.6563 15.1748 17.3188C15.1748 18.15 15.8436 18.8188 16.6748 18.8188C17.5061 18.8188 18.1748 18.15 18.1748 17.3188V17.325ZM19.9998 27.75C20.9686 27.75 21.7498 26.9688 21.7498 26C21.7498 25.0313 20.9686 24.25 19.9998 24.25C19.0311 24.25 18.2498 25.0313 18.2498 26C18.2498 26.9688 19.0311 27.75 19.9998 27.75Z" fill="white"/>
</g>
<defs>
<clipPath id="clip0_480_6544">
<rect width="40" height="40" rx="20" fill="white"/>
</clipPath>
</defs>
</svg>
