<svg width="2217" height="2741" viewBox="0 0 2217 2741" fill="none" xmlns="http://www.w3.org/2000/svg">
<rect width="2217" height="2741" fill="#F5F5F5"/>
<g id="main-withgroupings">
<g id="fw-fuelweaponization-black">
<g id="main2-fw">
<g id="Lab-scale uranium metal production">
<rect id="Shape" x="479" y="1769.23" width="272" height="80" rx="4" fill="#1E1E1E" stroke="#1E1E1E" stroke-width="4" stroke-linecap="round"/>
<text id="Text" fill="white" xml:space="preserve" style="white-space: pre" font-family="URW DIN" font-size="16" font-weight="bold" letter-spacing="-0.011em"><tspan x="526.337" y="1800.65">Lab-scale uranium metal </tspan><tspan x="576.229" y="1824.65">production</tspan></text>
</g>
</g>
<g id="main4-fw">
<g id="Administration, personnel, nuclear weapons theory &#38; simulation, computation, modeling, design, documentation, back-up nuclear archive/weapons program info">
<rect id="Shape_2" x="1223" y="1398.23" width="272" height="200" rx="4" fill="#1E1E1E" stroke="#1E1E1E" stroke-width="4" stroke-linecap="round"/>
<text id="Text_2" fill="white" xml:space="preserve" style="white-space: pre" font-family="URW DIN" font-size="16" font-weight="bold" letter-spacing="-0.011em"><tspan x="1263.77" y="1429.65">Administration, personnel, </tspan><tspan x="1266.01" y="1453.65">nuclear weapons theory &#38; </tspan><tspan x="1270.85" y="1477.65">simulation, computation, </tspan><tspan x="1295.76" y="1501.65">modeling, design, </tspan><tspan x="1300.22" y="1525.65">documentation, &#13;&#10;</tspan><tspan x="1270.66" y="1549.65">back-up nuclear archive/</tspan><tspan x="1278.17" y="1573.65">weapons program info&#13;</tspan></text>
</g>
</g>
<g id="main5-fw">
<g id="R&#38;D radiation &#38; explosives">
<rect id="Shape_3" x="119" y="2009.23" width="272" height="96" rx="4" fill="#1E1E1E" stroke="#1E1E1E" stroke-width="4" stroke-linecap="round"/>
<text id="Text_3" fill="white" xml:space="preserve" style="white-space: pre" font-family="URW DIN" font-size="16" font-weight="bold" letter-spacing="-0.011em"><tspan x="157.591" y="2060.65">R&#38;D radiation &#38; explosives</tspan></text>
</g>
</g>
<g id="main6-fw">
<g id="Multi-point initiation system plastic explosives precursor manufacturing, R&#38;D, and testing">
<rect id="Shape_4" x="694" y="2009.23" width="272" height="96" rx="4" fill="#1E1E1E" stroke="#1E1E1E" stroke-width="4" stroke-linecap="round"/>
<text id="Text_4" fill="white" xml:space="preserve" style="white-space: pre" font-family="URW DIN" font-size="16" font-weight="bold" letter-spacing="-0.011em"><tspan x="704.045" y="2036.65">Multi-point initiation system plastic </tspan><tspan x="755.776" y="2060.65">explosives precursor </tspan><tspan x="713.726" y="2084.65">manufacturing, R&#38;D, and testing</tspan></text>
</g>
</g>
<g id="main8-fw">
<g id="Neutron initiator production">
<rect id="Shape_5" x="119" y="2289" width="272" height="96" rx="4" fill="#1E1E1E" stroke="#1E1E1E" stroke-width="4" stroke-linecap="round"/>
<text id="Text_5" fill="white" xml:space="preserve" style="white-space: pre" font-family="URW DIN" font-size="16" font-weight="bold" letter-spacing="-0.011em"><tspan x="155.837" y="2340.42">Neutron initiator production</tspan></text>
</g>
</g>
<g id="main1-fw">
<g id="Plutonium reprocessing">
<rect id="Shape_6" x="7" y="1769.23" width="272" height="80" rx="4" fill="#1E1E1E" stroke="#1E1E1E" stroke-width="4" stroke-linecap="round"/>
<text id="Text_6" fill="white" xml:space="preserve" style="white-space: pre" font-family="URW DIN" font-size="16" font-weight="bold" letter-spacing="-0.011em"><tspan x="58.1527" y="1812.65">Plutonium reprocessing</tspan></text>
</g>
</g>
<g id="main3-fw">
<g id="Weapons-grade uranium metal (or plutonium) core and component manufacturing">
<rect id="Shape_7" x="839" y="1761.23" width="272" height="96" rx="4" fill="#1E1E1E" stroke="#1E1E1E" stroke-width="4" stroke-linecap="round"/>
<text id="Text_7" fill="white" xml:space="preserve" style="white-space: pre" font-family="URW DIN" font-size="16" font-weight="bold" letter-spacing="-0.011em"><tspan x="852.212" y="1788.65">Weapons-grade uranium metal (or </tspan><tspan x="862.263" y="1812.65">plutonium) core and component </tspan><tspan x="922.587" y="1836.65">manufacturing</tspan></text>
</g>
</g>
<g id="main7-fw">
<g id="Multi-point initiation system development and testing">
<rect id="Shape_8" x="1359" y="2009.23" width="272" height="96" rx="4" fill="#1E1E1E" stroke="#1E1E1E" stroke-width="4" stroke-linecap="round"/>
<text id="Text_8" fill="white" xml:space="preserve" style="white-space: pre" font-family="URW DIN" font-size="16" font-weight="bold" letter-spacing="-0.011em"><tspan x="1394.43" y="2048.65">Multi-point initiation system </tspan><tspan x="1407.22" y="2072.65">development and testing</tspan></text>
</g>
</g>
<g id="main9-fw">
<g id="Nuclear warhead assembly">
<rect id="Shape_9" x="719.481" y="2645" width="272" height="96" rx="4" fill="#1E1E1E" stroke="#1E1E1E" stroke-width="4" stroke-linecap="round"/>
<text id="Text_9" fill="white" xml:space="preserve" style="white-space: pre" font-family="URW DIN" font-size="16" font-weight="bold" letter-spacing="-0.011em"><tspan x="759.286" y="2696.42">Nuclear warhead assembly</tspan></text>
</g>
</g>
<g id="Connector line">
<path id="Shape_10" d="M1278.48 1606.23C1278.48 1605.12 1277.59 1604.23 1276.48 1604.23C1275.38 1604.23 1274.48 1605.12 1274.48 1606.23H1276.48H1278.48ZM246.12 1983.92C245.015 1983.92 244.234 1985.27 244.786 1986.23L253.667 2001.61C254.219 2002.57 255.781 2002.57 256.333 2001.61L265.214 1986.23C265.766 1985.27 264.985 1983.92 263.88 1983.92H246.12ZM1276.48 1606.23H1274.48V1903H1276.48H1278.48V1606.23H1276.48ZM1252.48 1927V1925H279V1927V1929H1252.48V1927ZM255 1951H253V1985.92H255H257V1951H255ZM279 1927V1925C264.641 1925 253 1936.64 253 1951H255H257C257 1938.85 266.85 1929 279 1929V1927ZM1276.48 1903H1274.48C1274.48 1915.15 1264.63 1925 1252.48 1925V1927V1929C1266.84 1929 1278.48 1917.36 1278.48 1903H1276.48Z" fill="#1E1E1E"/>
</g>
<g id="Connector line_2">
<path id="Shape_11" d="M1278.49 1606.23C1278.49 1605.12 1277.6 1604.23 1276.49 1604.23C1275.39 1604.23 1274.49 1605.12 1274.49 1606.23H1276.49H1278.49ZM821.12 1983.92C820.015 1983.92 819.234 1985.27 819.786 1986.23L828.667 2001.61C829.219 2002.57 830.781 2002.57 831.333 2001.61L840.214 1986.23C840.766 1985.27 839.985 1983.92 838.88 1983.92H821.12ZM1276.49 1606.23H1274.49V1903H1276.49H1278.49V1606.23H1276.49ZM1252.49 1927V1925H854V1927V1929H1252.49V1927ZM830 1951H828V1985.92H830H832V1951H830ZM854 1927V1925C839.641 1925 828 1936.64 828 1951H830H832C832 1938.85 841.85 1929 854 1929V1927ZM1276.49 1903H1274.49C1274.49 1915.15 1264.64 1925 1252.49 1925V1927V1929C1266.85 1929 1278.49 1917.36 1278.49 1903H1276.49Z" fill="#1E1E1E"/>
</g>
<g id="Connector line_3">
<path id="Shape_12" d="M399 2055.23C397.895 2055.23 397 2056.12 397 2057.23C397 2058.33 397.895 2059.23 399 2059.23V2057.23V2055.23ZM668.69 2066.11C668.69 2067.21 670.043 2067.99 670.999 2067.44L686.381 2058.56C687.337 2058.01 687.337 2056.45 686.381 2055.9L670.999 2047.01C670.043 2046.46 668.69 2047.24 668.69 2048.35V2066.11ZM399 2057.23V2059.23H670.69V2057.23V2055.23H399V2057.23Z" fill="#1E1E1E"/>
</g>
<g id="Connector line_4">
<path id="Shape_13" d="M1278.48 1606.23C1278.48 1605.12 1277.59 1604.23 1276.48 1604.23C1275.38 1604.23 1274.48 1605.12 1274.48 1606.23H1276.48H1278.48ZM246.12 2263.69C245.015 2263.69 244.234 2265.04 244.786 2266L253.667 2281.38C254.219 2282.34 255.781 2282.34 256.333 2281.38L265.214 2266C265.766 2265.04 264.985 2263.69 263.88 2263.69H246.12ZM1276.48 1606.23H1274.48V1903H1276.48H1278.48V1606.23H1276.48ZM1252.48 1927V1925H63V1927V1929H1252.48V1927ZM39 1951H37V2156H39H41V1951H39ZM63 2180V2182H231V2180V2178H63V2180ZM255 2204H253V2265.69H255H257V2204H255ZM231 2180V2182C243.15 2182 253 2191.85 253 2204H255H257C257 2189.64 245.359 2178 231 2178V2180ZM39 2156H37C37 2170.36 48.6406 2182 63 2182V2180V2178C50.8497 2178 41 2168.15 41 2156H39ZM63 1927V1925C48.6406 1925 37 1936.64 37 1951H39H41C41 1938.85 50.8497 1929 63 1929V1927ZM1276.48 1903H1274.48C1274.48 1915.15 1264.63 1925 1252.48 1925V1927V1929C1266.84 1929 1278.48 1917.36 1278.48 1903H1276.48Z" fill="#1E1E1E"/>
</g>
<g id="Separated Pu">
<path id="Shape_14" d="M287 1807.23C285.895 1807.23 285 1808.12 285 1809.23C285 1810.33 285.895 1811.23 287 1811.23V1809.23V1807.23ZM765.628 1502C766.732 1502 767.628 1501.1 767.628 1500C767.628 1498.9 766.732 1498 765.628 1498V1500V1502ZM885.628 1498C884.523 1498 883.628 1498.9 883.628 1500C883.628 1501.1 884.523 1502 885.628 1502V1500V1498ZM966.12 1735.92C965.015 1735.92 964.234 1737.27 964.786 1738.23L973.667 1753.61C974.219 1754.57 975.781 1754.57 976.333 1753.61L985.214 1738.23C985.766 1737.27 984.985 1735.92 983.88 1735.92H966.12ZM287 1809.23V1811.23H303V1809.23V1807.23H287V1809.23ZM327 1785.23H329V1524H327H325V1785.23H327ZM351 1500V1502H765.628V1500V1498H351V1500ZM885.628 1500V1502H951V1500V1498H885.628V1500ZM975 1524H973V1737.92H975H977V1524H975ZM951 1500V1502C963.15 1502 973 1511.85 973 1524H975H977C977 1509.64 965.359 1498 951 1498V1500ZM327 1524H329C329 1511.85 338.85 1502 351 1502V1500V1498C336.641 1498 325 1509.64 325 1524H327ZM303 1809.23V1811.23C317.359 1811.23 329 1799.59 329 1785.23H327H325C325 1797.38 315.15 1807.23 303 1807.23V1809.23Z" fill="#1E1E1E"/>
<g id="Text Background">
<text id="Text_10" fill="black" xml:space="preserve" style="white-space: pre" font-family="Inter" font-size="16" font-weight="bold" letter-spacing="-0.011em"><tspan x="774.143" y="1505.82">Separated Pu</tspan></text>
</g>
</g>
<g id="Connector line_5">
<path id="Shape_15" d="M1215 1500.23C1216.1 1500.23 1217 1499.33 1217 1498.23C1217 1497.12 1216.1 1496.23 1215 1496.23V1498.23V1500.23ZM966.12 1735.92C965.015 1735.92 964.234 1737.27 964.786 1738.23L973.667 1753.61C974.219 1754.57 975.781 1754.57 976.333 1753.61L985.214 1738.23C985.766 1737.27 984.985 1735.92 983.88 1735.92H966.12ZM1215 1498.23V1496.23H999V1498.23V1500.23H1215V1498.23ZM975 1522.23H973V1737.92H975H977V1522.23H975ZM999 1498.23V1496.23C984.641 1496.23 973 1507.87 973 1522.23H975H977C977 1510.08 986.85 1500.23 999 1500.23V1498.23Z" fill="#1E1E1E"/>
</g>
<g id="Connector line_6">
<path id="Shape_16" d="M759 1807.23C757.895 1807.23 757 1808.12 757 1809.23C757 1810.33 757.895 1811.23 759 1811.23V1809.23V1807.23ZM813.69 1818.11C813.69 1819.21 815.043 1819.99 815.999 1819.44L831.381 1810.56C832.337 1810.01 832.337 1808.45 831.381 1807.9L815.999 1799.01C815.043 1798.46 813.69 1799.24 813.69 1800.35V1818.11ZM759 1809.23V1811.23H815.69V1809.23V1807.23H759V1809.23Z" fill="#1E1E1E"/>
</g>
<g id="Connector line_7">
<path id="Shape_17" d="M1278.48 1606.23C1278.48 1605.12 1277.59 1604.23 1276.48 1604.23C1275.38 1604.23 1274.48 1605.12 1274.48 1606.23H1276.48H1278.48ZM1486.12 1983.92C1485.02 1983.92 1484.23 1985.27 1484.79 1986.23L1493.67 2001.61C1494.22 2002.57 1495.78 2002.57 1496.33 2001.61L1505.21 1986.23C1505.77 1985.27 1504.99 1983.92 1503.88 1983.92H1486.12ZM1276.48 1606.23H1274.48V1904H1276.48H1278.48V1606.23H1276.48ZM1300.48 1928V1930H1471V1928V1926H1300.48V1928ZM1495 1952H1493V1985.92H1495H1497V1952H1495ZM1471 1928V1930C1483.15 1930 1493 1939.85 1493 1952H1495H1497C1497 1937.64 1485.36 1926 1471 1926V1928ZM1276.48 1904H1274.48C1274.48 1918.36 1286.12 1930 1300.48 1930V1928V1926C1288.33 1926 1278.48 1916.15 1278.48 1904H1276.48Z" fill="#1E1E1E"/>
</g>
<g id="Connector line_8">
<path id="Shape_18" d="M974 2055.23C972.895 2055.23 972 2056.12 972 2057.23C972 2058.33 972.895 2059.23 974 2059.23V2057.23V2055.23ZM1333.69 2066.11C1333.69 2067.21 1335.04 2067.99 1336 2067.44L1351.38 2058.56C1352.34 2058.01 1352.34 2056.45 1351.38 2055.9L1336 2047.01C1335.04 2046.46 1333.69 2047.24 1333.69 2048.35V2066.11ZM974 2057.23V2059.23H1335.69V2057.23V2055.23H974V2057.23Z" fill="#1E1E1E"/>
</g>
<g id="Connector line_9">
<path id="Shape_19" d="M1409.3 2113.23C1409.3 2112.12 1408.4 2111.23 1407.3 2111.23C1406.2 2111.23 1405.3 2112.12 1405.3 2113.23H1407.3H1409.3ZM1016.79 2684.12C1016.79 2683.02 1015.44 2682.23 1014.48 2682.79L999.1 2691.67C998.144 2692.22 998.144 2693.78 999.1 2694.33L1014.48 2703.21C1015.44 2703.77 1016.79 2702.98 1016.79 2701.88V2684.12ZM1407.3 2113.23H1405.3V2669H1407.3H1409.3V2113.23H1407.3ZM1383.3 2693V2691H1014.79V2693V2695H1383.3V2693ZM1407.3 2669H1405.3C1405.3 2681.15 1395.45 2691 1383.3 2691V2693V2695C1397.66 2695 1409.3 2683.36 1409.3 2669H1407.3Z" fill="#1E1E1E"/>
</g>
<g id="Connector line_10">
<path id="Shape_20" d="M399 2335C397.895 2335 397 2335.9 397 2337C397 2338.1 397.895 2339 399 2339V2337V2335ZM694.171 2701.88C694.171 2702.98 695.524 2703.77 696.48 2703.21L711.862 2694.33C712.818 2693.78 712.818 2692.22 711.862 2691.67L696.48 2682.79C695.524 2682.23 694.171 2683.02 694.171 2684.12V2701.88ZM399 2337V2339H531.24V2337V2335H399V2337ZM555.24 2361H553.24V2669H555.24H557.24V2361H555.24ZM579.24 2693V2695H696.171V2693V2691H579.24V2693ZM555.24 2669H553.24C553.24 2683.36 564.881 2695 579.24 2695V2693V2691C567.09 2691 557.24 2681.15 557.24 2669H555.24ZM531.24 2337V2339C543.391 2339 553.24 2348.85 553.24 2361H555.24H557.24C557.24 2346.64 545.6 2335 531.24 2335V2337Z" fill="#1E1E1E"/>
</g>
<g id="Connector line_11">
<path id="Shape_21" d="M1278.48 1606.23C1278.48 1605.12 1277.58 1604.23 1276.48 1604.23C1275.37 1604.23 1274.48 1605.12 1274.48 1606.23H1276.48H1278.48ZM846.601 2619.69C845.496 2619.69 844.715 2621.04 845.267 2622L854.148 2637.38C854.7 2638.34 856.262 2638.34 856.814 2637.38L865.695 2622C866.247 2621.04 865.466 2619.69 864.361 2619.69H846.601ZM1276.48 1606.23H1274.48V1903H1276.48H1278.48V1606.23H1276.48ZM1252.48 1927V1925H63V1927V1929H1252.48V1927ZM39 1951H37V2156H39H41V1951H39ZM63 2180V2182H831.481V2180V2178H63V2180ZM855.481 2204H853.481V2621.69H855.481H857.481V2204H855.481ZM831.481 2180V2182C843.631 2182 853.481 2191.85 853.481 2204H855.481H857.481C857.481 2189.64 845.84 2178 831.481 2178V2180ZM39 2156H37C37 2170.36 48.6406 2182 63 2182V2180V2178C50.8497 2178 41 2168.15 41 2156H39ZM63 1927V1925C48.6406 1925 37 1936.64 37 1951H39H41C41 1938.85 50.8497 1929 63 1929V1927ZM1276.48 1903H1274.48C1274.48 1915.15 1264.63 1925 1252.48 1925V1927V1929C1266.84 1929 1278.48 1917.36 1278.48 1903H1276.48Z" fill="#1E1E1E"/>
</g>
</g>
<g id="fp-fuelproduction-blue">
<g id="main14-fp">
<g id="Heavy water reactor and plutonium fabrication">
<rect id="Shape_22" x="341.682" y="1214" width="272" height="80" rx="4" fill="#00558C" stroke="#00558C" stroke-width="4" stroke-linecap="round"/>
<text id="Text_11" fill="white" xml:space="preserve" style="white-space: pre" font-family="URW DIN" font-size="16" font-weight="bold" letter-spacing="-0.011em"><tspan x="353.609" y="1245.42">Heavy water reactor and plutonium </tspan><tspan x="438.593" y="1269.42">fabrication</tspan></text>
</g>
</g>
<g id="main10-fp">
<g id="Heavy water production">
<rect id="Shape_23" x="439" y="712" width="272" height="80" rx="4" fill="#00558C" stroke="#00558C" stroke-width="4" stroke-linecap="round"/>
<text id="Text_12" fill="white" xml:space="preserve" style="white-space: pre" font-family="URW DIN" font-size="16" font-weight="bold" letter-spacing="-0.011em"><tspan x="490.442" y="755.424">Heavy water production</tspan></text>
</g>
</g>
<g id="Heavy water">
<path id="Shape_24" d="M479.682 800C479.682 798.895 478.786 798 477.682 798C476.577 798 475.682 798.895 475.682 800H477.682H479.682ZM475.682 894.156C475.682 895.261 476.577 896.156 477.682 896.156C478.786 896.156 479.682 895.261 479.682 894.156H477.682H475.682ZM479.682 935.156C479.682 934.052 478.786 933.156 477.682 933.156C476.577 933.156 475.682 934.052 475.682 935.156H477.682H479.682ZM468.801 1188.69C467.697 1188.69 466.916 1190.04 467.468 1191L476.348 1206.38C476.901 1207.34 478.463 1207.34 479.015 1206.38L487.895 1191C488.448 1190.04 487.667 1188.69 486.562 1188.69H468.801ZM477.682 800H475.682V894.156H477.682H479.682V800H477.682ZM477.682 935.156H475.682V1190.69H477.682H479.682V935.156H477.682Z" fill="#00558C"/>
<g id="Text Background_2">
<text id="Text_13" fill="black" xml:space="preserve" style="white-space: pre" font-family="Inter" font-size="16" font-weight="bold" letter-spacing="-0.011em"><tspan x="429.538" y="920.474">Heavy water</tspan></text>
</g>
</g>
<g id="main6-fp">
<g id="Uranium milling">
<rect id="Shape_25" x="471" y="496" width="272" height="80" rx="6" fill="#00558C" stroke="#00558C" stroke-width="4" stroke-linecap="round"/>
<text id="Text_14" fill="white" xml:space="preserve" style="white-space: pre" font-family="URW DIN" font-size="16" font-weight="bold" letter-spacing="-0.011em"><tspan x="550.255" y="539.424">Uranium milling</tspan></text>
</g>
</g>
<g id="main7-fp">
<g id="Uranium conversion/ production of UF&#226;&#130;&#134;">
<rect id="Shape_26" x="951" y="496" width="272" height="80" rx="6" fill="#00558C" stroke="#00558C" stroke-width="4" stroke-linecap="round"/>
<text id="Text_15" fill="white" xml:space="preserve" style="white-space: pre" font-family="URW DIN" font-size="16" font-weight="bold" letter-spacing="-0.011em"><tspan x="1012.72" y="527.424">Uranium conversion/&#10;</tspan><tspan x="1025.63" y="551.424">production of UF&#x2086;</tspan></text>
</g>
</g>
<g id="U&#226;&#130;&#131;O&#226;&#130;&#136;">
<path id="Shape_27" d="M751 534C749.895 534 749 534.895 749 536C749 537.105 749.895 538 751 538V536V534ZM820.845 538C821.95 538 822.845 537.105 822.845 536C822.845 534.895 821.95 534 820.845 534V536V538ZM875.845 534C874.74 534 873.845 534.895 873.845 536C873.845 537.105 874.74 538 875.845 538V536V534ZM925.69 544.88C925.69 545.985 927.043 546.766 927.999 546.214L943.381 537.333C944.337 536.781 944.337 535.219 943.381 534.667L927.999 525.786C927.043 525.234 925.69 526.015 925.69 527.12V544.88ZM751 536V538H820.845V536V534H751V536ZM875.845 536V538H927.69V536V534H875.845V536Z" fill="#00558C"/>
<g id="Text Background_3">
<text id="Text_16" fill="black" xml:space="preserve" style="white-space: pre" font-family="Inter" font-size="16" font-weight="bold" letter-spacing="-0.011em"><tspan x="829.445" y="541.818">U&#x2083;O&#x2088;</tspan></text>
</g>
</g>
<g id="main15-fp">
<g id="Research reactor">
<rect id="Shape_28" x="750.912" y="1214" width="272" height="80" rx="4" fill="#00558C" stroke="#00558C" stroke-width="4" stroke-linecap="round"/>
<text id="Text_17" fill="white" xml:space="preserve" style="white-space: pre" font-family="URW DIN" font-size="16" font-weight="bold" letter-spacing="-0.011em"><tspan x="825.927" y="1257.42">Research reactor</tspan></text>
</g>
</g>
<g id="main13-fp">
<g id="Russian supply">
<rect id="Shape_29" x="938.044" y="895.25" width="272" height="80" rx="4" fill="#00558C" stroke="#00558C" stroke-width="4" stroke-linecap="round"/>
<text id="Text_18" fill="white" xml:space="preserve" style="white-space: pre" font-family="URW DIN" font-size="16" font-weight="bold" letter-spacing="-0.011em"><tspan x="1020.59" y="938.674">Russian supply</tspan></text>
</g>
</g>
<g id="20% enriched fuel">
<path id="Shape_30" d="M979.173 983.25C979.173 982.145 978.278 981.25 977.173 981.25C976.069 981.25 975.173 982.145 975.173 983.25H977.173H979.173ZM975.173 1015.57C975.173 1016.67 976.069 1017.57 977.173 1017.57C978.278 1017.57 979.173 1016.67 979.173 1015.57H977.173H975.173ZM979.173 1056.57C979.173 1055.46 978.278 1054.57 977.173 1054.57C976.069 1054.57 975.173 1055.46 975.173 1056.57H977.173H979.173ZM878.032 1188.69C876.927 1188.69 876.146 1190.04 876.698 1191L885.579 1206.38C886.131 1207.34 887.693 1207.34 888.245 1206.38L897.126 1191C897.678 1190.04 896.897 1188.69 895.792 1188.69H878.032ZM977.173 983.25H975.173V1015.57H977.173H979.173V983.25H977.173ZM977.173 1056.57H975.173V1118H977.173H979.173V1056.57H977.173ZM953.173 1142V1140H910.912V1142V1144H953.173V1142ZM886.912 1166H884.912V1190.69H886.912H888.912V1166H886.912ZM910.912 1142V1140C896.553 1140 884.912 1151.64 884.912 1166H886.912H888.912C888.912 1153.85 898.762 1144 910.912 1144V1142ZM977.173 1118H975.173C975.173 1130.15 965.323 1140 953.173 1140V1142V1144C967.533 1144 979.173 1132.36 979.173 1118H977.173Z" fill="#00558C"/>
<g id="Text Background_4">
<text id="Text_19" fill="black" fill-opacity="0.8" xml:space="preserve" style="white-space: pre" font-family="Inter" font-size="16" font-weight="bold" letter-spacing="-0.011em"><tspan x="907.667" y="1041.89">20% enriched fuel</tspan></text>
</g>
</g>
<g id="main11-fp">
<g id="Fuel manufacturing">
<rect id="Shape_31" x="855" y="712" width="272" height="80" rx="4" fill="#00558C" stroke="#00558C" stroke-width="4" stroke-linecap="round"/>
<text id="Text_20" fill="white" xml:space="preserve" style="white-space: pre" font-family="URW DIN" font-size="16" font-weight="bold" letter-spacing="-0.011em"><tspan x="921.738" y="755.424">Fuel manufacturing</tspan></text>
</g>
</g>
<g id="UF&#226;&#130;&#134;">
<path id="Shape_32" d="M993 584C993 582.895 992.105 582 991 582C989.895 582 989 582.895 989 584H991H993ZM989 599.736C989 600.841 989.895 601.736 991 601.736C992.105 601.736 993 600.841 993 599.736H991H989ZM993 640.736C993 639.632 992.105 638.736 991 638.736C989.895 638.736 989 639.632 989 640.736H991H993ZM982.12 686.69C981.015 686.69 980.234 688.043 980.786 688.999L989.667 704.381C990.219 705.337 991.781 705.337 992.333 704.381L1001.21 688.999C1001.77 688.043 1000.98 686.69 999.88 686.69H982.12ZM991 584H989V599.736H991H993V584H991ZM991 640.736H989V688.69H991H993V640.736H991Z" fill="#00558C"/>
<g id="Text Background_5">
<text id="Text_21" fill="black" xml:space="preserve" style="white-space: pre" font-family="Inter" font-size="16" font-weight="bold" letter-spacing="-0.011em"><tspan x="977.285" y="626.055">UF&#x2086;</tspan></text>
</g>
</g>
<g id="20% fuel">
<path id="Shape_33" d="M888.912 800C888.912 798.895 888.017 798 886.912 798C885.808 798 884.912 798.895 884.912 800H886.912H888.912ZM884.912 1057.82C884.912 1058.93 885.808 1059.82 886.912 1059.82C888.017 1059.82 888.912 1058.93 888.912 1057.82H886.912H884.912ZM888.912 1098.82C888.912 1097.72 888.017 1096.82 886.912 1096.82C885.808 1096.82 884.912 1097.72 884.912 1098.82H886.912H888.912ZM878.032 1188.69C876.927 1188.69 876.146 1190.04 876.698 1191L885.579 1206.38C886.131 1207.34 887.693 1207.34 888.245 1206.38L897.126 1191C897.678 1190.04 896.897 1188.69 895.792 1188.69H878.032ZM886.912 800H884.912V1057.82H886.912H888.912V800H886.912ZM886.912 1098.82H884.912V1190.69H886.912H888.912V1098.82H886.912Z" fill="#00558C"/>
<g id="Text Background_6">
<text id="Text_22" fill="black" xml:space="preserve" style="white-space: pre" font-family="Inter" font-size="16" font-weight="bold" letter-spacing="-0.011em"><tspan x="853.231" y="1084.14">20% fuel</tspan></text>
</g>
</g>
<g id="Fresh fuel">
<path id="Shape_34" d="M888.707 800C888.707 798.895 887.812 798 886.707 798C885.603 798 884.707 798.895 884.707 800H886.707H888.707ZM729.277 975C728.172 975 727.277 975.895 727.277 977C727.277 978.105 728.172 979 729.277 979V977V975ZM635.277 979C636.381 979 637.277 978.105 637.277 977C637.277 975.895 636.381 975 635.277 975V977V979ZM468.801 1188.69C467.697 1188.69 466.916 1190.04 467.468 1191L476.348 1206.38C476.901 1207.34 478.463 1207.34 479.015 1206.38L487.895 1191C488.448 1190.04 487.667 1188.69 486.562 1188.69H468.801ZM886.707 800H884.707V953H886.707H888.707V800H886.707ZM862.707 977V975H729.277V977V979H862.707V977ZM635.277 977V975H501.682V977V979H635.277V977ZM477.682 1001H475.682V1190.69H477.682H479.682V1001H477.682ZM501.682 977V975C487.322 975 475.682 986.641 475.682 1001H477.682H479.682C479.682 988.85 489.531 979 501.682 979V977ZM886.707 953H884.707C884.707 965.15 874.857 975 862.707 975V977V979C877.067 979 888.707 967.359 888.707 953H886.707Z" fill="#00558C"/>
<g id="Text Background_7">
<text id="Text_23" fill="black" xml:space="preserve" style="white-space: pre" font-family="Inter" font-size="16" font-weight="bold" letter-spacing="-0.011em"><tspan x="644.248" y="982.818">Fresh fuel</tspan></text>
</g>
</g>
<g id="main3-fp">
<g id="Centrifuge testing and development">
<rect id="Shape_35" x="832" width="272" height="80" rx="4" fill="#00558C" stroke="#00558C" stroke-width="4" stroke-linecap="round"/>
<text id="Text_24" fill="white" xml:space="preserve" style="white-space: pre" font-family="URW DIN" font-size="16" font-weight="bold" letter-spacing="-0.011em"><tspan x="840.716" y="43.424">Centrifuge testing and development</tspan></text>
</g>
</g>
<g id="main1-fp">
<g id="Centrifuge component manufacturing companies">
<rect id="Shape_36" width="272" height="80" rx="4" fill="#00558C" stroke="#00558C" stroke-width="4" stroke-linecap="round"/>
<text id="Text_25" fill="white" xml:space="preserve" style="white-space: pre" font-family="URW DIN" font-size="16" font-weight="bold" letter-spacing="-0.011em"><tspan x="56.8147" y="31.424">Centrifuge component </tspan><tspan x="43.6001" y="55.424">manufacturing companies</tspan></text>
</g>
</g>
<g id="main9-fp">
<g id="Enriched uranium storage">
<rect id="Shape_37" x="1945" y="496" width="272" height="80" rx="6" fill="#00558C" stroke="#00558C" stroke-width="4" stroke-linecap="round"/>
<text id="Text_26" fill="white" xml:space="preserve" style="white-space: pre" font-family="URW DIN" font-size="16" font-weight="bold" letter-spacing="-0.011em"><tspan x="1989.39" y="539.424">Enriched uranium storage</tspan></text>
</g>
</g>
<g id="main4-fp">
<g id="Centrifuge and component stockpiles">
<rect id="Shape_38" x="1248" width="272" height="80" rx="4" fill="#00558C" stroke="#00558C" stroke-width="4" stroke-linecap="round"/>
<text id="Text_27" fill="white" xml:space="preserve" style="white-space: pre" font-family="URW DIN" font-size="16" font-weight="bold" letter-spacing="-0.011em"><tspan x="1290.14" y="31.424">Centrifuge and component </tspan><tspan x="1347.1" y="55.424">stockpiles</tspan></text>
</g>
</g>
<g id="Connector line_12">
<path id="Shape_39" d="M1112 40H1240" stroke="#B3B3B3" stroke-width="4" stroke-linecap="round" stroke-linejoin="bevel"/>
</g>
<g id="main5-fp">
<g id="Uranium mining">
<rect id="Shape_40" y="312" width="272" height="80" rx="6" fill="#00558C" stroke="#00558C" stroke-width="4" stroke-linecap="round"/>
<text id="Text_28" fill="white" xml:space="preserve" style="white-space: pre" font-family="URW DIN" font-size="16" font-weight="bold" letter-spacing="-0.011em"><tspan x="79.6284" y="355.424">Uranium mining</tspan></text>
</g>
</g>
<g id="Ore">
<path id="Shape_41" d="M49.917 400C49.917 398.895 49.0216 398 47.917 398C46.8124 398 45.917 398.895 45.917 400H47.917H49.917ZM304.959 441C306.063 441 306.959 440.105 306.959 439C306.959 437.896 306.063 437 304.959 437V439V441ZM349.959 437C348.854 437 347.959 437.896 347.959 439C347.959 440.105 348.854 441 349.959 441V439V437ZM598.12 470.69C597.015 470.69 596.234 472.043 596.786 472.999L605.667 488.381C606.219 489.337 607.781 489.337 608.333 488.381L617.214 472.999C617.766 472.043 616.985 470.69 615.88 470.69H598.12ZM47.917 400H45.917V415H47.917H49.917V400H47.917ZM71.917 439V441H304.959V439V437H71.917V439ZM349.959 439V441H583V439V437H349.959V439ZM607 463H605V472.69H607H609V463H607ZM583 439V441C595.15 441 605 450.85 605 463H607H609C609 448.641 597.359 437 583 437V439ZM47.917 415H45.917C45.917 429.36 57.5576 441 71.917 441V439V437C59.7667 437 49.917 427.151 49.917 415H47.917Z" fill="#00558C"/>
<g id="Text Background_8">
<text id="Text_29" fill="black" xml:space="preserve" style="white-space: pre" font-family="Inter" font-size="16" font-weight="bold" letter-spacing="-0.011em"><tspan x="313.525" y="444.819">Ore</tspan></text>
</g>
</g>
<g id="main2-fp">
<g id="Centrifuge manufacturing and assembly">
<rect id="Shape_42" x="416" width="272" height="80" rx="4" fill="#00558C" stroke="#00558C" stroke-width="4" stroke-linecap="round"/>
<text id="Text_30" fill="white" xml:space="preserve" style="white-space: pre" font-family="URW DIN" font-size="16" font-weight="bold" letter-spacing="-0.011em"><tspan x="460.087" y="31.424">Centrifuge manufacturing&#10;</tspan><tspan x="503.296" y="55.424">and assembly</tspan></text>
</g>
</g>
<g id="Connector line_13">
<path id="Shape_43" d="M280 40H408" stroke="#B3B3B3" stroke-width="4" stroke-linecap="round" stroke-linejoin="bevel"/>
</g>
<g id="Connector line_14">
<path id="Shape_44" d="M696 40H824" stroke="#B3B3B3" stroke-width="4" stroke-linecap="round" stroke-linejoin="bevel"/>
</g>
<g id="main16-fp">
<g id="Power reactors and Small modular reactors">
<rect id="Shape_45" x="1157.14" y="1214" width="272" height="80" rx="4" fill="#00558C" stroke="#00558C" stroke-width="4" stroke-linecap="round"/>
<text id="Text_31" fill="white" xml:space="preserve" style="white-space: pre" font-family="URW DIN" font-size="16" font-weight="bold" letter-spacing="-0.011em"><tspan x="1171.57" y="1245.42">Power reactors and Small modular </tspan><tspan x="1263.06" y="1269.42">reactors</tspan></text>
</g>
</g>
<g id="LEU fuel">
<path id="Shape_46" d="M979.173 983.25C979.173 982.145 978.278 981.25 977.173 981.25C976.069 981.25 975.173 982.145 975.173 983.25H977.173H979.173ZM975.173 1015.57C975.173 1016.67 976.069 1017.57 977.173 1017.57C978.278 1017.57 979.173 1016.67 979.173 1015.57H977.173H975.173ZM979.173 1056.57C979.173 1055.46 978.278 1054.57 977.173 1054.57C976.069 1054.57 975.173 1055.46 975.173 1056.57H977.173H979.173ZM1162.41 1145C1163.52 1145 1164.41 1144.1 1164.41 1143C1164.41 1141.9 1163.52 1141 1162.41 1141V1143V1145ZM1243.41 1141C1242.31 1141 1241.41 1141.9 1241.41 1143C1241.41 1144.1 1242.31 1145 1243.41 1145V1143V1141ZM1284.26 1188.69C1283.16 1188.69 1282.38 1190.04 1282.93 1191L1291.81 1206.38C1292.36 1207.34 1293.92 1207.34 1294.48 1206.38L1303.36 1191C1303.91 1190.04 1303.13 1188.69 1302.02 1188.69H1284.26ZM977.173 983.25H975.173V1015.57H977.173H979.173V983.25H977.173ZM977.173 1056.57H975.173V1119H977.173H979.173V1056.57H977.173ZM1001.17 1143V1145H1162.41V1143V1141H1001.17V1143ZM1243.41 1143V1145H1269.14V1143V1141H1243.41V1143ZM1293.14 1167H1291.14V1190.69H1293.14H1295.14V1167H1293.14ZM1269.14 1143V1145C1281.29 1145 1291.14 1154.85 1291.14 1167H1293.14H1295.14C1295.14 1152.64 1283.5 1141 1269.14 1141V1143ZM977.173 1119H975.173C975.173 1133.36 986.814 1145 1001.17 1145V1143V1141C989.023 1141 979.173 1131.15 979.173 1119H977.173Z" fill="#00558C"/>
<g id="Text Background_9">
<text id="Text_32" fill="black" fill-opacity="0.8" xml:space="preserve" style="white-space: pre" font-family="Inter" font-size="16" font-weight="bold" letter-spacing="-0.011em"><tspan x="1171.38" y="1148.82">LEU fuel</tspan></text>
</g>
</g>
<g id="main8-fp">
<g id="Uranium enrichment">
<rect id="Shape_47" x="1465" y="496" width="272" height="80" rx="6" fill="#00558C" stroke="#00558C" stroke-width="4" stroke-linecap="round"/>
<text id="Text_33" fill="white" xml:space="preserve" style="white-space: pre" font-family="URW DIN" font-size="16" font-weight="bold" letter-spacing="-0.011em"><tspan x="1528.23" y="539.424">Uranium enrichment</tspan></text>
</g>
</g>
<g id="Connector line_15">
<path id="Shape_48" d="M1309.2 88C1309.2 86.8954 1308.3 86 1307.2 86C1306.1 86 1305.2 86.8954 1305.2 88H1307.2H1309.2ZM1592.12 470.69C1591.02 470.69 1590.23 472.043 1590.79 472.999L1599.67 488.381C1600.22 489.337 1601.78 489.337 1602.33 488.381L1611.21 472.999C1611.77 472.043 1610.98 470.69 1609.88 470.69H1592.12ZM1307.2 88H1305.2V204H1307.2H1309.2V88H1307.2ZM1331.2 228V230H1577V228V226H1331.2V228ZM1601 252H1599V472.69H1601H1603V252H1601ZM1577 228V230C1589.15 230 1599 239.85 1599 252H1601H1603C1603 237.641 1591.36 226 1577 226V228ZM1307.2 204H1305.2C1305.2 218.359 1316.84 230 1331.2 230V228V226C1319.05 226 1309.2 216.15 1309.2 204H1307.2Z" fill="#00558C"/>
</g>
<g id="Connector line_16">
<path id="Shape_49" d="M884.886 88C884.886 86.8954 883.99 86 882.886 86C881.781 86 880.886 86.8954 880.886 88H882.886H884.886ZM1592.12 470.69C1591.02 470.69 1590.23 472.043 1590.79 472.999L1599.67 488.381C1600.22 489.337 1601.78 489.337 1602.33 488.381L1611.21 472.999C1611.77 472.043 1610.98 470.69 1609.88 470.69H1592.12ZM882.886 88H880.886V204H882.886H884.886V88H882.886ZM906.886 228V230H1577V228V226H906.886V228ZM1601 252H1599V472.69H1601H1603V252H1601ZM1577 228V230C1589.15 230 1599 239.85 1599 252H1601H1603C1603 237.641 1591.36 226 1577 226V228ZM882.886 204H880.886C880.886 218.359 892.526 230 906.886 230V228V226C894.735 226 884.886 216.15 884.886 204H882.886Z" fill="#00558C"/>
</g>
<g id="Connector line_17">
<path id="Shape_50" d="M460.306 88C460.306 86.8954 459.41 86 458.306 86C457.201 86 456.306 86.8954 456.306 88H458.306H460.306ZM1592.12 470.69C1591.02 470.69 1590.23 472.043 1590.79 472.999L1599.67 488.381C1600.22 489.337 1601.78 489.337 1602.33 488.381L1611.21 472.999C1611.77 472.043 1610.98 470.69 1609.88 470.69H1592.12ZM458.306 88H456.306V204H458.306H460.306V88H458.306ZM482.306 228V230H1577V228V226H482.306V228ZM1601 252H1599V472.69H1601H1603V252H1601ZM1577 228V230C1589.15 230 1599 239.85 1599 252H1601H1603C1603 237.641 1591.36 226 1577 226V228ZM458.306 204H456.306C456.306 218.359 467.947 230 482.306 230V228V226C470.156 226 460.306 216.15 460.306 204H458.306Z" fill="#00558C"/>
</g>
<g id="UO&#226;&#130;&#130;">
<path id="Shape_51" d="M1231 534C1229.9 534 1229 534.895 1229 536C1229 537.105 1229.9 538 1231 538V536V534ZM1321.35 538C1322.45 538 1323.35 537.105 1323.35 536C1323.35 534.895 1322.45 534 1321.35 534V536V538ZM1369.35 534C1368.24 534 1367.35 534.895 1367.35 536C1367.35 537.105 1368.24 538 1369.35 538V536V534ZM1439.69 544.88C1439.69 545.985 1441.04 546.766 1442 546.214L1457.38 537.333C1458.34 536.781 1458.34 535.219 1457.38 534.667L1442 525.786C1441.04 525.234 1439.69 526.015 1439.69 527.12V544.88ZM1231 536V538H1321.35V536V534H1231V536ZM1369.35 536V538H1441.69V536V534H1369.35V536Z" fill="#00558C"/>
<g id="Text Background_10">
<text id="Text_34" fill="black" xml:space="preserve" style="white-space: pre" font-family="Inter" font-size="16" font-weight="bold" letter-spacing="-0.011em"><tspan x="1330.04" y="541.818">UO&#x2082;</tspan></text>
</g>
</g>
<g id="Enriched UF&#226;&#130;&#134;">
<path id="Shape_52" d="M1745 534C1743.9 534 1743 534.895 1743 536C1743 537.105 1743.9 538 1745 538V536V534ZM1779.08 538C1780.19 538 1781.08 537.105 1781.08 536C1781.08 534.895 1780.19 534 1779.08 534V536V538ZM1896.08 534C1894.98 534 1894.08 534.895 1894.08 536C1894.08 537.105 1894.98 538 1896.08 538V536V534ZM1919.69 544.88C1919.69 545.985 1921.04 546.766 1922 546.214L1937.38 537.333C1938.34 536.781 1938.34 535.219 1937.38 534.667L1922 525.786C1921.04 525.234 1919.69 526.015 1919.69 527.12V544.88ZM1745 536V538H1779.08V536V534H1745V536ZM1896.08 536V538H1921.69V536V534H1896.08V536Z" fill="#00558C"/>
<g id="Text Background_11">
<text id="Text_35" fill="black" xml:space="preserve" style="white-space: pre" font-family="Inter" font-size="16" font-weight="bold" letter-spacing="-0.011em"><tspan x="1787.92" y="541.818">Enriched UF&#x2086;</tspan></text>
</g>
</g>
<g id="Enriched UF&#226;&#130;&#134;&#194;&#160;">
<path id="Shape_53" d="M1509.44 584C1509.44 582.895 1508.55 582 1507.44 582C1506.34 582 1505.44 582.895 1505.44 584H1507.44H1509.44ZM1309.22 643C1308.12 643 1307.22 643.895 1307.22 645C1307.22 646.105 1308.12 647 1309.22 647V645V643ZM1189.22 647C1190.33 647 1191.22 646.105 1191.22 645C1191.22 643.895 1190.33 643 1189.22 643V645V647ZM982.12 686.69C981.015 686.69 980.234 688.043 980.786 688.999L989.667 704.381C990.219 705.337 991.781 705.337 992.333 704.381L1001.21 688.999C1001.77 688.043 1000.98 686.69 999.88 686.69H982.12ZM1507.44 584H1505.44V621H1507.44H1509.44V584H1507.44ZM1483.44 645V643H1309.22V645V647H1483.44V645ZM1189.22 645V643H1015V645V647H1189.22V645ZM991 669H989V688.69H991H993V669H991ZM1015 645V643C1000.64 643 989 654.641 989 669H991H993C993 656.85 1002.85 647 1015 647V645ZM1507.44 621H1505.44C1505.44 633.15 1495.59 643 1483.44 643V645V647C1497.8 647 1509.44 635.359 1509.44 621H1507.44Z" fill="#00558C"/>
<g id="Text Background_12">
<text id="Text_36" fill="black" xml:space="preserve" style="white-space: pre" font-family="Inter" font-size="16" font-weight="bold" letter-spacing="-0.011em"><tspan x="1197.8" y="650.818">Enriched UF&#x2086;&#xa0;</tspan></text>
</g>
</g>
</g>
<g id="Pu">
<path id="Shape_54" d="M387.339 1302C387.339 1300.9 386.444 1300 385.339 1300C384.235 1300 383.339 1300.9 383.339 1302H385.339H387.339ZM282.405 1359C281.3 1359 280.405 1359.9 280.405 1361C280.405 1362.1 281.3 1363 282.405 1363V1361V1359ZM244.405 1363C245.509 1363 246.405 1362.1 246.405 1361C246.405 1359.9 245.509 1359 244.405 1359V1361V1363ZM134.12 1743.92C133.015 1743.92 132.234 1745.27 132.786 1746.23L141.667 1761.61C142.219 1762.57 143.781 1762.57 144.333 1761.61L153.214 1746.23C153.766 1745.27 152.985 1743.92 151.88 1743.92H134.12ZM385.339 1302H383.339V1337H385.339H387.339V1302H385.339ZM361.339 1361V1359H282.405V1361V1363H361.339V1361ZM244.405 1361V1359H167V1361V1363H244.405V1361ZM143 1385H141V1745.92H143H145V1385H143ZM167 1361V1359C152.641 1359 141 1370.64 141 1385H143H145C145 1372.85 154.85 1363 167 1363V1361ZM385.339 1337H383.339C383.339 1349.15 373.49 1359 361.339 1359V1361V1363C375.699 1363 387.339 1351.36 387.339 1337H385.339Z" fill="#00558C"/>
<g id="Text Background_13">
<text id="Text_37" fill="black" xml:space="preserve" style="white-space: pre" font-family="Inter" font-size="16" font-weight="bold" letter-spacing="-0.011em"><tspan x="253.337" y="1366.82">Pu</tspan></text>
</g>
</g>
<g id="Connector line_18">
<path id="Shape_55" d="M1509.37 584C1509.37 582.895 1508.48 582 1507.37 582C1506.27 582 1505.37 582.895 1505.37 584H1507.37H1509.37ZM1505.37 962.402C1505.37 963.507 1506.27 964.402 1507.37 964.402C1508.48 964.402 1509.37 963.507 1509.37 962.402H1507.37H1505.37ZM1509.37 1003.4C1509.37 1002.3 1508.48 1001.4 1507.37 1001.4C1506.27 1001.4 1505.37 1002.3 1505.37 1003.4H1507.37H1509.37ZM606.12 1743.92C605.015 1743.92 604.234 1745.27 604.786 1746.23L613.667 1761.61C614.219 1762.57 615.781 1762.57 616.333 1761.61L625.214 1746.23C625.766 1745.27 624.985 1743.92 623.88 1743.92H606.12ZM1507.37 584H1505.37V962.402H1507.37H1509.37V584H1507.37ZM1507.37 1003.4H1505.37V1334H1507.37H1509.37V1003.4H1507.37ZM1483.37 1358V1356H639V1358V1360H1483.37V1358ZM615 1382H613V1745.92H615H617V1382H615ZM639 1358V1356C624.641 1356 613 1367.64 613 1382H615H617C617 1369.85 626.85 1360 639 1360V1358ZM1507.37 1334H1505.37C1505.37 1346.15 1495.52 1356 1483.37 1356V1358V1360C1497.73 1360 1509.37 1348.36 1509.37 1334H1507.37Z" fill="#00558C"/>
</g>
<g id="HEU (no known civil applications)">
<path id="Shape_56" d="M1991.54 584C1991.54 582.895 1990.64 582 1989.54 582C1988.44 582 1987.54 582.895 1987.54 584H1989.54H1991.54ZM1987.54 963.841C1987.54 964.946 1988.44 965.841 1989.54 965.841C1990.64 965.841 1991.54 964.946 1991.54 963.841H1989.54H1987.54ZM1991.54 1004.84C1991.54 1003.74 1990.64 1002.84 1989.54 1002.84C1988.44 1002.84 1987.54 1003.74 1987.54 1004.84H1989.54H1991.54ZM966.12 1735.92C965.015 1735.92 964.234 1737.27 964.786 1738.23L973.667 1753.61C974.219 1754.57 975.781 1754.57 976.333 1753.61L985.214 1738.23C985.766 1737.27 984.985 1735.92 983.88 1735.92H966.12ZM1989.54 584H1987.54V963.841H1989.54H1991.54V584H1989.54ZM1989.54 1004.84H1987.54V1334H1989.54H1991.54V1004.84H1989.54ZM1965.54 1358V1356H999V1358V1360H1965.54V1358ZM975 1382H973V1737.92H975H977V1382H975ZM999 1358V1356C984.641 1356 973 1367.64 973 1382H975H977C977 1369.85 986.85 1360 999 1360V1358ZM1989.54 1334H1987.54C1987.54 1346.15 1977.69 1356 1965.54 1356V1358V1360C1979.9 1360 1991.54 1348.36 1991.54 1334H1989.54Z" fill="#00558C"/>
<g id="Text Background_14">
<text id="Text_38" fill="black" xml:space="preserve" style="white-space: pre" font-family="Inter" font-size="16" font-weight="bold" letter-spacing="-0.011em"><tspan x="1861.56" y="990.159">HEU (no known civil applications)</tspan></text>
</g>
</g>
<g id="Connector line_19">
<path id="Shape_57" d="M1991.54 584C1991.54 582.895 1990.64 582 1989.54 582C1988.44 582 1987.54 582.895 1987.54 584H1989.54H1991.54ZM1987.54 963.841C1987.54 964.946 1988.44 965.841 1989.54 965.841C1990.64 965.841 1991.54 964.946 1991.54 963.841H1989.54H1987.54ZM1991.54 1004.84C1991.54 1003.74 1990.64 1002.84 1989.54 1002.84C1988.44 1002.84 1987.54 1003.74 1987.54 1004.84H1989.54H1991.54ZM606.12 1743.92C605.015 1743.92 604.234 1745.27 604.786 1746.23L613.667 1761.61C614.219 1762.57 615.781 1762.57 616.333 1761.61L625.214 1746.23C625.766 1745.27 624.985 1743.92 623.88 1743.92H606.12ZM1989.54 584H1987.54V963.841H1989.54H1991.54V584H1989.54ZM1989.54 1004.84H1987.54V1334H1989.54H1991.54V1004.84H1989.54ZM1965.54 1358V1356H639V1358V1360H1965.54V1358ZM615 1382H613V1745.92H615H617V1382H615ZM639 1358V1356C624.641 1356 613 1367.64 613 1382H615H617C617 1369.85 626.85 1360 639 1360V1358ZM1989.54 1334H1987.54C1987.54 1346.15 1977.69 1356 1965.54 1356V1358V1360C1979.9 1360 1991.54 1348.36 1991.54 1334H1989.54Z" fill="#00558C"/>
</g>
<g id="HEU (no known civil applications)_2">
<path id="Shape_58" d="M1509.37 584C1509.37 582.895 1508.48 582 1507.37 582C1506.27 582 1505.37 582.895 1505.37 584H1507.37H1509.37ZM1505.37 962.402C1505.37 963.507 1506.27 964.402 1507.37 964.402C1508.48 964.402 1509.37 963.507 1509.37 962.402H1507.37H1505.37ZM1509.37 1003.4C1509.37 1002.3 1508.48 1001.4 1507.37 1001.4C1506.27 1001.4 1505.37 1002.3 1505.37 1003.4H1507.37H1509.37ZM966.12 1735.92C965.015 1735.92 964.234 1737.27 964.786 1738.23L973.667 1753.61C974.219 1754.57 975.781 1754.57 976.333 1753.61L985.214 1738.23C985.766 1737.27 984.985 1735.92 983.88 1735.92H966.12ZM1507.37 584H1505.37V962.402H1507.37H1509.37V584H1507.37ZM1507.37 1003.4H1505.37V1334H1507.37H1509.37V1003.4H1507.37ZM1483.37 1358V1356H999V1358V1360H1483.37V1358ZM975 1382H973V1737.92H975H977V1382H975ZM999 1358V1356C984.641 1356 973 1367.64 973 1382H975H977C977 1369.85 986.85 1360 999 1360V1358ZM1507.37 1334H1505.37C1505.37 1346.15 1495.52 1356 1483.37 1356V1358V1360C1497.73 1360 1509.37 1348.36 1509.37 1334H1507.37Z" fill="#00558C"/>
<g id="Text Background_15">
<text id="Text_39" fill="black" xml:space="preserve" style="white-space: pre" font-family="Inter" font-size="16" font-weight="bold" letter-spacing="-0.011em"><tspan x="1379.39" y="988.721">HEU (no known civil applications)</tspan></text>
</g>
</g>
</g>
</svg>
