<svg width="40" height="40" viewBox="0 0 40 40" fill="none" xmlns="http://www.w3.org/2000/svg">
<rect width="40" height="40" rx="20" fill="white"/>
<rect width="40" height="40" rx="20" fill="#874FFF"/>
<g clip-path="url(#clip0_480_6566)">
<path d="M22.14 19.99V12.24C22.14 11.5541 21.5859 11 20.9 11H18.42C17.7341 11 17.18 11.5541 17.18 12.24V19.99C17.18 20.5054 16.7654 20.92 16.25 20.92C15.7346 20.92 15.32 20.5054 15.32 19.99V12.7864C11.9875 14.0147 9.74 17.1922 9.74 20.92V23.4H29.58V20.92C29.5412 17.231 27.317 14.0341 24 12.7902V19.99C24 20.5054 23.5854 20.92 23.07 20.92C22.5546 20.92 22.14 20.5054 22.14 19.99ZM10.05 25.26C9.19362 25.26 8.5 25.9536 8.5 26.81C8.5 27.6664 9.19362 28.36 10.05 28.36H29.27C30.1264 28.36 30.82 27.6664 30.82 26.81C30.82 25.9536 30.1264 25.26 29.27 25.26H10.05Z" fill="white"/>
</g>
<defs>
<clipPath id="clip0_480_6566">
<rect width="23" height="18" fill="white" transform="translate(8.5 11)"/>
</clipPath>
</defs>
</svg>
