<svg width="40" height="40" viewBox="0 0 40 40" fill="none" xmlns="http://www.w3.org/2000/svg">
<g clip-path="url(#clip0_480_6541)">
<rect width="40" height="40" rx="20" fill="white"/>
<path d="M0 20C0 31.0469 8.95312 40 20 40C31.0469 40 40 31.0469 40 20C40 8.95312 31.0469 0 20 0C8.95312 0 0 8.95312 0 20ZM13.0469 13.0469C13.7812 12.3125 14.9687 12.3125 15.6953 13.0469L19.9922 17.3437L24.2891 13.0469C25.0234 12.3125 26.2109 12.3125 26.9375 13.0469C27.664 13.7812 27.6719 14.9687 26.9375 15.6953L22.6406 19.9922L26.9375 24.2891C27.6719 25.0234 27.6719 26.2109 26.9375 26.9375C26.2031 27.664 25.0156 27.6719 24.2891 26.9375L19.9922 22.6406L15.6953 26.9375C14.9609 27.6719 13.7734 27.6719 13.0469 26.9375C12.3203 26.2031 12.3125 25.0156 13.0469 24.2891L17.3437 19.9922L13.0469 15.6953C12.3125 14.9609 12.3125 13.7734 13.0469 13.0469Z" fill="#F80200"/>
<path d="M16.5623 14.4375C15.9748 13.85 15.0248 13.85 14.4436 14.4375C13.8623 15.025 13.8561 15.975 14.4436 16.5562L17.8811 19.9937L14.4436 23.4312C13.8561 24.0187 13.8561 24.9687 14.4436 25.5499C15.0311 26.1312 15.9811 26.1374 16.5623 25.5499L19.9998 22.1124L23.4373 25.5499C24.0248 26.1374 24.9748 26.1374 25.556 25.5499C26.1373 24.9624 26.1435 24.0124 25.556 23.4312L22.1186 19.9937L25.556 16.5562C26.1435 15.9687 26.1435 15.0187 25.556 14.4375C24.9685 13.8562 24.0186 13.85 23.4373 14.4375L19.9998 17.8749L16.5623 14.4375Z" fill="#FEFFFF"/>
</g>
<defs>
<clipPath id="clip0_480_6541">
<rect width="40" height="40" rx="20" fill="white"/>
</clipPath>
</defs>
</svg>
