<svg width="40" height="40" viewBox="0 0 40 40" fill="none" xmlns="http://www.w3.org/2000/svg">
<g clip-path="url(#clip0_480_6554)">
<rect width="40" height="40" rx="20" fill="white"/>
<path d="M0 20C0 31.0469 8.95313 40 20 40C31.0469 40 40 31.0469 40 20C40 8.95313 31.0469 0 20 0C8.95313 0 0 8.95313 0 20ZM17.5 27.5C17.5 26.1172 18.6172 25 20 25C20.6875 25 21.3125 25.2812 21.7656 25.7344C21.9922 25.9609 22.1719 26.2344 22.3047 26.5313C22.3828 26.7188 22.4375 26.9141 22.4531 27C22.4844 27.1953 22.4922 27.2813 22.4922 27.2422C22.5 27.3672 22.5 27.3672 22.5078 27.5234C22.5 27.7344 22.4922 27.8125 22.4922 27.7734C22.4687 27.9375 22.4609 27.9766 22.4531 28.0156C22.4219 28.1719 22.3672 28.3281 22.3047 28.4844C22.1797 28.7813 21.9922 29.0469 21.7734 29.2734C21.3203 29.7266 20.6953 30.0078 20.0078 30.0078C18.625 30.0078 17.5078 28.8906 17.5078 27.5078L17.5 27.5ZM17.5547 12.2266C17.5703 12.1016 17.5703 12.1016 17.5859 11.9844C17.5781 12.0156 17.5937 11.9297 17.6484 11.7422C17.6875 11.6328 17.6875 11.625 17.6875 11.625C17.8047 11.3125 17.9766 11.0234 18.2031 10.7891C18.6484 10.3047 19.2891 10.0078 20 10.0078C21.4219 10.0078 22.5547 11.2188 22.4531 12.6406C22.2578 15.3594 22.0625 18.0625 21.875 20.7656C21.875 20.7812 21.875 20.7891 21.875 20.8125C21.8672 20.8516 21.8672 20.8906 21.8594 20.9453C21.8594 20.9531 21.8516 20.9688 21.8516 20.9844C21.8438 21.0313 21.8281 21.0781 21.8203 21.1328C21.7891 21.2422 21.75 21.3516 21.6953 21.4609C21.5938 21.6719 21.4531 21.8594 21.2891 22.0078C20.9531 22.3203 20.5 22.5078 20.0078 22.5078C19.0234 22.5078 18.2109 21.75 18.1406 20.7656C17.9453 18.0469 17.75 15.3438 17.5625 12.6406C17.5625 12.6328 17.5625 12.625 17.5547 12.5C17.5547 12.375 17.5547 12.3672 17.5625 12.2422L17.5547 12.2266Z" fill="#FF6F00"/>
<path d="M20 28C18.8937 28 18 27.1063 18 26C18 24.8937 18.8937 24 20 24C21.1063 24 22 24.8937 22 26C22 27.1063 21.1063 28 20 28ZM20 12C21.1437 12 22.0437 12.9687 21.9625 14.1062L21.5 20.6063C21.4375 21.3938 20.7875 22 20 22C19.2125 22 18.5625 21.3938 18.5063 20.6063L18.0438 14.1062C17.9563 12.9687 18.8563 12 20 12Z" fill="white"/>
</g>
<defs>
<clipPath id="clip0_480_6554">
<rect width="40" height="40" rx="20" fill="white"/>
</clipPath>
</defs>
</svg>
