<svg width="40" height="40" viewBox="0 0 40 40" fill="none" xmlns="http://www.w3.org/2000/svg">
<g clip-path="url(#clip0_480_6547)">
<rect width="40" height="40" rx="20" fill="white"/>
<path d="M0 20C0 31.0469 8.95313 40 20 40C31.0469 40 40 31.0469 40 20C40 8.95313 31.0469 0 20 0C8.95313 0 0 8.95313 0 20ZM10.5547 20.5547C11.2891 19.8203 12.4766 19.8203 13.2031 20.5547L17.2734 24.625L26.6016 11.7969C27.2109 10.9609 28.3828 10.7734 29.2188 11.3828C30.0547 11.9922 30.2422 13.1641 29.6328 14L19.0156 28.6016C18.6953 29.0469 18.1953 29.3281 17.6484 29.3672C17.1016 29.4062 16.5625 29.2109 16.1797 28.8203L10.5547 23.1953C9.82031 22.4609 9.82031 21.2734 10.5547 20.5469V20.5547Z" fill="#3A7E2C"/>
</g>
<defs>
<clipPath id="clip0_480_6547">
<rect width="40" height="40" rx="20" fill="white"/>
</clipPath>
</defs>
</svg>
