<svg width="594" height="183" viewBox="0 0 594 183" fill="none" xmlns="http://www.w3.org/2000/svg">
<path d="M103.633 70.6554H139.277V80.6862H115.972V94.3995H135.402V104.43H115.972V127.955H103.606V70.6554H103.633Z" fill="#C9CACC"/>
<path d="M145.845 70.6554H165.824C181.324 70.408 188.386 77.5533 187.974 93.0529V105.584C188.386 121.084 181.379 128.147 165.824 127.982H145.845V70.6554ZM163.571 118.171C172.887 118.254 175.443 115.45 175.607 104.595V94.0147C175.443 83.187 172.887 80.3839 163.571 80.4388H158.184V118.171H163.571Z" fill="#C9CACC"/>
<path d="M196.329 70.6554H216.308C231.807 70.408 238.87 77.5533 238.458 93.0529V105.584C238.87 121.084 231.862 128.147 216.308 127.982H196.329V70.6554ZM214.082 118.171C223.398 118.254 225.954 115.45 226.119 104.595V94.0147C225.954 83.187 223.398 80.3839 214.082 80.4388H208.695V118.171H214.082Z" fill="#C9CACC"/>
<path d="M260.553 70.6554H267.286L282.456 118.254L297.626 70.6554H304.359L285.259 127.955H279.653L260.553 70.6554Z" fill="#C9CACC"/>
<path d="M313.62 70.6554H320.271V127.955H313.62V70.6554Z" fill="#C9CACC"/>
<path d="M337.447 116.907C339.865 120.919 344.839 123.09 351.572 123.09C359.927 123.09 364.736 119.325 364.736 112.812C364.736 109.679 363.444 106.959 361.273 105.42C359.102 103.908 359.102 103.908 350.665 101.819C338.876 98.8514 334.286 94.262 334.286 85.5229C334.286 75.7394 340.882 69.9408 351.875 69.9408C359.569 69.9408 365.368 72.4966 368.418 77.1685L363.362 80.4663C361.026 77.2509 356.931 75.4921 351.655 75.4921C344.922 75.4921 340.827 79.0922 340.827 85.1106C340.827 90.9642 344.207 93.8498 353.991 96.3506C361.685 98.1919 363.06 98.769 365.863 100.693C369.38 103.111 371.249 107.123 371.249 112.482C371.249 122.925 364.269 128.696 351.572 128.696C342.256 128.696 335.77 125.893 332.225 120.26L337.447 116.907Z" fill="#C9CACC"/>
<path d="M389.882 70.6554V106.931C389.882 112.702 390.431 115.505 391.97 118.006C394.306 121.524 397.439 123.063 402.798 123.063C408.487 123.063 411.949 121.304 414.12 117.209C415.247 114.956 415.714 112.153 415.714 106.931V70.6554H422.365V106.931C422.365 115.038 421.568 118.638 418.902 122.019C415.357 126.663 410.383 128.669 402.77 128.669C394.663 128.669 389.277 126.251 385.924 121.057C383.836 117.841 383.204 114.406 383.204 106.931V70.6554H389.882Z" fill="#C9CACC"/>
<path d="M442.042 115.45L437.7 127.982H430.472L451.413 70.6829H457.761L478.702 127.982H471.474L467.132 115.45H442.042ZM454.656 79.1747L443.8 109.927H465.483L454.656 79.1747Z" fill="#C9CACC"/>
<path d="M487.002 70.6554H493.652V122.348H520.612V127.955H486.974V70.6554H487.002Z" fill="#C9CACC"/>
<path d="M530.258 116.907C532.676 120.919 537.65 123.09 544.383 123.09C552.738 123.09 557.547 119.325 557.547 112.812C557.547 109.679 556.255 106.959 554.084 105.42C551.913 103.908 551.913 103.908 543.476 101.819C531.687 98.8514 527.097 94.262 527.097 85.5229C527.097 75.7394 533.693 69.9408 544.685 69.9408C552.38 69.9408 558.179 72.4966 561.229 77.1685L556.173 80.4663C553.837 77.2509 549.742 75.4921 544.466 75.4921C537.733 75.4921 533.638 79.0922 533.638 85.1106C533.638 90.9642 537.018 93.8498 546.802 96.3506C554.496 98.1919 555.87 98.769 558.674 100.693C562.219 103.111 564.06 107.123 564.06 112.482C564.06 122.925 557.08 128.696 544.383 128.696C535.067 128.696 528.581 125.893 525.036 120.26L530.258 116.907Z" fill="#C9CACC"/>
<path d="M45.9493 86.9244C45.9493 86.9244 68.0445 72.7164 70.3255 51.5281C68.6766 43.9431 66.6704 38.9965 66.6704 38.9965C68.6216 58.7557 47.2959 72.4416 47.2959 72.4416C21.2158 86.4022 18.8249 108.8 19.8143 121.139C22.5624 108.14 29.955 95.4986 45.9493 86.9244Z" fill="white"/>
<path d="M23.4693 153.87C23.4693 153.87 12.0095 116.357 49.4944 96.323C49.4944 96.323 70.8201 82.6372 68.8964 62.8779C68.8964 62.8779 98.7414 136.694 23.4693 153.87Z" fill="white"/>
<path d="M54.4411 30.8345L57.7389 29.1031L57.1068 32.7857L59.7725 35.369L56.09 35.9186L54.4411 39.2713L52.7922 35.9186L49.1097 35.369L51.7754 32.7857L51.1433 29.1031L54.4411 30.8345Z" fill="white"/>
<path d="M51.9128 45.9219L54.8258 44.4104L54.2762 47.6532L56.6121 49.9342L53.3693 50.4289L51.9128 53.3694L50.4563 50.4289L47.186 49.9342L49.5494 47.6532L48.9997 44.4104L51.9128 45.9219Z" fill="white"/>
<path d="M42.9538 57.9864L45.5645 56.6123L45.0699 59.5254L47.186 61.5865L44.2454 62.0262L42.9538 64.6644L41.6347 62.0262L38.7216 61.5865L40.8102 59.5254L40.3156 56.6123L42.9538 57.9864Z" fill="white"/>
<path d="M32.5383 68.6767L34.6818 67.5499L34.2696 69.9408L36.0009 71.6172L33.6375 71.9745L32.5383 74.1455L31.494 71.9745L29.1031 71.6172L30.8344 69.9408L30.3947 67.5499L32.5383 68.6767Z" fill="white"/>
</svg>
