<svg width="2247" height="5174" viewBox="0 0 2247 5174" fill="none" xmlns="http://www.w3.org/2000/svg">
<rect width="2247" height="5174" fill="#F5F5F5"/>
<g id="Iran Flowchart" clip-path="url(#clip0_0_1)">
<rect width="2367" height="6196" transform="translate(-60 -1022)" fill="white"/>
<g id="Frame 48">
<g id="chart">
<g id="Centrifuge component manufacturing companies">
<rect id="Shape" width="272" height="80" rx="6" fill="#00558C" stroke="#00558C" stroke-width="4" stroke-linecap="round"/>
<text id="Text" fill="white" xml:space="preserve" style="white-space: pre" font-family="Inter" font-size="16" font-weight="bold" letter-spacing="-0.011em"><tspan x="48.9553" y="33.8182">Centrifuge component </tspan><tspan x="35.3188" y="57.8182">manufacturing companies</tspan></text>
</g>
<g id="Unknown site(s)">
<rect id="Shape_2" x="87" y="112" width="272" height="80" rx="6" fill="#DCDCDC" stroke="#00558C" stroke-width="4" stroke-linecap="round"/>
<text id="Text_2" fill="black" fill-opacity="0.8" xml:space="preserve" style="white-space: pre" font-family="Inter" font-size="16" font-weight="500" letter-spacing="-0.011em"><tspan x="161.888" y="157.818">Unknown site(s)</tspan></text>
</g>
<g id="Connector line">
<path id="Shape_3" d="M52.4498 88V128C52.4498 141.255 63.1949 152 76.4498 152H79" stroke="#B3B3B3" stroke-width="4" stroke-linecap="round" stroke-linejoin="bevel"/>
</g>
<g id="Centrifuge manufacturing">
<rect id="Shape_4" x="416" width="272" height="80" rx="6" fill="#00558C" stroke="#00558C" stroke-width="4" stroke-linecap="round"/>
<text id="Text_3" fill="white" xml:space="preserve" style="white-space: pre" font-family="Inter" font-size="16" font-weight="bold" letter-spacing="-0.011em"><tspan x="452.196" y="45.8182">Centrifuge manufacturing</tspan></text>
</g>
<g id="Connector line_2">
<path id="Shape_5" d="M280 40H408" stroke="#B3B3B3" stroke-width="4" stroke-linecap="round" stroke-linejoin="bevel"/>
</g>
<g id="TABA/TESA Karaj Site">
<rect id="Shape_6" x="503" y="112" width="272" height="80" rx="6" fill="#FFC7C2" stroke="#00558C" stroke-width="4" stroke-linecap="round"/>
<text id="Text_4" fill="black" fill-opacity="0.8" xml:space="preserve" style="white-space: pre" font-family="Inter" font-size="16" font-weight="500" letter-spacing="-0.011em"><tspan x="557.594" y="157.818">TABA/TESA Karaj Site</tspan></text>
</g>
<g id="Esfahan Site">
<rect id="Shape_7" x="503" y="224" width="272" height="80" rx="6" fill="#FFC7C2" stroke="#00558C" stroke-width="4" stroke-linecap="round"/>
<text id="Text_5" fill="black" fill-opacity="0.8" xml:space="preserve" style="white-space: pre" font-family="Inter" font-size="16" font-weight="500" letter-spacing="-0.011em"><tspan x="592.452" y="269.818">Esfahan Site</tspan></text>
</g>
<g id="Connector line_3">
<path id="Shape_8" d="M639 200V216" stroke="#B3B3B3" stroke-width="4" stroke-linecap="round" stroke-linejoin="bevel" stroke-dasharray="16 10"/>
</g>
<g id="Kalaye Electric/Damavand Rd">
<rect id="Shape_9" x="503" y="336" width="272" height="80" rx="6" fill="#FFC7C2" stroke="#00558C" stroke-width="4" stroke-linecap="round"/>
<text id="Text_6" fill="black" fill-opacity="0.8" xml:space="preserve" style="white-space: pre" font-family="Inter" font-size="16" font-weight="500" letter-spacing="-0.011em"><tspan x="529.499" y="381.818">Kalaye Electric/Damavand Rd</tspan></text>
</g>
<g id="Connector line_4">
<path id="Shape_10" d="M639 312V328" stroke="#B3B3B3" stroke-width="4" stroke-linecap="round" stroke-linejoin="bevel" stroke-dasharray="16 10"/>
</g>
<g id="Pickaxe Mountain Site at Natanz">
<rect id="Shape_11" x="503" y="448" width="272" height="80" rx="6" fill="#DCCCFF" stroke="#00558C" stroke-width="4" stroke-linecap="round"/>
<text id="Text_7" fill="black" fill-opacity="0.8" xml:space="preserve" style="white-space: pre" font-family="Inter" font-size="16" font-weight="500" letter-spacing="-0.011em"><tspan x="518.187" y="493.818">Pickaxe Mountain Site at Natanz</tspan></text>
</g>
<g id="Connector line_5">
<path id="Shape_12" d="M639 424V440" stroke="#B3B3B3" stroke-width="4" stroke-linecap="round" stroke-linejoin="bevel" stroke-dasharray="16 10"/>
</g>
<g id="Centrifuge testing and development">
<rect id="Shape_13" x="832" width="272" height="80" rx="6" fill="#00558C" stroke="#00558C" stroke-width="4" stroke-linecap="round"/>
<text id="Text_8" fill="white" xml:space="preserve" style="white-space: pre" font-family="Inter" font-size="16" font-weight="bold" letter-spacing="-0.011em"><tspan x="881.623" y="33.8182">Centrifuge testing and </tspan><tspan x="917.489" y="57.8182">development</tspan></text>
</g>
<g id="Connector line_6">
<path id="Shape_14" d="M696 40H824" stroke="#B3B3B3" stroke-width="4" stroke-linecap="round" stroke-linejoin="bevel"/>
</g>
<g id="Centrifuge stockpiles">
<rect id="Shape_15" x="1248" width="272" height="80" rx="6" fill="#00558C" stroke="#00558C" stroke-width="4" stroke-linecap="round"/>
<text id="Text_9" fill="white" xml:space="preserve" style="white-space: pre" font-family="Inter" font-size="16" font-weight="bold" letter-spacing="-0.011em"><tspan x="1301.16" y="45.8182">Centrifuge stockpiles</tspan></text>
</g>
<g id="Connector line_7">
<path id="Shape_16" d="M1112 40H1240" stroke="#B3B3B3" stroke-width="4" stroke-linecap="round" stroke-linejoin="bevel"/>
</g>
<g id="Unknown site(s)_2">
<rect id="Shape_17" x="1335" y="112" width="272" height="80" rx="6" fill="#DCDCDC" stroke="#00558C" stroke-width="4" stroke-linecap="round"/>
<text id="Text_10" fill="black" fill-opacity="0.8" xml:space="preserve" style="white-space: pre" font-family="Inter" font-size="16" font-weight="500" letter-spacing="-0.011em"><tspan x="1409.89" y="157.818">Unknown site(s)</tspan></text>
</g>
<g id="Connector line_8">
<path id="Shape_18" d="M1307.45 88V132.446C1307.45 143.246 1316.2 152 1327 152V152" stroke="#B3B3B3" stroke-width="4" stroke-linecap="round" stroke-linejoin="bevel"/>
</g>
<g id="Uranium enrichment">
<rect id="Shape_19" x="1415" y="1272" width="272" height="80" rx="6" fill="#00558C" stroke="#00558C" stroke-width="4" stroke-linecap="round"/>
<text id="Text_11" fill="white" xml:space="preserve" style="white-space: pre" font-family="Inter" font-size="16" font-weight="bold" letter-spacing="-0.011em"><tspan x="1472.53" y="1317.82">Uranium enrichment</tspan></text>
</g>
<g id="Natanz Pilot Fuel Enrichment Plant (Above-ground plant 8-30m)&#226;&#128;&#168;&#226;&#128;&#168;Likely no intact HEU">
<rect id="Shape_20" x="1495" y="1384" width="272" height="176" rx="6" fill="#FFC7C2" stroke="#00558C" stroke-width="4" stroke-linecap="round"/>
<text id="Text_12" fill="black" fill-opacity="0.8" xml:space="preserve" style="white-space: pre" font-family="Inter" font-size="16" font-weight="500" letter-spacing="-0.011em"><tspan x="1568.16" y="1429.82">Natanz Pilot Fuel&#10;</tspan><tspan x="1567.24" y="1453.82">Enrichment Plant&#10;</tspan><tspan x="1522.32" y="1477.82">(Above-ground plant 8-30m)&#x2028;</tspan><tspan x="1631" y="1501.82">&#x2028;</tspan><tspan x="1556.24" y="1525.82">Likely no intact HEU</tspan></text>
</g>
<g id="Natanz Pilot Fuel Enrichment Plant (Below-ground plant 8-30m) Likely no intact HEU">
<rect id="Shape_21" x="1495" y="1592" width="272" height="176" rx="6" fill="#FFE0C2" stroke="#00558C" stroke-width="4" stroke-linecap="round"/>
<text id="Text_13" fill="black" fill-opacity="0.8" xml:space="preserve" style="white-space: pre" font-family="Inter" font-size="16" font-weight="500" letter-spacing="-0.011em"><tspan x="1568.16" y="1637.82">Natanz Pilot Fuel&#10;</tspan><tspan x="1567.24" y="1661.82">Enrichment Plant&#10;</tspan><tspan x="1523.47" y="1685.82">(Below-ground plant 8-30m)&#10;</tspan><tspan x="1631" y="1709.82">&#10;</tspan><tspan x="1556.24" y="1733.82">Likely no intact HEU</tspan></text>
</g>
<g id="Connector line_9">
<path id="Shape_22" d="M458.55 88V128C458.55 141.255 469.295 152 482.55 152H495" stroke="#B3B3B3" stroke-width="4" stroke-linecap="round" stroke-linejoin="bevel"/>
</g>
<g id="Tehran Nuclear Research Center">
<rect id="Shape_23" x="919" y="112" width="272" height="80" rx="6" fill="#FFC7C2" stroke="#00558C" stroke-width="4" stroke-linecap="round"/>
<text id="Text_14" fill="black" fill-opacity="0.8" xml:space="preserve" style="white-space: pre" font-family="Inter" font-size="16" font-weight="500" letter-spacing="-0.011em"><tspan x="933.505" y="157.818">Tehran Nuclear Research Center</tspan></text>
</g>
<g id="Connector line_10">
<path id="Shape_24" d="M882.712 88V128C882.712 141.255 893.458 152 906.712 152H911" stroke="#B3B3B3" stroke-width="4" stroke-linecap="round" stroke-linejoin="bevel"/>
</g>
<g id="Connector line_11">
<path id="Shape_25" d="M1309.2 88C1309.2 86.8954 1308.3 86 1307.2 86C1306.1 86 1305.2 86.8954 1305.2 88H1307.2H1309.2ZM1542.12 1246.69C1541.02 1246.69 1540.23 1248.04 1540.79 1249L1549.67 1264.38C1550.22 1265.34 1551.78 1265.34 1552.33 1264.38L1561.21 1249C1561.77 1248.04 1560.98 1246.69 1559.88 1246.69H1542.12ZM1307.2 88H1305.2V568H1307.2H1309.2V88H1307.2ZM1331.2 592V594H1527V592V590H1331.2V592ZM1551 616H1549V1248.69H1551H1553V616H1551ZM1527 592V594C1539.15 594 1549 603.85 1549 616H1551H1553C1553 601.641 1541.36 590 1527 590V592ZM1307.2 568H1305.2C1305.2 582.359 1316.84 594 1331.2 594V592V590C1319.05 590 1309.2 580.15 1309.2 568H1307.2Z" fill="#00558C"/>
</g>
<g id="Connector line_12">
<path id="Shape_26" d="M884.886 88C884.886 86.8954 883.99 86 882.886 86C881.781 86 880.886 86.8954 880.886 88H882.886H884.886ZM1542.12 1246.69C1541.02 1246.69 1540.23 1248.04 1540.79 1249L1549.67 1264.38C1550.22 1265.34 1551.78 1265.34 1552.33 1264.38L1561.21 1249C1561.77 1248.04 1560.98 1246.69 1559.88 1246.69H1542.12ZM882.886 88H880.886V568H882.886H884.886V88H882.886ZM906.886 592V594H1527V592V590H906.886V592ZM1551 616H1549V1248.69H1551H1553V616H1551ZM1527 592V594C1539.15 594 1549 603.85 1549 616H1551H1553C1553 601.641 1541.36 590 1527 590V592ZM882.886 568H880.886C880.886 582.359 892.526 594 906.886 594V592V590C894.735 590 884.886 580.15 884.886 568H882.886Z" fill="#00558C"/>
</g>
<g id="Connector line_13">
<path id="Shape_27" d="M460.306 88C460.306 86.8954 459.41 86 458.306 86C457.201 86 456.306 86.8954 456.306 88H458.306H460.306ZM1542.12 1246.69C1541.02 1246.69 1540.23 1248.04 1540.79 1249L1549.67 1264.38C1550.22 1265.34 1551.78 1265.34 1552.33 1264.38L1561.21 1249C1561.77 1248.04 1560.98 1246.69 1559.88 1246.69H1542.12ZM458.306 88H456.306V568H458.306H460.306V88H458.306ZM482.306 592V594H1527V592V590H482.306V592ZM1551 616H1549V1248.69H1551H1553V616H1551ZM1527 592V594C1539.15 594 1549 603.85 1549 616H1551H1553C1553 601.641 1541.36 590 1527 590V592ZM458.306 568H456.306C456.306 582.359 467.946 594 482.306 594V592V590C470.156 590 460.306 580.15 460.306 568H458.306Z" fill="#00558C"/>
</g>
<g id="Uranium conversion/ production of UF&#226;&#130;&#134;">
<rect id="Shape_28" x="951" y="1272" width="272" height="80" rx="6" fill="#00558C" stroke="#00558C" stroke-width="4" stroke-linecap="round"/>
<text id="Text_15" fill="white" xml:space="preserve" style="white-space: pre" font-family="Inter" font-size="16" font-weight="bold" letter-spacing="-0.011em"><tspan x="1006.98" y="1305.82">Uranium conversion/&#10;</tspan><tspan x="1019.85" y="1329.82">production of UF&#x2086;</tspan></text>
</g>
<g id="Uranium milling">
<rect id="Shape_29" x="471" y="1272" width="272" height="80" rx="6" fill="#00558C" stroke="#00558C" stroke-width="4" stroke-linecap="round"/>
<text id="Text_16" fill="white" xml:space="preserve" style="white-space: pre" font-family="Inter" font-size="16" font-weight="bold" letter-spacing="-0.011em"><tspan x="547.271" y="1317.82">Uranium milling</tspan></text>
</g>
<g id="Uranium mining">
<rect id="Shape_30" x="199" y="688" width="272" height="80" rx="6" fill="#00558C" stroke="#00558C" stroke-width="4" stroke-linecap="round"/>
<text id="Text_17" fill="white" xml:space="preserve" style="white-space: pre" font-family="Inter" font-size="16" font-weight="bold" letter-spacing="-0.011em"><tspan x="274.566" y="733.818">Uranium mining</tspan></text>
</g>
<g id="U&#226;&#130;&#131;O&#226;&#130;&#136;">
<path id="Shape_31" d="M751 1310C749.895 1310 749 1310.9 749 1312C749 1313.1 749.895 1314 751 1314V1312V1310ZM820.845 1314C821.95 1314 822.845 1313.1 822.845 1312C822.845 1310.9 821.95 1310 820.845 1310V1312V1314ZM875.845 1310C874.74 1310 873.845 1310.9 873.845 1312C873.845 1313.1 874.74 1314 875.845 1314V1312V1310ZM925.69 1320.88C925.69 1321.98 927.043 1322.77 927.999 1322.21L943.381 1313.33C944.337 1312.78 944.337 1311.22 943.381 1310.67L927.999 1301.79C927.043 1301.23 925.69 1302.02 925.69 1303.12V1320.88ZM751 1312V1314H820.845V1312V1310H751V1312ZM875.845 1312V1314H927.69V1312V1310H875.845V1312Z" fill="#00558C"/>
<g id="Text Background">
<text id="Text_18" fill="black" fill-opacity="0.8" xml:space="preserve" style="white-space: pre" font-family="Inter" font-size="16" font-weight="bold" letter-spacing="-0.011em"><tspan x="829.445" y="1317.82">U&#x2083;O&#x2088;</tspan></text>
</g>
</g>
<g id="UF&#226;&#130;&#134;">
<path id="Shape_32" d="M1231 1310C1229.9 1310 1229 1310.9 1229 1312C1229 1313.1 1229.9 1314 1231 1314V1312V1310ZM1297.84 1314C1298.95 1314 1299.84 1313.1 1299.84 1312C1299.84 1310.9 1298.95 1310 1297.84 1310V1312V1314ZM1342.84 1310C1341.74 1310 1340.84 1310.9 1340.84 1312C1340.84 1313.1 1341.74 1314 1342.84 1314V1312V1310ZM1389.69 1320.88C1389.69 1321.98 1391.04 1322.77 1392 1322.21L1407.38 1313.33C1408.34 1312.78 1408.34 1311.22 1407.38 1310.67L1392 1301.79C1391.04 1301.23 1389.69 1302.02 1389.69 1303.12V1320.88ZM1231 1312V1314H1297.84V1312V1310H1231V1312ZM1342.84 1312V1314H1391.69V1312V1310H1342.84V1312Z" fill="#00558C"/>
<g id="Text Background_2">
<text id="Text_19" fill="black" fill-opacity="0.8" xml:space="preserve" style="white-space: pre" font-family="Inter" font-size="16" font-weight="bold" letter-spacing="-0.011em"><tspan x="1306.63" y="1317.82">UF&#x2086;</tspan></text>
</g>
</g>
<g id="Saghand 1 &#38; 2">
<rect id="Shape_33" x="293.089" y="800" width="272" height="80" rx="6" fill="#9FE2AA" stroke="#00558C" stroke-width="4" stroke-linecap="round"/>
<text id="Text_20" fill="black" fill-opacity="0.8" xml:space="preserve" style="white-space: pre" font-family="Inter" font-size="16" font-weight="500" letter-spacing="-0.011em"><tspan x="376.098" y="845.818">Saghand 1 &#38; 2</tspan></text>
</g>
<g id="Connector line_14">
<path id="Shape_34" d="M246.911 776V816C246.911 829.255 257.656 840 270.911 840H285.089" stroke="#B3B3B3" stroke-width="4" stroke-linecap="round" stroke-linejoin="bevel"/>
</g>
<g id="Khoshumi">
<rect id="Shape_35" x="293.089" y="916" width="272" height="80" rx="6" fill="#DCDCDC" stroke="#00558C" stroke-width="4" stroke-linecap="round"/>
<text id="Text_21" fill="black" fill-opacity="0.8" xml:space="preserve" style="white-space: pre" font-family="Inter" font-size="16" font-weight="500" letter-spacing="-0.011em"><tspan x="391.838" y="961.818">Khoshumi</tspan></text>
</g>
<g id="Connector line_15">
<path id="Shape_36" d="M429.089 888V908" stroke="#B3B3B3" stroke-width="4" stroke-linecap="round" stroke-linejoin="bevel" stroke-dasharray="16 10"/>
</g>
<g id="Ardakan Yellowcake Production Plant">
<rect id="Shape_37" x="558" y="1416" width="272" height="80" rx="6" fill="#9FE2AA" stroke="#00558C" stroke-width="4" stroke-linecap="round"/>
<text id="Text_22" fill="black" fill-opacity="0.8" xml:space="preserve" style="white-space: pre" font-family="Inter" font-size="16" font-weight="500" letter-spacing="-0.011em"><tspan x="576.068" y="1449.82">Ardakan Yellowcake Production </tspan><tspan x="674.93" y="1473.82">Plant</tspan></text>
</g>
<g id="Connector line_16">
<path id="Shape_38" d="M518.445 1360V1432C518.445 1445.25 529.19 1456 542.445 1456H550" stroke="#B3B3B3" stroke-width="4" stroke-linecap="round" stroke-linejoin="bevel"/>
</g>
<g id="Fordow Fuel Enrichment Plant, Qom Deeply buried (60-90 m) Any intact HEU requires excavation">
<rect id="Shape_39" x="1495" y="2008" width="272" height="176" rx="6" fill="#FFE0C2" stroke="#00558C" stroke-width="4" stroke-linecap="round"/>
<text id="Text_23" fill="black" fill-opacity="0.8" xml:space="preserve" style="white-space: pre" font-family="Inter" font-size="16" font-weight="500" letter-spacing="-0.011em"><tspan x="1517.77" y="2041.82">Fordow Fuel Enrichment Plant, </tspan><tspan x="1611.11" y="2065.82">Qom &#10;</tspan><tspan x="1538.11" y="2089.82">Deeply buried (60-90 m)&#10;</tspan><tspan x="1631" y="2113.82">&#10;</tspan><tspan x="1542.24" y="2137.82">Any intact HEU requires </tspan><tspan x="1590.5" y="2161.82">excavation</tspan></text>
</g>
<g id="Pickaxe Mountain at Natanz (Deeply buried &#62;100+ m)">
<rect id="Shape_40" x="1495" y="2216" width="272" height="112" rx="6" fill="#DCDCDC" stroke="#00558C" stroke-width="4" stroke-linecap="round"/>
<text id="Text_24" fill="black" fill-opacity="0.8" xml:space="preserve" style="white-space: pre" font-family="Inter" font-size="16" font-weight="500" letter-spacing="-0.011em"><tspan x="1526.63" y="2265.82">Pickaxe Mountain at Natanz&#10;</tspan><tspan x="1537.55" y="2289.82">(Deeply buried &#62;100+ m)</tspan></text>
</g>
<g id="Esfahan Tunnels (Deeply buried)">
<rect id="Shape_41" x="1495" y="2360" width="272" height="80" rx="6" fill="#DCDCDC" stroke="#00558C" stroke-width="4" stroke-linecap="round"/>
<text id="Text_25" fill="black" fill-opacity="0.8" xml:space="preserve" style="white-space: pre" font-family="Inter" font-size="16" font-weight="500" letter-spacing="-0.011em"><tspan x="1569.57" y="2393.82">Esfahan Tunnels&#10;</tspan><tspan x="1572.91" y="2417.82">(Deeply buried)</tspan></text>
</g>
<g id="Connector line_17">
<path id="Shape_42" d="M1631 2336V2352" stroke="#B3B3B3" stroke-width="4" stroke-linecap="round" stroke-linejoin="bevel" stroke-dasharray="16 10"/>
</g>
<g id="Foreign uranium imports">
<rect id="Shape_43" x="615" y="688" width="272" height="80" rx="6" fill="#00558C" stroke="#00558C" stroke-width="4" stroke-linecap="round"/>
<text id="Text_26" fill="white" xml:space="preserve" style="white-space: pre" font-family="Inter" font-size="16" font-weight="bold" letter-spacing="-0.011em"><tspan x="657.217" y="733.818">Foreign uranium imports</tspan></text>
</g>
<g id="Fuel manufacturing">
<rect id="Shape_44" x="855" y="1704" width="272" height="80" rx="6" fill="#00558C" stroke="#00558C" stroke-width="4" stroke-linecap="round"/>
<text id="Text_27" fill="white" xml:space="preserve" style="white-space: pre" font-family="Inter" font-size="16" font-weight="bold" letter-spacing="-0.011em"><tspan x="916.566" y="1749.82">Fuel manufacturing</tspan></text>
</g>
<g id="Natural UO&#226;&#130;&#130;">
<path id="Shape_45" d="M520.357 1360C520.357 1358.9 519.462 1358 518.357 1358C517.252 1358 516.357 1358.9 516.357 1360H518.357H520.357ZM700.678 1578C701.783 1578 702.678 1577.1 702.678 1576C702.678 1574.9 701.783 1574 700.678 1574V1576V1578ZM808.678 1574C807.574 1574 806.678 1574.9 806.678 1576C806.678 1577.1 807.574 1578 808.678 1578V1576V1574ZM982.12 1678.69C981.015 1678.69 980.234 1680.04 980.786 1681L989.667 1696.38C990.219 1697.34 991.781 1697.34 992.333 1696.38L1001.21 1681C1001.77 1680.04 1000.98 1678.69 999.88 1678.69H982.12ZM518.357 1360H516.357V1552H518.357H520.357V1360H518.357ZM542.357 1576V1578H700.678V1576V1574H542.357V1576ZM808.678 1576V1578H967V1576V1574H808.678V1576ZM991 1600H989V1680.69H991H993V1600H991ZM967 1576V1578C979.15 1578 989 1587.85 989 1600H991H993C993 1585.64 981.359 1574 967 1574V1576ZM518.357 1552H516.357C516.357 1566.36 527.998 1578 542.357 1578V1576V1574C530.207 1574 520.357 1564.15 520.357 1552H518.357Z" fill="#00558C"/>
<g id="Text Background_3">
<text id="Text_28" fill="black" fill-opacity="0.8" xml:space="preserve" style="white-space: pre" font-family="Inter" font-size="16" font-weight="bold" letter-spacing="-0.011em"><tspan x="709.644" y="1581.82">Natural UO&#x2082;</tspan></text>
</g>
</g>
<g id="Unknown">
<rect id="Shape_46" x="702" y="800" width="272" height="80" rx="6" fill="#DCDCDC" stroke="#00558C" stroke-width="4" stroke-linecap="round"/>
<text id="Text_29" fill="black" fill-opacity="0.8" xml:space="preserve" style="white-space: pre" font-family="Inter" font-size="16" font-weight="500" letter-spacing="-0.011em"><tspan x="802.544" y="845.818">Unknown</tspan></text>
</g>
<g id="Connector line_18">
<path id="Shape_47" d="M660.674 776V816C660.674 829.255 671.419 840 684.674 840H694" stroke="#B3B3B3" stroke-width="4" stroke-linecap="round" stroke-linejoin="bevel"/>
</g>
<g id="Esfahan Fuel Manufacturing Plant (FMP)">
<rect id="Shape_48" x="935" y="1818" width="272" height="80" rx="6" fill="#FFC7C2" stroke="#00558C" stroke-width="4" stroke-linecap="round"/>
<text id="Text_30" fill="black" fill-opacity="0.8" xml:space="preserve" style="white-space: pre" font-family="Inter" font-size="16" font-weight="500" letter-spacing="-0.011em"><tspan x="945.847" y="1851.82">Esfahan Fuel Manufacturing Plant </tspan><tspan x="1048.32" y="1875.82">(FMP)</tspan></text>
</g>
<g id="Connector line_19">
<path id="Shape_49" d="M886.64 1792V1834C886.64 1847.25 897.385 1858 910.64 1858H927" stroke="#B3B3B3" stroke-width="4" stroke-linecap="round" stroke-linejoin="bevel"/>
</g>
<g id="Esfahan Fuel Plate Manufacturing Plant (FPFP)">
<rect id="Shape_50" x="935" y="1930" width="272" height="96" rx="6" fill="#FFC7C2" stroke="#00558C" stroke-width="4" stroke-linecap="round"/>
<text id="Text_31" fill="black" fill-opacity="0.8" xml:space="preserve" style="white-space: pre" font-family="Inter" font-size="16" font-weight="500" letter-spacing="-0.011em"><tspan x="945.98" y="1971.82">Esfahan Fuel Plate Manufacturing </tspan><tspan x="1024.77" y="1995.82">Plant (FPFP)</tspan></text>
</g>
<g id="Connector line_20">
<path id="Shape_51" d="M1071 1906V1922" stroke="#B3B3B3" stroke-width="4" stroke-linecap="round" stroke-linejoin="bevel" stroke-dasharray="16 10"/>
</g>
<g id="Esfahan Central Chemical Laboratory">
<rect id="Shape_52" x="935" y="2058" width="272" height="80" rx="6" fill="#FFC7C2" stroke="#00558C" stroke-width="4" stroke-linecap="round"/>
<text id="Text_32" fill="black" fill-opacity="0.8" xml:space="preserve" style="white-space: pre" font-family="Inter" font-size="16" font-weight="500" letter-spacing="-0.011em"><tspan x="974.792" y="2091.82">Esfahan Central Chemical </tspan><tspan x="1029.82" y="2115.82">Laboratory</tspan></text>
</g>
<g id="Connector line_21">
<path id="Shape_53" d="M1071 2034V2050" stroke="#B3B3B3" stroke-width="4" stroke-linecap="round" stroke-linejoin="bevel" stroke-dasharray="16 10"/>
</g>
<g id="Narigan">
<rect id="Shape_54" x="293.089" y="1024" width="272" height="80" rx="6" fill="#DCDCDC" stroke="#00558C" stroke-width="4" stroke-linecap="round"/>
<text id="Text_33" fill="black" fill-opacity="0.8" xml:space="preserve" style="white-space: pre" font-family="Inter" font-size="16" font-weight="500" letter-spacing="-0.011em"><tspan x="399.75" y="1069.82">Narigan</tspan></text>
</g>
<g id="Connector line_22">
<path id="Shape_55" d="M429.089 1004V1016" stroke="#B3B3B3" stroke-width="4" stroke-linecap="round" stroke-linejoin="bevel" stroke-dasharray="16 10"/>
</g>
<g id="Ore">
<path id="Shape_56" d="M244.828 760C244.828 761.105 245.724 762 246.828 762C247.933 762 248.828 761.105 248.828 760H246.828H244.828ZM245 923.5C245 924.605 245.895 925.5 247 925.5C248.105 925.5 249 924.605 249 923.5H247H245ZM249 964.5C249 963.395 248.105 962.5 247 962.5C245.895 962.5 245 963.395 245 964.5H247H249ZM598.12 1246.69C597.015 1246.69 596.234 1248.04 596.786 1249L605.667 1264.38C606.219 1265.34 607.781 1265.34 608.333 1264.38L617.214 1249C617.766 1248.04 616.985 1246.69 615.88 1246.69H598.12ZM246.828 760H248.828V720.086H246.828H244.828V760H246.828ZM247 720.086H245V923.5H247H249V720.086H247ZM247 964.5H245V1144H247H249V964.5H247ZM271 1168V1170H583V1168V1166H271V1168ZM607 1192H605V1248.69H607H609V1192H607ZM247 1144H245C245 1158.36 256.641 1170 271 1170V1168V1166C258.85 1166 249 1156.15 249 1144H247ZM246.914 720V722C245.857 722 245 721.143 245 720.086H247H249C249 718.934 248.066 718 246.914 718V720ZM583 1168V1170C595.15 1170 605 1179.85 605 1192H607H609C609 1177.64 597.359 1166 583 1166V1168ZM246.828 720.086H248.828C248.828 721.143 247.971 722 246.914 722V720V718C245.762 718 244.828 718.934 244.828 720.086H246.828Z" fill="#00558C"/>
<g id="Text Background_4">
<text id="Text_34" fill="black" fill-opacity="0.8" xml:space="preserve" style="white-space: pre" font-family="Inter" font-size="16" font-weight="bold" letter-spacing="-0.011em"><tspan x="233.067" y="949.818">Ore</tspan></text>
</g>
</g>
<g id="Ore_2">
<path id="Shape_57" d="M663.009 776C663.009 774.895 662.114 774 661.009 774C659.905 774 659.009 774.895 659.009 776H661.009H663.009ZM659.009 951.5C659.009 952.605 659.905 953.5 661.009 953.5C662.114 953.5 663.009 952.605 663.009 951.5H661.009H659.009ZM663.009 992.5C663.009 991.395 662.114 990.5 661.009 990.5C659.905 990.5 659.009 991.395 659.009 992.5H661.009H663.009ZM598.12 1246.69C597.015 1246.69 596.234 1248.04 596.786 1249L605.667 1264.38C606.219 1265.34 607.781 1265.34 608.333 1264.38L617.214 1249C617.766 1248.04 616.985 1246.69 615.88 1246.69H598.12ZM661.009 776H659.009V951.5H661.009H663.009V776H661.009ZM661.009 992.5H659.009V1144H661.009H663.009V992.5H661.009ZM637.009 1168V1166H631V1168V1170H637.009V1168ZM607 1192H605V1248.69H607H609V1192H607ZM631 1168V1166C616.641 1166 605 1177.64 605 1192H607H609C609 1179.85 618.85 1170 631 1170V1168ZM661.009 1144H659.009C659.009 1156.15 649.16 1166 637.009 1166V1168V1170C651.369 1170 663.009 1158.36 663.009 1144H661.009Z" fill="#00558C"/>
<g id="Text Background_5">
<text id="Text_35" fill="black" fill-opacity="0.8" xml:space="preserve" style="white-space: pre" font-family="Inter" font-size="16" font-weight="bold" letter-spacing="-0.011em"><tspan x="647.076" y="977.818">Ore</tspan></text>
</g>
</g>
<g id="Connector line_23">
<path id="Shape_58" d="M1631 1568V1584" stroke="#B3B3B3" stroke-width="4" stroke-linecap="round" stroke-linejoin="bevel" stroke-dasharray="16 10"/>
</g>
<g id="Connector line_24">
<path id="Shape_59" d="M1457.44 1360V1448C1457.44 1461.25 1468.18 1472 1481.44 1472H1487" stroke="#B3B3B3" stroke-width="4" stroke-linecap="round" stroke-linejoin="bevel"/>
</g>
<g id="HEU storage">
<rect id="Shape_60" x="1895" y="1272" width="272" height="80" rx="6" fill="#00558C" stroke="#00558C" stroke-width="4" stroke-linecap="round"/>
<text id="Text_36" fill="white" xml:space="preserve" style="white-space: pre" font-family="Inter" font-size="16" font-weight="bold" letter-spacing="-0.011em"><tspan x="1983.23" y="1317.82">HEU storage</tspan></text>
</g>
<g id="Enriched UF&#226;&#130;&#134;">
<path id="Shape_61" d="M1695 1310C1693.9 1310 1693 1310.9 1693 1312C1693 1313.1 1693.9 1314 1695 1314V1312V1310ZM1733.84 1314C1734.95 1314 1735.84 1313.1 1735.84 1312C1735.84 1310.9 1734.95 1310 1733.84 1310V1312V1314ZM1850.84 1310C1849.74 1310 1848.84 1310.9 1848.84 1312C1848.84 1313.1 1849.74 1314 1850.84 1314V1312V1310ZM1869.69 1320.88C1869.69 1321.98 1871.04 1322.77 1872 1322.21L1887.38 1313.33C1888.34 1312.78 1888.34 1311.22 1887.38 1310.67L1872 1301.79C1871.04 1301.23 1869.69 1302.02 1869.69 1303.12V1320.88ZM1695 1312V1314H1733.84V1312V1310H1695V1312ZM1850.84 1312V1314H1871.69V1312V1310H1850.84V1312Z" fill="#00558C"/>
<g id="Text Background_6">
<text id="Text_37" fill="black" fill-opacity="0.8" xml:space="preserve" style="white-space: pre" font-family="Inter" font-size="16" font-weight="bold" letter-spacing="-0.011em"><tspan x="1742.69" y="1317.82">Enriched UF&#x2086;</tspan></text>
</g>
</g>
<g id="Esfahan Tunnel Complex - Entrances destroyed&#226;&#128;&#168;&#226;&#128;&#168;&#194;&#160;Any intact HEU requires excavation">
<rect id="Shape_62" x="1975" y="1384" width="272" height="144" rx="6" fill="#FFC7C2" stroke="#00558C" stroke-width="4" stroke-linecap="round"/>
<text id="Text_38" fill="black" fill-opacity="0.8" xml:space="preserve" style="white-space: pre" font-family="Inter" font-size="16" font-weight="500" letter-spacing="-0.011em"><tspan x="2013.1" y="1413.82">Esfahan Tunnel Complex - </tspan><tspan x="2033.36" y="1437.82">Entrances destroyed&#x2028;</tspan><tspan x="2111" y="1461.82">&#x2028;</tspan><tspan x="2020.21" y="1485.82">&#xa0;Any intact HEU requires </tspan><tspan x="2070.5" y="1509.82">excavation</tspan></text>
</g>
<g id="Connector line_25">
<path id="Shape_63" d="M1939.94 1360V1432C1939.94 1445.25 1950.69 1456 1963.94 1456H1967" stroke="#B3B3B3" stroke-width="4" stroke-linecap="round" stroke-linejoin="bevel"/>
</g>
<g id="Esfahan Uranium Conversion Facility">
<rect id="Shape_64" x="1047" y="1409.5" width="272" height="80" rx="6" fill="#FFC7C2" stroke="#00558C" stroke-width="4" stroke-linecap="round"/>
<text id="Text_39" fill="black" fill-opacity="0.8" xml:space="preserve" style="white-space: pre" font-family="Inter" font-size="16" font-weight="500" letter-spacing="-0.011em"><tspan x="1074.98" y="1443.32">Esfahan Uranium Conversion </tspan><tspan x="1156.37" y="1467.32">Facility</tspan></text>
</g>
<g id="Connector line_26">
<path id="Shape_65" d="M991.481 1360V1425.5C991.481 1438.75 1002.23 1449.5 1015.48 1449.5H1039" stroke="#B3B3B3" stroke-width="4" stroke-linecap="round" stroke-linejoin="bevel"/>
</g>
<g id="Connector line_27">
<path id="Shape_66" d="M1631 2192V2208" stroke="#B3B3B3" stroke-width="4" stroke-linecap="round" stroke-linejoin="bevel" stroke-dasharray="16 10"/>
</g>
<g id="UF&#226;&#130;&#134;_2">
<path id="Shape_67" d="M993.481 1360C993.481 1358.9 992.586 1358 991.481 1358C990.377 1358 989.481 1358.9 989.481 1360H991.481H993.481ZM989.481 1508.84C989.481 1509.95 990.377 1510.84 991.481 1510.84C992.586 1510.84 993.481 1509.95 993.481 1508.84H991.481H989.481ZM993.481 1549.84C993.481 1548.74 992.586 1547.84 991.481 1547.84C990.377 1547.84 989.481 1548.74 989.481 1549.84H991.481H993.481ZM982.601 1678.69C981.496 1678.69 980.715 1680.04 981.268 1681L990.148 1696.38C990.7 1697.34 992.262 1697.34 992.815 1696.38L1001.69 1681C1002.25 1680.04 1001.47 1678.69 1000.36 1678.69H982.601ZM991.481 1360H989.481V1508.84H991.481H993.481V1360H991.481ZM991.481 1549.84H989.481V1680.69H991.481H993.481V1549.84H991.481Z" fill="#00558C"/>
<g id="Text Background_7">
<text id="Text_40" fill="black" fill-opacity="0.8" xml:space="preserve" style="white-space: pre" font-family="Inter" font-size="16" font-weight="bold" letter-spacing="-0.011em"><tspan x="977.767" y="1535.16">UF&#x2086;</tspan></text>
</g>
</g>
<g id="Enriched UF&#226;&#130;&#134;&#194;&#160;">
<path id="Shape_68" d="M1459.44 1360C1459.44 1358.9 1458.55 1358 1457.44 1358C1456.34 1358 1455.44 1358.9 1455.44 1360H1457.44H1459.44ZM1284.22 1574C1283.12 1574 1282.22 1574.9 1282.22 1576C1282.22 1577.1 1283.12 1578 1284.22 1578V1576V1574ZM1164.22 1578C1165.33 1578 1166.22 1577.1 1166.22 1576C1166.22 1574.9 1165.33 1574 1164.22 1574V1576V1578ZM982.12 1678.69C981.015 1678.69 980.234 1680.04 980.786 1681L989.667 1696.38C990.219 1697.34 991.781 1697.34 992.333 1696.38L1001.21 1681C1001.77 1680.04 1000.98 1678.69 999.88 1678.69H982.12ZM1457.44 1360H1455.44V1552H1457.44H1459.44V1360H1457.44ZM1433.44 1576V1574H1284.22V1576V1578H1433.44V1576ZM1164.22 1576V1574H1015V1576V1578H1164.22V1576ZM991 1600H989V1680.69H991H993V1600H991ZM1015 1576V1574C1000.64 1574 989 1585.64 989 1600H991H993C993 1587.85 1002.85 1578 1015 1578V1576ZM1457.44 1552H1455.44C1455.44 1564.15 1445.59 1574 1433.44 1574V1576V1578C1447.8 1578 1459.44 1566.36 1459.44 1552H1457.44Z" fill="#00558C"/>
<g id="Text Background_8">
<text id="Text_41" fill="black" fill-opacity="0.8" xml:space="preserve" style="white-space: pre" font-family="Inter" font-size="16" font-weight="bold" letter-spacing="-0.011em"><tspan x="1172.8" y="1581.82">Enriched UF&#x2086;&#xa0;</tspan></text>
</g>
</g>
<g id="Esfahan Uranium Powder Plant (EUPP)">
<rect id="Shape_69" x="935" y="2170" width="272" height="96" rx="6" fill="#9FE2AA" stroke="#00558C" stroke-width="4" stroke-linecap="round"/>
<text id="Text_42" fill="black" fill-opacity="0.8" xml:space="preserve" style="white-space: pre" font-family="Inter" font-size="16" font-weight="500" letter-spacing="-0.011em"><tspan x="955.98" y="2211.82">Esfahan Uranium Powder Plant </tspan><tspan x="1044.44" y="2235.82">(EUPP)</tspan></text>
</g>
<g id="Zirconium Production Plant (ZPP)/hafnium oxide production">
<rect id="Shape_70" x="935" y="2300" width="272" height="96" rx="6" fill="#9FE2AA" stroke="#00558C" stroke-width="4" stroke-linecap="round"/>
<text id="Text_43" fill="black" fill-opacity="0.8" xml:space="preserve" style="white-space: pre" font-family="Inter" font-size="16" font-weight="500" letter-spacing="-0.011em"><tspan x="944.011" y="2341.82">Zirconium Production Plant (ZPP)/</tspan><tspan x="975.571" y="2365.82">hafnium oxide production</tspan></text>
</g>
<g id="Connector line_28">
<path id="Shape_71" d="M1071 2274V2292" stroke="#B3B3B3" stroke-width="4" stroke-linecap="round" stroke-linejoin="bevel" stroke-dasharray="16 10"/>
</g>
<g id="Research reactor">
<rect id="Shape_72" x="750.912" y="2616" width="272" height="80" rx="6" fill="#00558C" stroke="#00558C" stroke-width="4" stroke-linecap="round"/>
<text id="Text_44" fill="white" xml:space="preserve" style="white-space: pre" font-family="Inter" font-size="16" font-weight="bold" letter-spacing="-0.011em"><tspan x="821.318" y="2661.82">Research reactor</tspan></text>
</g>
<g id="Heavy water reactor and plutonium fabrication">
<rect id="Shape_73" x="341.681" y="2616" width="272" height="80" rx="6" fill="#00558C" stroke="#00558C" stroke-width="4" stroke-linecap="round"/>
<text id="Text_45" fill="white" xml:space="preserve" style="white-space: pre" font-family="Inter" font-size="16" font-weight="bold" letter-spacing="-0.011em"><tspan x="383.846" y="2649.82">Heavy water reactor and </tspan><tspan x="395.355" y="2673.82">plutonium fabrication</tspan></text>
</g>
<g id="Heavy water production">
<rect id="Shape_74" x="439" y="1704" width="272" height="80" rx="6" fill="#00558C" stroke="#00558C" stroke-width="4" stroke-linecap="round"/>
<text id="Text_46" fill="white" xml:space="preserve" style="white-space: pre" font-family="Inter" font-size="16" font-weight="bold" letter-spacing="-0.011em"><tspan x="483.004" y="1749.82">Heavy water production</tspan></text>
</g>
<g id="20% fuel">
<path id="Shape_75" d="M888.912 1792C888.912 1790.9 888.017 1790 886.912 1790C885.807 1790 884.912 1790.9 884.912 1792H886.912H888.912ZM884.912 2389.15C884.912 2390.26 885.807 2391.15 886.912 2391.15C888.017 2391.15 888.912 2390.26 888.912 2389.15H886.912H884.912ZM888.912 2430.15C888.912 2429.05 888.017 2428.15 886.912 2428.15C885.807 2428.15 884.912 2429.05 884.912 2430.15H886.912H888.912ZM878.032 2590.69C876.927 2590.69 876.146 2592.04 876.698 2593L885.579 2608.38C886.131 2609.34 887.693 2609.34 888.245 2608.38L897.126 2593C897.678 2592.04 896.897 2590.69 895.792 2590.69H878.032ZM886.912 1792H884.912V2389.15H886.912H888.912V1792H886.912ZM886.912 2430.15H884.912V2592.69H886.912H888.912V2430.15H886.912Z" fill="#00558C"/>
<g id="Text Background_9">
<text id="Text_47" fill="black" fill-opacity="0.8" xml:space="preserve" style="white-space: pre" font-family="Inter" font-size="16" font-weight="bold" letter-spacing="-0.011em"><tspan x="853.231" y="2415.47">20% fuel</tspan></text>
</g>
</g>
<g id="Fresh fuel">
<path id="Shape_76" d="M888.707 1792C888.707 1790.9 887.812 1790 886.707 1790C885.603 1790 884.707 1790.9 884.707 1792H886.707H888.707ZM729.326 2198C728.222 2198 727.326 2198.9 727.326 2200C727.326 2201.11 728.222 2202 729.326 2202V2200V2198ZM635.326 2202C636.431 2202 637.326 2201.11 637.326 2200C637.326 2198.9 636.431 2198 635.326 2198V2200V2202ZM468.801 2590.69C467.696 2590.69 466.915 2592.04 467.468 2593L476.348 2608.38C476.9 2609.34 478.462 2609.34 479.015 2608.38L487.895 2593C488.447 2592.04 487.666 2590.69 486.562 2590.69H468.801ZM886.707 1792H884.707V2176H886.707H888.707V1792H886.707ZM862.707 2200V2198H729.326V2200V2202H862.707V2200ZM635.326 2200V2198H501.681V2200V2202H635.326V2200ZM477.681 2224H475.681V2592.69H477.681H479.681V2224H477.681ZM501.681 2200V2198C487.322 2198 475.681 2209.64 475.681 2224H477.681H479.681C479.681 2211.85 489.531 2202 501.681 2202V2200ZM886.707 2176H884.707C884.707 2188.15 874.857 2198 862.707 2198V2200V2202C877.067 2202 888.707 2190.36 888.707 2176H886.707Z" fill="#00558C"/>
<g id="Text Background_10">
<text id="Text_48" fill="black" fill-opacity="0.8" xml:space="preserve" style="white-space: pre" font-family="Inter" font-size="16" font-weight="bold" letter-spacing="-0.011em"><tspan x="644.298" y="2205.82">Fresh fuel</tspan></text>
</g>
</g>
<g id="Heavy water">
<path id="Shape_77" d="M479.681 1792C479.681 1790.9 478.786 1790 477.681 1790C476.577 1790 475.681 1790.9 475.681 1792H477.681H479.681ZM475.681 2001.18C475.681 2002.28 476.577 2003.18 477.681 2003.18C478.786 2003.18 479.681 2002.28 479.681 2001.18H477.681H475.681ZM479.681 2042.18C479.681 2041.08 478.786 2040.18 477.681 2040.18C476.577 2040.18 475.681 2041.08 475.681 2042.18H477.681H479.681ZM468.801 2590.69C467.696 2590.69 466.915 2592.04 467.468 2593L476.348 2608.38C476.9 2609.34 478.462 2609.34 479.015 2608.38L487.895 2593C488.447 2592.04 487.666 2590.69 486.562 2590.69H468.801ZM477.681 1792H475.681V2001.18H477.681H479.681V1792H477.681ZM477.681 2042.18H475.681V2592.69H477.681H479.681V2042.18H477.681Z" fill="#00558C"/>
<g id="Text Background_11">
<text id="Text_49" fill="black" fill-opacity="0.8" xml:space="preserve" style="white-space: pre" font-family="Inter" font-size="16" font-weight="bold" letter-spacing="-0.011em"><tspan x="429.538" y="2027.5">Heavy water</tspan></text>
</g>
</g>
<g id="Khondab (Arak) Plant">
<rect id="Shape_78" x="518.445" y="1818" width="272" height="80" rx="6" fill="#FFC7C2" stroke="#00558C" stroke-width="4" stroke-linecap="round"/>
<text id="Text_50" fill="black" fill-opacity="0.8" xml:space="preserve" style="white-space: pre" font-family="Inter" font-size="16" font-weight="500" letter-spacing="-0.011em"><tspan x="574.476" y="1863.82">Khondab (Arak) Plant</tspan></text>
</g>
<g id="Connector line_29">
<path id="Shape_79" d="M478.044 1792V1834C478.044 1847.25 488.789 1858 502.044 1858H510.445" stroke="#B3B3B3" stroke-width="4" stroke-linecap="round" stroke-linejoin="bevel"/>
</g>
<g id="Tehran Research Reactor (TRR)">
<rect id="Shape_80" x="839" y="2728" width="272" height="80" rx="6" fill="#9FE2AA" stroke="#00558C" stroke-width="4" stroke-linecap="round"/>
<text id="Text_51" fill="black" fill-opacity="0.8" xml:space="preserve" style="white-space: pre" font-family="Inter" font-size="16" font-weight="500" letter-spacing="-0.011em"><tspan x="857.776" y="2773.82">Tehran Research Reactor (TRR)</tspan></text>
</g>
<g id="Connector line_30">
<path id="Shape_81" d="M810.602 2704V2747.6C810.602 2758.87 819.734 2768 831 2768V2768" stroke="#B3B3B3" stroke-width="4" stroke-linecap="round" stroke-linejoin="bevel"/>
</g>
<g id="Khondab (Arak) Under Construction Reactor &#38; Hot Cells/Production Building">
<rect id="Shape_82" x="421.681" y="2728" width="272" height="112" rx="6" fill="#FFC7C2" stroke="#00558C" stroke-width="4" stroke-linecap="round"/>
<text id="Text_52" fill="black" fill-opacity="0.8" xml:space="preserve" style="white-space: pre" font-family="Inter" font-size="16" font-weight="500" letter-spacing="-0.011em"><tspan x="473.77" y="2765.82">Khondab (Arak) Under </tspan><tspan x="455.274" y="2789.82">Construction Reactor &#38; Hot </tspan><tspan x="463.465" y="2813.82">Cells/Production Building</tspan></text>
</g>
<g id="Connector line_31">
<path id="Shape_83" d="M385.396 2704V2760C385.396 2773.26 396.141 2784 409.396 2784H413.681" stroke="#B3B3B3" stroke-width="4" stroke-linecap="round" stroke-linejoin="bevel"/>
</g>
<g id="Plutonium reprocessing">
<rect id="Shape_84" x="7" y="3304" width="272" height="80" rx="6" fill="#1E1E1E" stroke="#1E1E1E" stroke-width="4" stroke-linecap="round"/>
<text id="Text_53" fill="white" xml:space="preserve" style="white-space: pre" font-family="Inter" font-size="16" font-weight="bold" letter-spacing="-0.011em"><tspan x="51.6917" y="3349.82">Plutonium reprocessing</tspan></text>
</g>
<g id="Lab-scale uranium metal production">
<rect id="Shape_85" x="479" y="3304" width="272" height="80" rx="6" fill="#1E1E1E" stroke="#1E1E1E" stroke-width="4" stroke-linecap="round"/>
<text id="Text_54" fill="white" xml:space="preserve" style="white-space: pre" font-family="Inter" font-size="16" font-weight="bold" letter-spacing="-0.011em"><tspan x="520.313" y="3337.82">Lab-scale uranium metal </tspan><tspan x="572.823" y="3361.82">production</tspan></text>
</g>
<g id="Weapons-grade uranium metal (or plutonium) core and component manufacturing">
<rect id="Shape_86" x="839" y="3296" width="272" height="96" rx="6" fill="#1E1E1E" stroke="#1E1E1E" stroke-width="4" stroke-linecap="round"/>
<text id="Text_55" fill="white" xml:space="preserve" style="white-space: pre" font-family="Inter" font-size="16" font-weight="bold" letter-spacing="-0.011em"><tspan x="856.321" y="3325.82">Weapons-grade uranium metal </tspan><tspan x="885.008" y="3349.82">(or plutonium) core and </tspan><tspan x="872.639" y="3373.82">component manufacturing</tspan></text>
</g>
<g id="Neutron initiator production">
<rect id="Shape_87" x="119" y="4528" width="272" height="96" rx="6" fill="#1E1E1E" stroke="#1E1E1E" stroke-width="4" stroke-linecap="round"/>
<text id="Text_56" fill="white" xml:space="preserve" style="white-space: pre" font-family="Inter" font-size="16" font-weight="bold" letter-spacing="-0.011em"><tspan x="148.493" y="4581.82">Neutron initiator production</tspan></text>
</g>
<g id="Nuclear warhead assembly">
<rect id="Shape_88" x="719" y="4528" width="272" height="96" rx="6" fill="#1E1E1E" stroke="#1E1E1E" stroke-width="4" stroke-linecap="round"/>
<text id="Text_57" fill="white" xml:space="preserve" style="white-space: pre" font-family="Inter" font-size="16" font-weight="bold" letter-spacing="-0.011em"><tspan x="751.016" y="4581.82">Nuclear warhead assembly</tspan></text>
</g>
<g id="Administration, personnel, nuclear weapons theory &#38; simulation, computation, modeling, design, documentation, back-up nuclear archive/weapons program info">
<rect id="Shape_89" x="1223" y="2960" width="272" height="200" rx="6" fill="#1E1E1E" stroke="#1E1E1E" stroke-width="4" stroke-linecap="round"/>
<text id="Text_58" fill="white" xml:space="preserve" style="white-space: pre" font-family="Inter" font-size="16" font-weight="bold" letter-spacing="-0.011em"><tspan x="1257.65" y="2993.82">Administration, personnel, </tspan><tspan x="1259.11" y="3017.82">nuclear weapons theory &#38; </tspan><tspan x="1264.17" y="3041.82">simulation, computation, </tspan><tspan x="1291.3" y="3065.82">modeling, design, </tspan><tspan x="1294.6" y="3089.82">documentation, &#13;&#10;</tspan><tspan x="1263.06" y="3113.82">back-up nuclear archive/</tspan><tspan x="1271.24" y="3137.82">weapons program info&#13;</tspan></text>
</g>
<g id="Pu">
<path id="Shape_90" d="M387.339 2704C387.339 2702.9 386.444 2702 385.339 2702C384.235 2702 383.339 2702.9 383.339 2704H385.339H387.339ZM141 3064.85C141 3065.95 141.895 3066.85 143 3066.85C144.105 3066.85 145 3065.95 145 3064.85H143H141ZM145 3105.85C145 3104.74 144.105 3103.85 143 3103.85C141.895 3103.85 141 3104.74 141 3105.85H143H145ZM134.12 3278.69C133.015 3278.69 132.234 3280.04 132.786 3281L141.667 3296.38C142.219 3297.34 143.781 3297.34 144.333 3296.38L153.214 3281C153.766 3280.04 152.985 3278.69 151.88 3278.69H134.12ZM385.339 2704H383.339V2848H385.339H387.339V2704H385.339ZM361.339 2872V2870H167V2872V2874H361.339V2872ZM143 2896H141V3064.85H143H145V2896H143ZM143 3105.85H141V3280.69H143H145V3105.85H143ZM167 2872V2870C152.641 2870 141 2881.64 141 2896H143H145C145 2883.85 154.85 2874 167 2874V2872ZM385.339 2848H383.339C383.339 2860.15 373.489 2870 361.339 2870V2872V2874C375.699 2874 387.339 2862.36 387.339 2848H385.339Z" fill="#00558C"/>
<g id="Text Background_12">
<text id="Text_59" fill="black" fill-opacity="0.8" xml:space="preserve" style="white-space: pre" font-family="Inter" font-size="16" font-weight="bold" letter-spacing="-0.011em"><tspan x="132.932" y="3091.16">Pu</tspan></text>
</g>
</g>
<g id="Connector line_32">
<path id="Shape_91" d="M1459.37 1360C1459.37 1358.9 1458.48 1358 1457.37 1358C1456.27 1358 1455.37 1358.9 1455.37 1360H1457.37H1459.37ZM1455.37 2288.91C1455.37 2290.01 1456.27 2290.91 1457.37 2290.91C1458.48 2290.91 1459.37 2290.01 1459.37 2288.91H1457.37H1455.37ZM1459.37 2329.91C1459.37 2328.81 1458.48 2327.91 1457.37 2327.91C1456.27 2327.91 1455.37 2328.81 1455.37 2329.91H1457.37H1459.37ZM606.12 3278.69C605.015 3278.69 604.234 3280.04 604.786 3281L613.667 3296.38C614.219 3297.34 615.781 3297.34 616.333 3296.38L625.214 3281C625.766 3280.04 624.985 3278.69 623.88 3278.69H606.12ZM1457.37 1360H1455.37V2288.91H1457.37H1459.37V1360H1457.37ZM1457.37 2329.91H1455.37V2896H1457.37H1459.37V2329.91H1457.37ZM1433.37 2920V2918H639V2920V2922H1433.37V2920ZM615 2944H613V3280.69H615H617V2944H615ZM639 2920V2918C624.641 2918 613 2929.64 613 2944H615H617C617 2931.85 626.85 2922 639 2922V2920ZM1457.37 2896H1455.37C1455.37 2908.15 1445.52 2918 1433.37 2918V2920V2922C1447.73 2922 1459.37 2910.36 1459.37 2896H1457.37Z" fill="#00558C"/>
</g>
<g id="HEU">
<path id="Shape_92" d="M1941.54 1360C1941.54 1358.9 1940.64 1358 1939.54 1358C1938.44 1358 1937.54 1358.9 1937.54 1360H1939.54H1941.54ZM1937.54 2286.77C1937.54 2287.87 1938.44 2288.77 1939.54 2288.77C1940.64 2288.77 1941.54 2287.87 1941.54 2286.77H1939.54H1937.54ZM1941.54 2327.77C1941.54 2326.66 1940.64 2325.77 1939.54 2325.77C1938.44 2325.77 1937.54 2326.66 1937.54 2327.77H1939.54H1941.54ZM966.12 3270.69C965.015 3270.69 964.234 3272.04 964.786 3273L973.667 3288.38C974.219 3289.34 975.781 3289.34 976.333 3288.38L985.214 3273C985.766 3272.04 984.985 3270.69 983.88 3270.69H966.12ZM1939.54 1360H1937.54V2286.77H1939.54H1941.54V1360H1939.54ZM1939.54 2327.77H1937.54V2896H1939.54H1941.54V2327.77H1939.54ZM1915.54 2920V2918H999V2920V2922H1915.54V2920ZM975 2944H973V3272.69H975H977V2944H975ZM999 2920V2918C984.641 2918 973 2929.64 973 2944H975H977C977 2931.85 986.85 2922 999 2922V2920ZM1939.54 2896H1937.54C1937.54 2908.15 1927.69 2918 1915.54 2918V2920V2922C1929.9 2922 1941.54 2910.36 1941.54 2896H1939.54Z" fill="#00558C"/>
<g id="Text Background_13">
<text id="Text_60" fill="black" fill-opacity="0.8" xml:space="preserve" style="white-space: pre" font-family="Inter" font-size="16" font-weight="bold" letter-spacing="-0.011em"><tspan x="1923.01" y="2313.09">HEU</tspan></text>
</g>
</g>
<g id="Connector line_33">
<path id="Shape_93" d="M1941.54 1360C1941.54 1358.9 1940.64 1358 1939.54 1358C1938.44 1358 1937.54 1358.9 1937.54 1360H1939.54H1941.54ZM1937.54 2286.77C1937.54 2287.87 1938.44 2288.77 1939.54 2288.77C1940.64 2288.77 1941.54 2287.87 1941.54 2286.77H1939.54H1937.54ZM1941.54 2327.77C1941.54 2326.66 1940.64 2325.77 1939.54 2325.77C1938.44 2325.77 1937.54 2326.66 1937.54 2327.77H1939.54H1941.54ZM606.12 3278.69C605.015 3278.69 604.234 3280.04 604.786 3281L613.667 3296.38C614.219 3297.34 615.781 3297.34 616.333 3296.38L625.214 3281C625.766 3280.04 624.985 3278.69 623.88 3278.69H606.12ZM1939.54 1360H1937.54V2286.77H1939.54H1941.54V1360H1939.54ZM1939.54 2327.77H1937.54V2896H1939.54H1941.54V2327.77H1939.54ZM1915.54 2920V2918H639V2920V2922H1915.54V2920ZM615 2944H613V3280.69H615H617V2944H615ZM639 2920V2918C624.641 2918 613 2929.64 613 2944H615H617C617 2931.85 626.85 2922 639 2922V2920ZM1939.54 2896H1937.54C1937.54 2908.15 1927.69 2918 1915.54 2918V2920V2922C1929.9 2922 1941.54 2910.36 1941.54 2896H1939.54Z" fill="#00558C"/>
</g>
<g id="HEU_2">
<path id="Shape_94" d="M1459.37 1360C1459.37 1358.9 1458.48 1358 1457.37 1358C1456.27 1358 1455.37 1358.9 1455.37 1360H1457.37H1459.37ZM1455.37 2288.91C1455.37 2290.01 1456.27 2290.91 1457.37 2290.91C1458.48 2290.91 1459.37 2290.01 1459.37 2288.91H1457.37H1455.37ZM1459.37 2329.91C1459.37 2328.81 1458.48 2327.91 1457.37 2327.91C1456.27 2327.91 1455.37 2328.81 1455.37 2329.91H1457.37H1459.37ZM966.12 3270.69C965.015 3270.69 964.234 3272.04 964.786 3273L973.667 3288.38C974.219 3289.34 975.781 3289.34 976.333 3288.38L985.214 3273C985.766 3272.04 984.985 3270.69 983.88 3270.69H966.12ZM1457.37 1360H1455.37V2288.91H1457.37H1459.37V1360H1457.37ZM1457.37 2329.91H1455.37V2896H1457.37H1459.37V2329.91H1457.37ZM1433.37 2920V2918H999V2920V2922H1433.37V2920ZM975 2944H973V3272.69H975H977V2944H975ZM999 2920V2918C984.641 2918 973 2929.64 973 2944H975H977C977 2931.85 986.85 2922 999 2922V2920ZM1457.37 2896H1455.37C1455.37 2908.15 1445.52 2918 1433.37 2918V2920V2922C1447.73 2922 1459.37 2910.36 1459.37 2896H1457.37Z" fill="#00558C"/>
<g id="Text Background_14">
<text id="Text_61" fill="black" fill-opacity="0.8" xml:space="preserve" style="white-space: pre" font-family="Inter" font-size="16" font-weight="bold" letter-spacing="-0.011em"><tspan x="1440.85" y="2315.23">HEU</tspan></text>
</g>
</g>
<g id="Connector line_34">
<path id="Shape_95" d="M759 3342C757.895 3342 757 3342.9 757 3344C757 3345.11 757.895 3346 759 3346V3344V3342ZM813.69 3352.88C813.69 3353.99 815.043 3354.77 815.999 3354.21L831.381 3345.33C832.337 3344.78 832.337 3343.22 831.381 3342.67L815.999 3333.79C815.043 3333.24 813.69 3334.02 813.69 3335.12V3352.88ZM759 3344V3346H815.69V3344V3342H759V3344Z" fill="#1E1E1E"/>
</g>
<g id="Connector line_35">
<path id="Shape_96" d="M1215 3062C1216.1 3062 1217 3061.11 1217 3060C1217 3058.9 1216.1 3058 1215 3058V3060V3062ZM966.12 3270.69C965.015 3270.69 964.234 3272.04 964.786 3273L973.667 3288.38C974.219 3289.34 975.781 3289.34 976.333 3288.38L985.214 3273C985.766 3272.04 984.985 3270.69 983.88 3270.69H966.12ZM1215 3060V3058H999V3060V3062H1215V3060ZM975 3084H973V3272.69H975H977V3084H975ZM999 3060V3058C984.641 3058 973 3069.64 973 3084H975H977C977 3071.85 986.85 3062 999 3062V3060Z" fill="#1E1E1E"/>
</g>
<g id="Connector line_36">
<path id="Shape_97" d="M1278.55 3216C1278.55 3214.9 1277.65 3214 1276.55 3214C1275.44 3214 1274.55 3214.9 1274.55 3216H1276.55H1278.55ZM246.12 4502.69C245.015 4502.69 244.234 4504.04 244.786 4505L253.667 4520.38C254.219 4521.34 255.781 4521.34 256.333 4520.38L265.214 4505C265.766 4504.04 264.985 4502.69 263.88 4502.69H246.12ZM1276.55 3216H1274.55V3232H1276.55H1278.55V3216H1276.55ZM1252.55 3256V3254H1244.82V3256V3258H1252.55V3256ZM1220.82 3280H1218.82V3880H1220.82H1222.82V3280H1220.82ZM1196.82 3904V3902H63V3904V3906H1196.82V3904ZM39 3928H37V4456H39H41V3928H39ZM63 4480V4482H231V4480V4478H63V4480ZM255 4504H253V4504.69H255H257V4504H255ZM231 4480V4482C243.15 4482 253 4491.85 253 4504H255H257C257 4489.64 245.359 4478 231 4478V4480ZM39 4456H37C37 4470.36 48.6406 4482 63 4482V4480V4478C50.8497 4478 41 4468.15 41 4456H39ZM63 3904V3902C48.6406 3902 37 3913.64 37 3928H39H41C41 3915.85 50.8497 3906 63 3906V3904ZM1220.82 3880H1218.82C1218.82 3892.15 1208.97 3902 1196.82 3902V3904V3906C1211.18 3906 1222.82 3894.36 1222.82 3880H1220.82ZM1244.82 3256V3254C1230.46 3254 1218.82 3265.64 1218.82 3280H1220.82H1222.82C1222.82 3267.85 1232.67 3258 1244.82 3258V3256ZM1276.55 3232H1274.55C1274.55 3244.15 1264.7 3254 1252.55 3254V3256V3258C1266.9 3258 1278.55 3246.36 1278.55 3232H1276.55Z" fill="#1E1E1E"/>
</g>
<g id="Connector line_37">
<path id="Shape_98" d="M1278.49 3216C1278.49 3214.9 1277.6 3214 1276.49 3214C1275.39 3214 1274.49 3214.9 1274.49 3216H1276.49H1278.49ZM846.12 4502.69C845.015 4502.69 844.234 4504.04 844.786 4505L853.667 4520.38C854.219 4521.34 855.781 4521.34 856.333 4520.38L865.214 4505C865.766 4504.04 864.985 4502.69 863.88 4502.69H846.12ZM1276.49 3216H1274.49V3232H1276.49H1278.49V3216H1276.49ZM1252.49 3256V3254H1244.82V3256V3258H1252.49V3256ZM1220.82 3280H1218.82V3880H1220.82H1222.82V3280H1220.82ZM1196.82 3904V3902H63V3904V3906H1196.82V3904ZM39 3928H37V4456H39H41V3928H39ZM63 4480V4482H831V4480V4478H63V4480ZM855 4504H853V4504.69H855H857V4504H855ZM831 4480V4482C843.15 4482 853 4491.85 853 4504H855H857C857 4489.64 845.359 4478 831 4478V4480ZM39 4456H37C37 4470.36 48.6406 4482 63 4482V4480V4478C50.8497 4478 41 4468.15 41 4456H39ZM63 3904V3902C48.6406 3902 37 3913.64 37 3928H39H41C41 3915.85 50.8497 3906 63 3906V3904ZM1220.82 3880H1218.82C1218.82 3892.15 1208.97 3902 1196.82 3902V3904V3906C1211.18 3906 1222.82 3894.36 1222.82 3880H1220.82ZM1244.82 3256V3254C1230.46 3254 1218.82 3265.64 1218.82 3280H1220.82H1222.82C1222.82 3267.85 1232.67 3258 1244.82 3258V3256ZM1276.49 3232H1274.49C1274.49 3244.15 1264.64 3254 1252.49 3254V3256V3258C1266.85 3258 1278.49 3246.36 1278.49 3232H1276.49Z" fill="#1E1E1E"/>
</g>
<g id="Connector line_38">
<path id="Shape_99" d="M399 4574C397.895 4574 397 4574.9 397 4576C397 4577.11 397.895 4578 399 4578V4576V4574ZM693.69 4584.88C693.69 4585.99 695.043 4586.77 695.999 4586.21L711.381 4577.33C712.337 4576.78 712.337 4575.22 711.381 4574.67L695.999 4565.79C695.043 4565.24 693.69 4566.02 693.69 4567.12V4584.88ZM399 4576V4578H695.69V4576V4574H399V4576Z" fill="#1E1E1E"/>
</g>
<g id="Unknown to Exist">
<rect id="Shape_100" x="87" y="3416" width="272" height="80" rx="6" fill="#DCDCDC" stroke="#1E1E1E" stroke-width="4" stroke-linecap="round"/>
<text id="Text_62" fill="black" fill-opacity="0.8" xml:space="preserve" style="white-space: pre" font-family="Inter" font-size="16" font-weight="500" letter-spacing="-0.011em"><tspan x="157.867" y="3461.82">Unknown to Exist</tspan></text>
</g>
<g id="Connector line_39">
<path id="Shape_101" d="M56.5432 3392V3433.54C56.5432 3445.95 66.5974 3456 79 3456V3456" stroke="#B3B3B3" stroke-width="4" stroke-linecap="round" stroke-linejoin="bevel"/>
</g>
<g id="Esfahan Uranium Metal Conversion Lab Likely no intact HEU">
<rect id="Shape_102" x="535" y="3418" width="272" height="144" rx="6" fill="#FFC7C2" stroke="#1E1E1E" stroke-width="4" stroke-linecap="round"/>
<text id="Text_63" fill="black" fill-opacity="0.8" xml:space="preserve" style="white-space: pre" font-family="Inter" font-size="16" font-weight="500" letter-spacing="-0.011em"><tspan x="584.496" y="3459.82">Esfahan Uranium Metal </tspan><tspan x="612.589" y="3483.82">Conversion Lab&#10;</tspan><tspan x="671" y="3507.82">&#10;</tspan><tspan x="596.242" y="3531.82">Likely no intact HEU</tspan></text>
</g>
<g id="Connector line_40">
<path id="Shape_103" d="M511.034 3392V3474.04C511.034 3482.85 518.183 3490 527 3490V3490" stroke="#B3B3B3" stroke-width="4" stroke-linecap="round" stroke-linejoin="bevel"/>
</g>
<g id="Esfahan Fuel Plate Manufacturing Plant (FPFP) Uranium Metal Line Likely no intact HEU">
<rect id="Shape_104" x="535" y="3602" width="272" height="152" rx="6" fill="#FFC7C2" stroke="#1E1E1E" stroke-width="4" stroke-linecap="round"/>
<text id="Text_64" fill="black" fill-opacity="0.8" xml:space="preserve" style="white-space: pre" font-family="Inter" font-size="16" font-weight="500" letter-spacing="-0.011em"><tspan x="602.568" y="3635.82">Esfahan Fuel Plate </tspan><tspan x="568.272" y="3659.82">Manufacturing Plant (FPFP) </tspan><tspan x="598.793" y="3683.82">Uranium Metal Line&#10;</tspan><tspan x="671" y="3707.82">&#10;</tspan><tspan x="596.242" y="3731.82">Likely no intact HEU</tspan></text>
</g>
<g id="Separated Pu">
<path id="Shape_105" d="M287 3342C285.895 3342 285 3342.9 285 3344C285 3345.11 285.895 3346 287 3346V3344V3342ZM726.996 3234C728.101 3234 728.996 3233.11 728.996 3232C728.996 3230.9 728.101 3230 726.996 3230V3232V3234ZM846.996 3230C845.891 3230 844.996 3230.9 844.996 3232C844.996 3233.11 845.891 3234 846.996 3234V3232V3230ZM966.12 3270.69C965.015 3270.69 964.234 3272.04 964.786 3273L973.667 3288.38C974.219 3289.34 975.781 3289.34 976.333 3288.38L985.214 3273C985.766 3272.04 984.985 3270.69 983.88 3270.69H966.12ZM287 3344V3346H303V3344V3342H287V3344ZM327 3320H329V3256H327H325V3320H327ZM351 3232V3234H726.996V3232V3230H351V3232ZM846.996 3232V3234H951V3232V3230H846.996V3232ZM975 3256H973V3272.69H975H977V3256H975ZM951 3232V3234C963.15 3234 973 3243.85 973 3256H975H977C977 3241.64 965.359 3230 951 3230V3232ZM327 3256H329C329 3243.85 338.85 3234 351 3234V3232V3230C336.641 3230 325 3241.64 325 3256H327ZM303 3344V3346C317.359 3346 329 3334.36 329 3320H327H325C325 3332.15 315.15 3342 303 3342V3344Z" fill="#1E1E1E"/>
<g id="Text Background_15">
<text id="Text_65" fill="black" fill-opacity="0.8" xml:space="preserve" style="white-space: pre" font-family="Inter" font-size="16" font-weight="bold" letter-spacing="-0.011em"><tspan x="735.511" y="3237.82">Separated Pu</tspan></text>
</g>
</g>
<g id="Connector line_41">
<path id="Shape_106" d="M671 3570V3594" stroke="#B3B3B3" stroke-width="4" stroke-linecap="round" stroke-linejoin="bevel" stroke-dasharray="16 10"/>
</g>
<g id="Unknown_2">
<rect id="Shape_107" x="903" y="3424" width="272" height="80" rx="6" fill="#DCDCDC" stroke="#1E1E1E" stroke-width="4" stroke-linecap="round"/>
<text id="Text_66" fill="black" fill-opacity="0.8" xml:space="preserve" style="white-space: pre" font-family="Inter" font-size="16" font-weight="500" letter-spacing="-0.011em"><tspan x="1003.54" y="3469.82">Unknown</tspan></text>
</g>
<g id="Connector line_42">
<path id="Shape_108" d="M870.558 3400V3440C870.558 3453.26 881.304 3464 894.558 3464H895" stroke="#B3B3B3" stroke-width="4" stroke-linecap="round" stroke-linejoin="bevel"/>
</g>
<g id="Tehran SPND Headquarters">
<rect id="Shape_109" x="1303" y="3248" width="272" height="96" rx="6" fill="#FFC7C2" stroke="#1E1E1E" stroke-width="4" stroke-linecap="round"/>
<text id="Text_67" fill="black" fill-opacity="0.8" xml:space="preserve" style="white-space: pre" font-family="Inter" font-size="16" font-weight="500" letter-spacing="-0.011em"><tspan x="1335.56" y="3301.82">Tehran SPND Headquarters</tspan></text>
</g>
<g id="Connector line_43">
<path id="Shape_110" d="M1276.36 3216V3277.36C1276.36 3287.66 1284.71 3296 1295 3296V3296" stroke="#B3B3B3" stroke-width="4" stroke-linecap="round" stroke-linejoin="bevel"/>
</g>
<g id="Former SPND HQ: Lavisan 2/Mojdeh Building">
<rect id="Shape_111" x="1303" y="3376" width="272" height="80" rx="6" fill="#FFC7C2" stroke="#1E1E1E" stroke-width="4" stroke-linecap="round"/>
<text id="Text_68" fill="black" fill-opacity="0.8" xml:space="preserve" style="white-space: pre" font-family="Inter" font-size="16" font-weight="500" letter-spacing="-0.011em"><tspan x="1332.36" y="3409.82">Former SPND HQ: Lavisan 2/</tspan><tspan x="1378.91" y="3433.82">Mojdeh Building</tspan></text>
</g>
<g id="Connector line_44">
<path id="Shape_112" d="M1439 3352V3368" stroke="#B3B3B3" stroke-width="4" stroke-linecap="round" stroke-linejoin="bevel" stroke-dasharray="16 10"/>
</g>
<g id="Institute of Applied Physics Annex">
<rect id="Shape_113" x="1303" y="3488" width="272" height="96" rx="6" fill="#FFC7C2" stroke="#1E1E1E" stroke-width="4" stroke-linecap="round"/>
<text id="Text_69" fill="black" fill-opacity="0.8" xml:space="preserve" style="white-space: pre" font-family="Inter" font-size="16" font-weight="500" letter-spacing="-0.011em"><tspan x="1311.36" y="3541.82">Institute of Applied Physics Annex</tspan></text>
</g>
<g id="Connector line_45">
<path id="Shape_114" d="M1439 3464V3480" stroke="#B3B3B3" stroke-width="4" stroke-linecap="round" stroke-linejoin="bevel" stroke-dasharray="16 10"/>
</g>
<g id="R&#38;D radiation &#38; explosives">
<rect id="Shape_115" x="119" y="4014" width="272" height="96" rx="6" fill="#1E1E1E" stroke="#1E1E1E" stroke-width="4" stroke-linecap="round"/>
<text id="Text_70" fill="white" xml:space="preserve" style="white-space: pre" font-family="Inter" font-size="16" font-weight="bold" letter-spacing="-0.011em"><tspan x="152.989" y="4067.82">R&#38;D radiation &#38; explosives</tspan></text>
</g>
<g id="Lavisan 2/Mojdeh Site">
<rect id="Shape_116" x="199" y="4140" width="272" height="96" rx="6" fill="#FFC7C2" stroke="#1E1E1E" stroke-width="4" stroke-linecap="round"/>
<text id="Text_71" fill="black" fill-opacity="0.8" xml:space="preserve" style="white-space: pre" font-family="Inter" font-size="16" font-weight="500" letter-spacing="-0.011em"><tspan x="252.346" y="4193.82">Lavisan 2/Mojdeh Site</tspan></text>
</g>
<g id="Connector line_46">
<path id="Shape_117" d="M168.018 4118V4165.02C168.018 4177.71 178.307 4188 191 4188V4188" stroke="#B3B3B3" stroke-width="4" stroke-linecap="round" stroke-linejoin="bevel"/>
</g>
<g id="Shahid Shariarti">
<rect id="Shape_118" x="199" y="4268" width="272" height="96" rx="6" fill="#FFC7C2" stroke="#1E1E1E" stroke-width="4" stroke-linecap="round"/>
<text id="Text_72" fill="black" fill-opacity="0.8" xml:space="preserve" style="white-space: pre" font-family="Inter" font-size="16" font-weight="500" letter-spacing="-0.011em"><tspan x="275.445" y="4321.82">Shahid Shariarti</tspan></text>
</g>
<g id="Connector line_47">
<path id="Shape_119" d="M335 4244V4260" stroke="#B3B3B3" stroke-width="4" stroke-linecap="round" stroke-linejoin="bevel" stroke-dasharray="16 10"/>
</g>
<g id="Connector line_48">
<path id="Shape_120" d="M1278.49 3216C1278.49 3214.9 1277.6 3214 1276.49 3214C1275.39 3214 1274.49 3214.9 1274.49 3216H1276.49H1278.49ZM246.12 3988.69C245.015 3988.69 244.234 3990.04 244.786 3991L253.667 4006.38C254.219 4007.34 255.781 4007.34 256.333 4006.38L265.214 3991C265.766 3990.04 264.985 3988.69 263.88 3988.69H246.12ZM1276.49 3216H1274.49V3232H1276.49H1278.49V3216H1276.49ZM1252.49 3256V3254H1244.82V3256V3258H1252.49V3256ZM1220.82 3280H1218.82V3880H1220.82H1222.82V3280H1220.82ZM1196.82 3904V3902H279V3904V3906H1196.82V3904ZM255 3928H253V3990.69H255H257V3928H255ZM279 3904V3902C264.641 3902 253 3913.64 253 3928H255H257C257 3915.85 266.85 3906 279 3906V3904ZM1220.82 3880H1218.82C1218.82 3892.15 1208.97 3902 1196.82 3902V3904V3906C1211.18 3906 1222.82 3894.36 1222.82 3880H1220.82ZM1244.82 3256V3254C1230.46 3254 1218.82 3265.64 1218.82 3280H1220.82H1222.82C1222.82 3267.85 1232.67 3258 1244.82 3258V3256ZM1276.49 3232H1274.49C1274.49 3244.15 1264.64 3254 1252.49 3254V3256V3258C1266.85 3258 1278.49 3246.36 1278.49 3232H1276.49Z" fill="#1E1E1E"/>
</g>
<g id="Multi-point initiation system plastic explosives precursor manufacturing, R&#38;D, and testing">
<rect id="Shape_121" x="694" y="4014" width="272" height="96" rx="6" fill="#1E1E1E" stroke="#1E1E1E" stroke-width="4" stroke-linecap="round"/>
<text id="Text_73" fill="white" xml:space="preserve" style="white-space: pre" font-family="Inter" font-size="16" font-weight="bold" letter-spacing="-0.011em"><tspan x="721.849" y="4043.82">Multi-point initiation system </tspan><tspan x="721.933" y="4067.82">plastic explosives precursor </tspan><tspan x="706.593" y="4091.82">manufacturing, R&#38;D, and testing</tspan></text>
</g>
<g id="Taleghan 2 - Destroyed in Oct. 2024 Israeli strike">
<rect id="Shape_122" x="775" y="4142" width="272" height="96" rx="6" fill="#FFC7C2" stroke="#1E1E1E" stroke-width="4" stroke-linecap="round"/>
<text id="Text_74" fill="black" fill-opacity="0.8" xml:space="preserve" style="white-space: pre" font-family="Inter" font-size="16" font-weight="500" letter-spacing="-0.011em"><tspan x="867.794" y="4171.82">Taleghan 2 &#10;</tspan><tspan x="794.714" y="4195.82">- Destroyed in Oct. 2024 Israeli </tspan><tspan x="890.143" y="4219.82">strike</tspan></text>
</g>
<g id="Connector line_49">
<path id="Shape_123" d="M734.825 4118V4166C734.825 4179.26 745.57 4190 758.825 4190H767" stroke="#B3B3B3" stroke-width="4" stroke-linecap="round" stroke-linejoin="bevel"/>
</g>
<g id="Shahid Meysami">
<rect id="Shape_124" x="775" y="4270" width="272" height="96" rx="6" fill="#FFC7C2" stroke="#1E1E1E" stroke-width="4" stroke-linecap="round"/>
<text id="Text_75" fill="black" fill-opacity="0.8" xml:space="preserve" style="white-space: pre" font-family="Inter" font-size="16" font-weight="500" letter-spacing="-0.011em"><tspan x="849.511" y="4323.82">Shahid Meysami</tspan></text>
</g>
<g id="Connector line_50">
<path id="Shape_125" d="M911 4246V4262" stroke="#B3B3B3" stroke-width="4" stroke-linecap="round" stroke-linejoin="bevel" stroke-dasharray="16 10"/>
</g>
<g id="Connector line_51">
<path id="Shape_126" d="M399 4060C397.895 4060 397 4060.9 397 4062C397 4063.11 397.895 4064 399 4064V4062V4060ZM668.69 4070.88C668.69 4071.99 670.043 4072.77 670.999 4072.21L686.381 4063.33C687.337 4062.78 687.337 4061.22 686.381 4060.67L670.999 4051.79C670.043 4051.24 668.69 4052.02 668.69 4053.12V4070.88ZM399 4062V4064H670.69V4062V4060H399V4062Z" fill="#1E1E1E"/>
</g>
<g id="Connector line_52">
<path id="Shape_127" d="M1278.55 3216C1278.55 3214.9 1277.65 3214 1276.55 3214C1275.44 3214 1274.55 3214.9 1274.55 3216H1276.55H1278.55ZM821.12 3988.69C820.015 3988.69 819.234 3990.04 819.786 3991L828.667 4006.38C829.219 4007.34 830.781 4007.34 831.333 4006.38L840.214 3991C840.766 3990.04 839.985 3988.69 838.88 3988.69H821.12ZM1276.55 3216H1274.55V3232H1276.55H1278.55V3216H1276.55ZM1252.55 3256V3254H1244.82V3256V3258H1252.55V3256ZM1220.82 3280H1218.82V3880H1220.82H1222.82V3280H1220.82ZM1196.82 3904V3902H854V3904V3906H1196.82V3904ZM830 3928H828V3990.69H830H832V3928H830ZM854 3904V3902C839.641 3902 828 3913.64 828 3928H830H832C832 3915.85 841.85 3906 854 3906V3904ZM1220.82 3880H1218.82C1218.82 3892.15 1208.97 3902 1196.82 3902V3904V3906C1211.18 3906 1222.82 3894.36 1222.82 3880H1220.82ZM1244.82 3256V3254C1230.46 3254 1218.82 3265.64 1218.82 3280H1220.82H1222.82C1222.82 3267.85 1232.67 3258 1244.82 3258V3256ZM1276.55 3232H1274.55C1274.55 3244.15 1264.7 3254 1252.55 3254V3256V3258C1266.9 3258 1278.55 3246.36 1278.55 3232H1276.55Z" fill="#1E1E1E"/>
</g>
<g id="Multi-point initiation system development and testing">
<rect id="Shape_128" x="1359" y="4014" width="272" height="96" rx="6" fill="#1E1E1E" stroke="#1E1E1E" stroke-width="4" stroke-linecap="round"/>
<text id="Text_76" fill="white" xml:space="preserve" style="white-space: pre" font-family="Inter" font-size="16" font-weight="bold" letter-spacing="-0.011em"><tspan x="1386.85" y="4055.82">Multi-point initiation system </tspan><tspan x="1399.48" y="4079.82">development and testing</tspan></text>
</g>
<g id="Sanjarian">
<rect id="Shape_129" x="1463" y="4142" width="272" height="96" rx="6" fill="#FFC7C2" stroke="#1E1E1E" stroke-width="4" stroke-linecap="round"/>
<text id="Text_77" fill="black" fill-opacity="0.8" xml:space="preserve" style="white-space: pre" font-family="Inter" font-size="16" font-weight="500" letter-spacing="-0.011em"><tspan x="1564.27" y="4195.82">Sanjarian</tspan></text>
</g>
<g id="Connector line_53">
<path id="Shape_130" d="M1407.3 4118V4166C1407.3 4179.26 1418.05 4190 1431.3 4190H1455" stroke="#B3B3B3" stroke-width="4" stroke-linecap="round" stroke-linejoin="bevel"/>
</g>
<g id="Shahid Karimi Group/Lavisan 2/Mojdeh Site">
<rect id="Shape_131" x="1463" y="4270" width="272" height="96" rx="6" fill="#FFC7C2" stroke="#1E1E1E" stroke-width="4" stroke-linecap="round"/>
<text id="Text_78" fill="black" fill-opacity="0.8" xml:space="preserve" style="white-space: pre" font-family="Inter" font-size="16" font-weight="500" letter-spacing="-0.011em"><tspan x="1481.61" y="4311.82">Shahid Karimi Group/Lavisan 2/</tspan><tspan x="1554.49" y="4335.82">Mojdeh Site</tspan></text>
</g>
<g id="Connector line_54">
<path id="Shape_132" d="M1599 4246V4262" stroke="#B3B3B3" stroke-width="4" stroke-linecap="round" stroke-linejoin="bevel" stroke-dasharray="16 10"/>
</g>
<g id="Goleb Dareh">
<rect id="Shape_133" x="1463" y="4398" width="272" height="96" rx="6" fill="#DCDCDC" stroke="#1E1E1E" stroke-width="4" stroke-linecap="round"/>
<text id="Text_79" fill="black" fill-opacity="0.8" xml:space="preserve" style="white-space: pre" font-family="Inter" font-size="16" font-weight="500" letter-spacing="-0.011em"><tspan x="1552.51" y="4451.82">Goleb Dareh</tspan></text>
</g>
<g id="Connector line_55">
<path id="Shape_134" d="M1599 4374V4390" stroke="#B3B3B3" stroke-width="4" stroke-linecap="round" stroke-linejoin="bevel" stroke-dasharray="16 10"/>
</g>
<g id="Connector line_56">
<path id="Shape_135" d="M1409.3 4118C1409.3 4116.9 1408.4 4116 1407.3 4116C1406.2 4116 1405.3 4116.9 1405.3 4118H1407.3H1409.3ZM1016.31 4567.12C1016.31 4566.02 1014.96 4565.24 1014 4565.79L998.619 4574.67C997.663 4575.22 997.663 4576.78 998.619 4577.33L1014 4586.21C1014.96 4586.77 1016.31 4585.99 1016.31 4584.88V4567.12ZM1407.3 4118H1405.3V4552H1407.3H1409.3V4118H1407.3ZM1383.3 4576V4574H1014.31V4576V4578H1383.3V4576ZM1407.3 4552H1405.3C1405.3 4564.15 1395.45 4574 1383.3 4574V4576V4578C1397.66 4578 1409.3 4566.36 1409.3 4552H1407.3Z" fill="#1E1E1E"/>
</g>
<g id="Connector line_57">
<path id="Shape_136" d="M974 4060C972.895 4060 972 4060.9 972 4062C972 4063.11 972.895 4064 974 4064V4062V4060ZM1333.69 4070.88C1333.69 4071.99 1335.04 4072.77 1336 4072.21L1351.38 4063.33C1352.34 4062.78 1352.34 4061.22 1351.38 4060.67L1336 4051.79C1335.04 4051.24 1333.69 4052.02 1333.69 4053.12V4070.88ZM974 4062V4064H1335.69V4062V4060H974V4062Z" fill="#1E1E1E"/>
</g>
<g id="Connector line_58">
<path id="Shape_137" d="M1278.55 3216C1278.55 3214.9 1277.65 3214 1276.55 3214C1275.44 3214 1274.55 3214.9 1274.55 3216H1276.55H1278.55ZM1486.12 3988.69C1485.02 3988.69 1484.23 3990.04 1484.79 3991L1493.67 4006.38C1494.22 4007.34 1495.78 4007.34 1496.33 4006.38L1505.21 3991C1505.77 3990.04 1504.98 3988.69 1503.88 3988.69H1486.12ZM1276.55 3216H1274.55V3232H1276.55H1278.55V3216H1276.55ZM1252.55 3256V3254H1244.82V3256V3258H1252.55V3256ZM1220.82 3280H1218.82V3880H1220.82H1222.82V3280H1220.82ZM1244.82 3904V3906H1471V3904V3902H1244.82V3904ZM1495 3928H1493V3990.69H1495H1497V3928H1495ZM1471 3904V3906C1483.15 3906 1493 3915.85 1493 3928H1495H1497C1497 3913.64 1485.36 3902 1471 3902V3904ZM1220.82 3880H1218.82C1218.82 3894.36 1230.46 3906 1244.82 3906V3904V3902C1232.67 3902 1222.82 3892.15 1222.82 3880H1220.82ZM1244.82 3256V3254C1230.46 3254 1218.82 3265.64 1218.82 3280H1220.82H1222.82C1222.82 3267.85 1232.67 3258 1244.82 3258V3256ZM1276.55 3232H1274.55C1274.55 3244.15 1264.7 3254 1252.55 3254V3256V3258C1266.9 3258 1278.55 3246.36 1278.55 3232H1276.55Z" fill="#1E1E1E"/>
</g>
<g id="Unknown Site - Destroyed">
<rect id="Shape_138" x="183" y="4654" width="272" height="96" rx="6" fill="#FFC7C2" stroke="#1E1E1E" stroke-width="4" stroke-linecap="round"/>
<text id="Text_80" fill="black" fill-opacity="0.8" xml:space="preserve" style="white-space: pre" font-family="Inter" font-size="16" font-weight="500" letter-spacing="-0.011em"><tspan x="220.813" y="4707.82">Unknown Site - Destroyed</tspan></text>
</g>
<g id="Connector line_59">
<path id="Shape_139" d="M156.19 4632V4683.19C156.19 4693.58 164.612 4702 175 4702V4702" stroke="#B3B3B3" stroke-width="4" stroke-linecap="round" stroke-linejoin="bevel"/>
</g>
<g id="Unknown to Exist_2">
<rect id="Shape_140" x="791" y="4656" width="272" height="96" rx="6" fill="#DCDCDC" stroke="#1E1E1E" stroke-width="4" stroke-linecap="round"/>
<text id="Text_81" fill="black" fill-opacity="0.8" xml:space="preserve" style="white-space: pre" font-family="Inter" font-size="16" font-weight="500" letter-spacing="-0.011em"><tspan x="861.867" y="4709.82">Unknown to Exist</tspan></text>
</g>
<g id="Connector line_60">
<path id="Shape_141" d="M757.182 4632V4680C757.182 4693.26 767.927 4704 781.182 4704H783" stroke="#B3B3B3" stroke-width="4" stroke-linecap="round" stroke-linejoin="bevel"/>
</g>
<g id="109 Nuclear Outline Icons Set-08 1" clip-path="url(#clip1_0_1)">
<g id="Group">
<path id="Vector" d="M842.489 5001.56L834.351 5039.19C833.981 5040.98 833.396 5042.55 832.625 5044.03C831.824 5045.51 830.837 5046.84 829.635 5048.04C829.635 5048.04 818.785 5058.89 817.459 5060.22L772.331 5015.09L784.507 5002.91C785.74 5001.68 787.034 5000.69 788.514 4999.92C789.994 4999.15 791.566 4998.57 793.354 4998.2L830.991 4990.06C832.502 4989.75 834.074 4989.84 835.584 4990.37C837.033 4990.86 838.42 4991.75 839.623 4992.96C840.825 4994.16 841.688 4995.54 842.212 4996.99C842.736 4998.5 842.859 5000.08 842.52 5001.59L842.489 5001.56ZM830.344 5038.33L838.482 5000.69C838.636 4999.92 838.574 4999.12 838.297 4998.32C837.989 4997.46 837.465 4996.62 836.694 4995.85C835.923 4995.08 835.091 4994.53 834.228 4994.25C833.427 4993.97 832.625 4993.91 831.855 4994.07L794.217 5002.2C792.799 5002.51 791.535 5002.94 790.456 5003.53C789.377 5004.11 788.36 5004.85 787.404 5005.81L778.157 5015.06L817.459 5054.36L826.707 5045.11C827.662 5044.16 828.433 5043.14 828.988 5042.06C829.573 5040.95 830.005 5039.72 830.313 5038.3L830.344 5038.33Z" fill="#2D2E2D"/>
<path id="Vector_2" d="M706.118 5087.62L744.896 5126.4C745.421 5126.92 745.79 5127.63 745.975 5128.34C746.099 5128.8 746.129 5129.33 746.068 5129.82C745.975 5130.5 745.729 5131.08 745.236 5131.58C744.896 5131.92 744.465 5132.19 743.941 5132.32L734.662 5134.66L734.262 5134.78C732.905 5135.18 731.672 5135.55 730.254 5134.14L698.412 5102.29C696.994 5100.87 697.364 5099.64 697.764 5098.29L697.888 5097.88L700.23 5088.61C700.354 5088.08 700.631 5087.65 700.97 5087.31C701.463 5086.82 702.049 5086.57 702.727 5086.48C703.22 5086.42 703.714 5086.48 704.207 5086.57C704.916 5086.76 705.656 5087.13 706.149 5087.65L706.118 5087.62ZM741.413 5128.74L703.837 5091.16L701.895 5098.87L701.741 5099.43C701.741 5099.43 701.556 5099.43 701.433 5099.33H701.309C710.711 5109.48 723.165 5121.84 733.306 5131.3V5131.15C733.306 5131.15 733.121 5130.87 733.183 5130.84L733.738 5130.68L741.444 5128.74H741.413ZM733.244 5131.27C733.244 5131.27 733.244 5131.27 733.214 5131.11V5131.27H733.244ZM701.402 5099.33C701.402 5099.33 701.217 5099.24 701.278 5099.3H701.402V5099.33Z" fill="#2D2E2D"/>
<path id="Vector_3" d="M713.393 5078.37L754.175 5119.15C754.884 5119.86 755.808 5120.2 756.733 5120.2C757.658 5120.2 758.614 5119.86 759.292 5119.15L815.24 5063.21C815.949 5062.5 816.288 5061.57 816.288 5060.65C816.288 5059.72 815.949 5058.8 815.209 5058.09L774.427 5017.31C773.718 5016.6 772.793 5016.26 771.868 5016.26C770.944 5016.26 769.988 5016.6 769.31 5017.31L713.362 5073.26C712.653 5073.96 712.314 5074.89 712.314 5075.81C712.314 5076.74 712.653 5077.69 713.362 5078.37H713.393ZM751.277 5122.05L710.495 5081.27C708.985 5079.76 708.214 5077.79 708.214 5075.78C708.214 5073.78 708.985 5071.81 710.495 5070.3L766.443 5014.35C767.954 5012.84 769.926 5012.07 771.93 5012.07C773.934 5012.07 775.907 5012.84 777.417 5014.35L818.199 5055.13C819.71 5056.64 820.449 5058.61 820.449 5060.62C820.449 5062.59 819.679 5064.59 818.168 5066.1L762.22 5122.05C760.71 5123.56 758.737 5124.33 756.733 5124.33C754.73 5124.33 752.757 5123.56 751.246 5122.05H751.277Z" fill="#2D2E2D"/>
<path id="Vector_4" d="M724.675 5127.75C724.613 5126.61 725.507 5125.66 726.617 5125.6C727.726 5125.54 728.713 5126.43 728.774 5127.54L729.792 5148.5L718.879 5159.41L705.963 5146.5L704.946 5125.66C704.885 5124.52 705.779 5123.56 706.888 5123.5C707.998 5123.44 708.984 5124.33 709.046 5125.44L710.002 5144.68L718.91 5153.59L725.63 5146.87L724.675 5127.75Z" fill="#2D2E2D"/>
<path id="Vector_5" d="M714.348 5115.3C715.149 5114.5 716.444 5114.5 717.245 5115.3C718.047 5116.1 718.047 5117.4 717.245 5118.2L701.463 5133.98C700.661 5134.78 699.366 5134.78 698.565 5133.98C697.764 5133.18 697.764 5131.89 698.565 5131.08L714.348 5115.3Z" fill="#2D2E2D"/>
<path id="Vector_6" d="M704.977 5103.77C706.118 5103.83 706.981 5104.79 706.919 5105.93C706.858 5107.07 705.902 5107.93 704.762 5107.87L685.65 5106.92L678.93 5113.64L687.839 5122.55L707.074 5123.5C708.214 5123.56 709.077 5124.52 709.016 5125.66C708.954 5126.8 707.998 5127.66 706.858 5127.6L686.02 5126.58L673.104 5113.67L684.016 5102.76L704.977 5103.77Z" fill="#2D2E2D"/>
<path id="Vector_7" d="M714.379 5079.36L753.158 5118.14C753.682 5118.66 754.052 5119.37 754.236 5120.08C754.36 5120.57 754.391 5121.07 754.329 5121.56C754.236 5122.21 753.99 5122.82 753.497 5123.32C753.158 5123.65 752.726 5123.93 752.202 5124.06L742.924 5126.4L742.523 5126.52C741.166 5126.92 739.933 5127.29 738.516 5125.87L706.673 5094.03C705.255 5092.61 705.625 5091.38 706.026 5090.02L706.149 5089.62L708.492 5080.35C708.615 5079.82 708.892 5079.39 709.231 5079.05C709.725 5078.59 710.31 5078.31 710.988 5078.22C711.482 5078.16 711.975 5078.22 712.468 5078.31C713.177 5078.5 713.917 5078.87 714.41 5079.39L714.379 5079.36ZM749.674 5120.48L712.098 5082.9L710.156 5090.61L710.002 5091.16C710.002 5091.16 709.817 5091.16 709.694 5091.07H709.57C718.911 5101.12 731.487 5113.7 741.567 5123.04V5122.92C741.567 5122.92 741.382 5122.64 741.444 5122.61L741.999 5122.45L749.705 5120.51L749.674 5120.48ZM741.536 5123.04C741.536 5123.04 741.536 5123.04 741.506 5122.92V5123.04H741.536ZM709.663 5091.07C709.663 5091.07 709.478 5090.98 709.54 5091.04H709.663V5091.07Z" fill="#2D2E2D"/>
<path id="Vector_8" d="M760.493 5091.94C761.634 5092.03 762.435 5093.05 762.343 5094.16C762.251 5095.3 761.233 5096.1 760.124 5096.01C754.76 5095.51 749.735 5093.39 745.697 5089.96C741.752 5086.63 738.762 5082.13 737.313 5076.8C737.097 5076.06 736.943 5075.32 736.82 5074.61C736.696 5073.87 736.573 5073.13 736.511 5072.39C736.419 5071.25 737.251 5070.27 738.361 5070.17C739.501 5070.08 740.488 5070.91 740.58 5072.02C740.642 5072.64 740.734 5073.26 740.827 5073.87C740.95 5074.52 741.073 5075.14 741.228 5075.72C742.43 5080.22 744.957 5084.04 748.256 5086.82C751.677 5089.69 755.9 5091.5 760.432 5091.91L760.493 5091.94Z" fill="#2D2E2D"/>
<path id="Vector_9" d="M788.761 5059.14C788.299 5058.12 788.761 5056.89 789.778 5056.42C790.795 5055.96 792.028 5056.42 792.491 5057.44C794.741 5062.31 795.419 5067.77 794.495 5072.95C793.601 5078.03 791.196 5082.87 787.281 5086.79C786.788 5087.28 786.233 5087.81 785.648 5088.3C785.031 5088.82 784.445 5089.25 783.891 5089.65C782.966 5090.3 781.671 5090.09 781.024 5089.16C780.376 5088.24 780.592 5086.94 781.517 5086.29C782.072 5085.92 782.565 5085.52 782.997 5085.15C783.428 5084.78 783.891 5084.35 784.384 5083.86C787.682 5080.56 789.717 5076.49 790.456 5072.24C791.227 5067.83 790.672 5063.27 788.792 5059.14H788.761Z" fill="#2D2E2D"/>
<path id="Vector_10" d="M746.252 5051.06C745.605 5051.99 744.311 5052.2 743.386 5051.55C742.461 5050.91 742.245 5049.61 742.893 5048.69C746.006 5044.28 750.383 5041.01 755.346 5039.19C760.186 5037.44 765.58 5037.1 770.944 5038.55C771.653 5038.73 772.362 5038.95 773.071 5039.22C773.81 5039.5 774.489 5039.78 775.136 5040.06C776.153 5040.52 776.616 5041.75 776.153 5042.77C775.691 5043.79 774.458 5044.25 773.441 5043.79C772.855 5043.51 772.269 5043.26 771.714 5043.08C771.159 5042.86 770.543 5042.68 769.926 5042.52C765.426 5041.32 760.864 5041.6 756.795 5043.08C752.603 5044.59 748.903 5047.36 746.314 5051.06H746.252Z" fill="#2D2E2D"/>
<path id="Vector_11" d="M782.041 5063.14C781.856 5061.73 781.455 5060.37 780.87 5059.08C780.13 5057.47 779.113 5055.99 777.849 5054.7C776.554 5053.4 775.074 5052.39 773.471 5051.68C772.208 5051.09 770.821 5050.69 769.433 5050.51L768.478 5054.67C769.403 5054.76 770.327 5054.98 771.221 5055.32C772.547 5055.84 773.811 5056.61 774.859 5057.69C775.907 5058.74 776.708 5060 777.232 5061.33C777.571 5062.22 777.787 5063.14 777.88 5064.07L782.041 5063.11V5063.14ZM784.599 5057.41C785.524 5059.48 786.079 5061.7 786.233 5064.01C786.233 5064.78 786.295 5065.61 786.326 5066.35L777.386 5068.42C776.924 5068.51 776.492 5068.51 776.061 5068.42C775.629 5068.29 775.229 5068.11 774.859 5067.8C774.489 5067.49 774.211 5067.15 774.057 5066.75C773.872 5066.35 773.811 5065.89 773.811 5065.46C773.841 5064.56 773.718 5063.67 773.379 5062.84C773.071 5062.04 772.578 5061.3 771.93 5060.62C771.283 5059.97 770.512 5059.48 769.711 5059.17C768.878 5058.83 767.954 5058.71 767.06 5058.74C766.597 5058.74 766.166 5058.68 765.765 5058.49C765.364 5058.31 764.994 5058.03 764.717 5057.69C764.409 5057.32 764.224 5056.92 764.101 5056.49C764.008 5056.05 764.008 5055.62 764.101 5055.16L766.166 5046.22C766.936 5046.22 767.769 5046.31 768.509 5046.31C770.82 5046.47 773.04 5047.02 775.105 5047.95C777.171 5048.87 779.082 5050.2 780.685 5051.8C782.318 5053.43 783.613 5055.32 784.538 5057.38L784.599 5057.41Z" fill="#2D2E2D"/>
<path id="Vector_12" d="M753.065 5054.91C751.924 5055.78 750.938 5056.83 750.137 5057.94C749.119 5059.35 748.349 5060.99 747.855 5062.74C747.393 5064.5 747.239 5066.29 747.424 5068.05C747.578 5069.43 747.917 5070.82 748.441 5072.15L752.51 5070.91C752.109 5070.05 751.863 5069.12 751.709 5068.2C751.493 5066.78 751.555 5065.33 751.955 5063.85C752.356 5062.4 753.034 5061.08 753.928 5059.97C754.514 5059.23 755.223 5058.58 755.993 5058.03L753.096 5054.91H753.065ZM746.807 5055.53C748.133 5053.68 749.767 5052.11 751.709 5050.81L752.294 5050.44L753.712 5049.58L759.97 5056.27C760.278 5056.61 760.494 5056.98 760.648 5057.41C760.771 5057.84 760.802 5058.27 760.74 5058.74C760.679 5059.17 760.494 5059.6 760.216 5059.97C759.97 5060.34 759.6 5060.62 759.199 5060.83C758.398 5061.26 757.689 5061.82 757.134 5062.53C756.579 5063.21 756.178 5064.01 755.932 5064.9C755.685 5065.8 755.654 5066.69 755.778 5067.55C755.932 5068.45 756.24 5069.28 756.702 5070.02C756.949 5070.39 757.103 5070.82 757.165 5071.28C757.226 5071.71 757.165 5072.15 757.011 5072.61C756.856 5073.04 756.61 5073.41 756.271 5073.72C755.963 5074.03 755.562 5074.24 755.13 5074.4C754.514 5074.4 747.917 5076.58 746.345 5077.08C746.098 5076.58 745.42 5075.54 745.235 5074.98C744.218 5072.92 743.571 5070.7 743.355 5068.45C743.139 5066.2 743.324 5063.92 743.91 5061.67C744.496 5059.45 745.482 5057.35 746.807 5055.53Z" fill="#2D2E2D"/>
<path id="Vector_13" d="M760.401 5084.11C761.727 5084.66 763.114 5085 764.501 5085.12C766.258 5085.31 768.046 5085.12 769.803 5084.69C771.56 5084.23 773.194 5083.46 774.612 5082.41C775.752 5081.61 776.769 5080.62 777.633 5079.48L774.519 5076.58C773.964 5077.36 773.317 5078.03 772.577 5078.65C771.468 5079.54 770.173 5080.22 768.693 5080.62C767.244 5081.02 765.765 5081.09 764.347 5080.87C763.422 5080.75 762.497 5080.47 761.634 5080.07L760.401 5084.14V5084.11ZM764.1 5089.19C761.85 5088.98 759.631 5088.33 757.565 5087.31C757.01 5087.13 755.962 5086.48 755.469 5086.2L758.151 5077.42C758.274 5076.99 758.521 5076.58 758.829 5076.25C759.137 5075.94 759.507 5075.66 759.939 5075.51C760.37 5075.35 760.802 5075.29 761.264 5075.35C761.696 5075.41 762.127 5075.54 762.528 5075.78C763.268 5076.25 764.131 5076.58 765.025 5076.71C765.857 5076.86 766.782 5076.8 767.676 5076.55C768.57 5076.31 769.371 5075.91 770.05 5075.35C770.759 5074.8 771.313 5074.09 771.745 5073.29C771.961 5072.89 772.269 5072.52 772.608 5072.27C772.978 5072.02 773.379 5071.84 773.841 5071.75C774.303 5071.65 774.735 5071.68 775.167 5071.81C775.598 5071.93 775.968 5072.15 776.307 5072.48L783.027 5078.74C782.688 5079.3 782.071 5080.16 781.763 5080.75C780.499 5082.66 778.896 5084.32 777.047 5085.65C775.197 5086.97 773.132 5087.96 770.913 5088.55C768.693 5089.13 766.412 5089.32 764.131 5089.1L764.1 5089.19Z" fill="#2D2E2D"/>
<path id="Vector_14" d="M770.481 5062.07C771.961 5063.55 772.67 5065.46 772.67 5067.37C772.67 5069.28 771.93 5071.22 770.481 5072.67C769.002 5074.15 767.09 5074.86 765.179 5074.86C763.268 5074.86 761.357 5074.12 759.877 5072.67C758.398 5071.19 757.689 5069.28 757.689 5067.37C757.689 5065.46 758.429 5063.51 759.877 5062.07C761.326 5060.62 763.268 5059.88 765.179 5059.88C767.09 5059.88 769.002 5060.62 770.481 5062.07ZM768.57 5067.37C768.57 5066.5 768.231 5065.61 767.584 5064.96C766.936 5064.29 766.042 5063.98 765.179 5063.98C764.316 5063.98 763.453 5064.32 762.775 5064.96C762.097 5065.61 761.788 5066.5 761.788 5067.37C761.788 5068.23 762.128 5069.13 762.775 5069.77C763.453 5070.42 764.316 5070.76 765.179 5070.76C766.042 5070.76 766.906 5070.42 767.584 5069.77C768.262 5069.13 768.57 5068.23 768.57 5067.37Z" fill="#2D2E2D"/>
</g>
</g>
<g id="Connector line_61">
<path id="Shape_142" d="M759.905 4632C759.905 4630.9 759.009 4630 757.905 4630C756.8 4630 755.905 4630.9 755.905 4632H757.905H759.905ZM749.024 4952.69C747.92 4952.69 747.139 4954.04 747.691 4955L756.571 4970.38C757.123 4971.34 758.686 4971.34 759.238 4970.38L768.118 4955C768.67 4954.04 767.889 4952.69 766.785 4952.69H749.024ZM757.905 4632H755.905V4954.69H757.905H759.905V4632H757.905Z" fill="#1E1E1E"/>
</g>
<g id="Esfahan Shipping and Receiving Building (possible HEU location)">
<rect id="Shape_143" x="1975" y="1560" width="272" height="128" rx="6" fill="#FFC7C2" stroke="#00558C" stroke-width="4" stroke-linecap="round"/>
<text id="Text_82" fill="black" fill-opacity="0.8" xml:space="preserve" style="white-space: pre" font-family="Inter" font-size="16" font-weight="500" letter-spacing="-0.011em"><tspan x="1991.51" y="1593.82">Esfahan Shipping and Receiving </tspan><tspan x="2078.89" y="1617.82">Building &#10;</tspan><tspan x="2111" y="1641.82">&#10;</tspan><tspan x="2023.5" y="1665.82">(possible HEU location)</tspan></text>
</g>
<g id="Connector line_62">
<path id="Shape_144" d="M2111 1536V1552" stroke="#B3B3B3" stroke-width="4" stroke-linecap="round" stroke-linejoin="bevel" stroke-dasharray="16 10"/>
</g>
<g id="Connector line_63">
<path id="Shape_145" d="M1071 2146V2162" stroke="#B3B3B3" stroke-width="4" stroke-linecap="round" stroke-linejoin="bevel" stroke-dasharray="16 10"/>
</g>
<g id="10 scientists killed">
<path id="Shape_146" d="M1385.76 3645.53L1413.53 3617.76C1414.65 3616.63 1416.18 3616 1417.77 3616H1460.23C1461.82 3616 1463.35 3616.63 1464.47 3617.76L1492.24 3645.53C1493.37 3646.65 1494 3648.18 1494 3649.77V3692.23C1494 3693.82 1493.37 3695.35 1492.24 3696.47L1464.47 3724.24C1463.35 3725.37 1461.82 3726 1460.23 3726H1417.77C1416.18 3726 1414.65 3725.37 1413.53 3724.24L1385.76 3696.47C1384.63 3695.35 1384 3693.82 1384 3692.23V3649.77C1384 3648.18 1384.63 3646.65 1385.76 3645.53Z" fill="#FFC7C2" stroke="#1E1E1E" stroke-width="4" stroke-linecap="round"/>
<text id="Text_83" fill="black" fill-opacity="0.8" xml:space="preserve" style="white-space: pre" font-family="Inter" font-size="16" font-style="italic" font-weight="500" letter-spacing="-0.011em"><tspan x="1430.23" y="3652.82">10 </tspan><tspan x="1403.11" y="3676.82">scientists </tspan><tspan x="1419.29" y="3700.82">killed</tspan></text>
</g>
<g id="Connector line_64">
<path id="Shape_147" d="M1439 3592V3608" stroke="#B3B3B3" stroke-width="4" stroke-linecap="round" stroke-linejoin="bevel" stroke-dasharray="16 10"/>
</g>
<g id="4 experts killed">
<path id="Shape_148" d="M265.646 4815.26L293.51 4785.87C294.643 4784.68 296.217 4784 297.863 4784H340.136C341.783 4784 343.357 4784.68 344.49 4785.87L372.354 4815.26C373.411 4816.37 374 4817.85 374 4819.38V4864.62C374 4866.15 373.411 4867.63 372.354 4868.75L344.49 4898.13C343.357 4899.32 341.783 4900 340.136 4900H297.863C296.217 4900 294.643 4899.32 293.51 4898.13L265.646 4868.75C264.589 4867.63 264 4866.15 264 4864.62V4819.38C264 4817.85 264.589 4816.37 265.646 4815.26Z" fill="#FFC7C2" stroke="#1E1E1E" stroke-width="4" stroke-linecap="round"/>
<text id="Text_84" fill="black" fill-opacity="0.8" xml:space="preserve" style="white-space: pre" font-family="Inter" font-size="16" font-style="italic" font-weight="500" letter-spacing="-0.011em"><tspan x="313.766" y="4823.82">4&#10;</tspan><tspan x="290.405" y="4847.82">experts </tspan><tspan x="299.292" y="4871.82">killed</tspan></text>
</g>
<g id="Connector line_65">
<path id="Shape_149" d="M319 4758V4776" stroke="#B3B3B3" stroke-width="4" stroke-linecap="round" stroke-linejoin="bevel" stroke-dasharray="16 10"/>
</g>
<g id="6 scientists killed">
<path id="Shape_150" d="M1545.65 4557.26L1573.51 4527.87C1574.64 4526.68 1576.22 4526 1577.86 4526H1620.14C1621.78 4526 1623.36 4526.68 1624.49 4527.87L1652.35 4557.26C1653.41 4558.37 1654 4559.85 1654 4561.38V4606.62C1654 4608.15 1653.41 4609.63 1652.35 4610.75L1624.49 4640.13C1623.36 4641.32 1621.78 4642 1620.14 4642H1577.86C1576.22 4642 1574.64 4641.32 1573.51 4640.13L1545.65 4610.75C1544.59 4609.63 1544 4608.15 1544 4606.62V4561.38C1544 4559.85 1544.59 4558.37 1545.65 4557.26Z" fill="#FFC7C2" stroke="#1E1E1E" stroke-width="4" stroke-linecap="round"/>
<text id="Text_85" fill="black" fill-opacity="0.8" xml:space="preserve" style="white-space: pre" font-family="Inter" font-size="16" font-style="italic" font-weight="500" letter-spacing="-0.011em"><tspan x="1594" y="4565.82">6 </tspan><tspan x="1563.11" y="4589.82">scientists </tspan><tspan x="1579.29" y="4613.82">killed</tspan></text>
</g>
<g id="Connector line_66">
<path id="Shape_151" d="M1599 4502V4518" stroke="#B3B3B3" stroke-width="4" stroke-linecap="round" stroke-linejoin="bevel" stroke-dasharray="16 10"/>
</g>
<g id="Natanz Fuel Enrichment Plant &#194;&#160;Below-ground (8-30 m) Any intact HEU requires excavation">
<rect id="Shape_152" x="1495" y="1800" width="272" height="176" rx="6" fill="#FFE0C2" stroke="#00558C" stroke-width="4" stroke-linecap="round"/>
<text id="Text_86" fill="black" fill-opacity="0.8" xml:space="preserve" style="white-space: pre" font-family="Inter" font-size="16" font-weight="500" letter-spacing="-0.011em"><tspan x="1520.95" y="1845.82">Natanz Fuel Enrichment Plant&#10;</tspan><tspan x="1540.25" y="1869.82">&#xa0;Below-ground (8-30 m)&#10;</tspan><tspan x="1631" y="1893.82">&#10;</tspan><tspan x="1542.24" y="1917.82">Any intact HEU requires </tspan><tspan x="1590.5" y="1941.82">excavation</tspan></text>
</g>
<g id="Connector line_67">
<path id="Shape_153" d="M1631 1776V1792" stroke="#B3B3B3" stroke-width="4" stroke-linecap="round" stroke-linejoin="bevel" stroke-dasharray="16 10"/>
</g>
<g id="Connector line_68">
<path id="Shape_154" d="M1631 1984V2000" stroke="#B3B3B3" stroke-width="4" stroke-linecap="round" stroke-linejoin="bevel" stroke-dasharray="16 10"/>
</g>
</g>
</g>
</g>
<defs>
<clipPath id="clip0_0_1">
<rect width="2367" height="6196" fill="white" transform="translate(-60 -1022)"/>
</clipPath>
<clipPath id="clip1_0_1">
<rect width="197.283" height="197.283" fill="white" transform="translate(659.263 4976)"/>
</clipPath>
</defs>
</svg>
