<svg width="202" height="84" viewBox="0 0 202 84" fill="none" xmlns="http://www.w3.org/2000/svg">
<path d="M46.2217 24.7805H89.3848L90.1181 44.2521H87.6793C86.5713 37.555 85.024 33.1964 83.0309 31.1626C80.7535 28.8036 77.5006 27.6223 73.2721 27.6223H64.7313C63.8914 27.6223 63.2809 27.8346 62.8965 28.2489C62.512 28.6666 62.3215 29.2932 62.3215 30.1218V50.3705H66.8859C69.4249 50.3705 71.4535 49.4872 72.962 47.717C74.4738 45.9435 75.2879 43.2112 75.4106 39.5168H78.0142V64.9322H75.4106C75.2426 60.7243 74.4254 57.7181 72.962 55.9172C71.4987 54.1162 69.4766 53.2157 66.8859 53.2157H62.3215V74.6526C62.3215 75.9263 62.6057 76.8165 63.1839 77.3335C63.7557 77.8539 64.7442 78.1141 66.1558 78.1141H71.6732V80.9559H46.2314V78.1141H51.7067C52.8082 78.1141 53.5964 77.8779 54.0648 77.4088C54.5332 76.9466 54.7658 76.1762 54.7658 75.1182V30.4402C54.7658 29.4233 54.5203 28.7008 54.0261 28.2729C53.5318 27.838 52.6758 27.6223 51.4515 27.6223H46.2314V24.7805H46.2217Z" fill="white"/>
<path d="M93.9683 24.7805H121.351C125.412 24.7805 128.865 25.544 131.711 27.0642C135.248 28.985 138.252 32.1898 140.73 36.6716C143.204 41.1569 144.438 46.457 144.438 52.5858C144.438 57.6497 143.695 62.2068 142.216 66.2573C141.092 69.373 139.364 72.0915 137.035 74.4198C134.702 76.7514 131.863 78.4976 128.523 79.6686C126.013 80.5245 122.663 80.9559 118.483 80.9559H93.9683V78.1141H98.9785C100.241 78.1141 101.117 77.8984 101.608 77.4704C102.099 77.039 102.341 76.3714 102.341 75.4504V30.2108C102.341 29.4233 102.076 28.7967 101.55 28.3276C101.026 27.8586 100.3 27.6223 99.3693 27.6223H93.9683V24.7805ZM113.069 27.6223C111.99 27.6223 111.189 27.862 110.675 28.3482C110.155 28.8275 109.9 29.55 109.9 30.5087V75.3374C109.9 76.2515 110.2 76.9397 110.801 77.4054C111.402 77.8779 112.42 78.1107 113.857 78.1107H118.399C122.463 78.1107 126.019 77.0082 129.072 74.8032C131.065 73.3344 132.577 71.2698 133.614 68.6129C135.032 65.0144 135.742 60.0566 135.742 53.7191C135.742 44.3514 134.189 37.4865 131.088 33.1313C128.442 29.4575 124.456 27.6223 119.119 27.6223H113.063H113.069Z" fill="white"/>
<path d="M151.067 24.7805H178.457C182.517 24.7805 185.971 25.544 188.82 27.0642C192.354 28.985 195.361 32.1898 197.832 36.6716C200.307 41.1569 201.544 46.457 201.544 52.5858C201.544 57.6497 200.801 62.2068 199.318 66.2573C198.197 69.373 196.469 72.0915 194.137 74.4198C191.804 76.7514 188.968 78.4976 185.625 79.6686C183.115 80.5245 179.768 80.9559 175.582 80.9559H151.064V78.1141H156.074C157.337 78.1141 158.216 77.8984 158.704 77.4704C159.195 77.039 159.44 76.3714 159.44 75.4504V30.2108C159.44 29.4233 159.172 28.7967 158.652 28.3276C158.129 27.8586 157.399 27.6223 156.468 27.6223H151.067V24.7805ZM170.171 27.6223C169.089 27.6223 168.291 27.862 167.774 28.3482C167.257 28.8275 166.999 29.55 166.999 30.5087V75.3374C166.999 76.2515 167.296 76.9397 167.897 77.4054C168.495 77.8779 169.522 78.1107 170.959 78.1107H175.504C179.565 78.1107 183.125 77.0082 186.174 74.8032C188.17 73.3344 189.682 71.2698 190.716 68.6129C192.137 65.0144 192.841 60.0566 192.841 53.7191C192.841 44.3514 191.294 37.4865 188.193 33.1313C185.554 29.4575 181.564 27.6223 176.225 27.6223H170.168H170.171Z" fill="white"/>
<path d="M17.5204 39.0305C17.5204 39.0305 31.5108 29.5053 32.9483 15.2791C31.8984 10.1844 30.6418 6.8667 30.6418 6.8667C31.8758 20.1239 18.3699 29.3136 18.3699 29.3136C1.85667 38.6744 0.35135 53.7052 0.958646 61.9807C2.71593 53.2704 7.38047 44.7758 17.5171 39.0305H17.5204Z" fill="white"/>
<path d="M3.28443 83.9553C3.28443 83.9553 -3.96112 58.7933 19.7557 45.3443C19.7557 45.3443 33.2648 36.1547 32.0308 22.9009C32.0308 22.9009 50.928 72.4271 3.28443 83.9553Z" fill="white"/>
<path d="M22.8859 1.40239L24.9759 0.241699L24.5721 2.70688L26.2648 4.44963L23.9325 4.80914L22.8859 7.05177L21.8458 4.80914L19.5103 4.44963L21.1965 2.70688L20.8024 0.241699L22.8859 1.40239Z" fill="white"/>
<path d="M21.2836 11.5269L23.1313 10.4998L22.776 12.6739L24.2684 14.2181L22.2075 14.5365L21.2836 16.5189L20.363 14.5365L18.2988 14.2181L19.7912 12.6739L19.4424 10.4998L21.2836 11.5269Z" fill="white"/>
<path d="M15.6081 19.6173L17.2652 18.6929L16.9487 20.6479L18.2925 22.0311L16.4383 22.3187L15.6081 24.0992L14.7811 22.3187L12.9302 22.0311L14.2675 20.6479L13.9509 18.6929L15.6081 19.6173Z" fill="white"/>
<path d="M9.02803 26.7869L10.3848 26.0337L10.1263 27.6326L11.2214 28.7659L9.70962 28.9988L9.02803 30.4505L8.3529 28.9988L6.83789 28.7659L7.93619 27.6326L7.67454 26.0337L9.02803 26.7869Z" fill="white"/>
</svg>
