<svg width="45" height="45" viewBox="0 0 45 45" fill="none" xmlns="http://www.w3.org/2000/svg">
<path d="M18.7918 28.1613L28.2528 22.6925L18.7918 17.2238V28.1613ZM39.8647 13.8879C40.1017 14.7446 40.2658 15.8931 40.3752 17.3514C40.5028 18.8097 40.5575 20.0675 40.5575 21.1613L40.6668 22.6925C40.6668 26.6847 40.3752 29.6196 39.8647 31.4972C39.409 33.1379 38.3517 34.1952 36.7111 34.6509C35.8543 34.8879 34.2866 35.0519 31.8804 35.1613C29.5106 35.2889 27.3413 35.3436 25.3361 35.3436L22.4377 35.453C14.7996 35.453 10.0418 35.1613 8.16423 34.6509C6.5236 34.1952 5.46631 33.1379 5.01058 31.4972C4.7736 30.6405 4.60954 29.492 4.50016 28.0337C4.37256 26.5754 4.31787 25.3175 4.31787 24.2238L4.2085 22.6925C4.2085 18.7004 4.50016 15.7655 5.01058 13.8879C5.46631 12.2472 6.5236 11.1899 8.16423 10.7342C9.021 10.4972 10.5887 10.3332 12.995 10.2238C15.3647 10.0962 17.534 10.0415 19.5392 10.0415L22.4377 9.93213C30.0757 9.93213 34.8335 10.2238 36.7111 10.7342C38.3517 11.1899 39.409 12.2472 39.8647 13.8879Z" fill="white"/>
</svg>
