<svg width="1580" height="551" viewBox="0 0 1580 551" fill="none" xmlns="http://www.w3.org/2000/svg">
<path d="M196.065 227.538H366.158L369.086 300.195H359.537C355.208 275.167 349.097 258.95 341.204 251.416C332.164 242.605 319.433 238.264 302.755 238.264H269.144C265.833 238.264 263.414 239.03 261.887 240.562C260.359 242.095 259.595 244.393 259.595 247.585V323.051H277.546C287.604 323.051 295.498 319.731 301.482 313.219C307.465 306.579 310.648 296.364 311.158 282.701H321.47V377.448H311.158C310.521 361.742 307.338 350.505 301.482 343.865C295.752 337.098 287.732 333.778 277.546 333.778H259.595V413.458C259.595 418.182 260.741 421.502 263.033 423.418C265.324 425.333 269.144 426.355 274.746 426.355H296.516V436.953H196.065V426.355H217.581C221.91 426.355 225.093 425.461 226.875 423.673C228.658 421.885 229.676 419.076 229.676 415.118V248.607C229.676 244.776 228.658 242.095 226.748 240.562C224.838 238.902 221.401 238.136 216.563 238.136H196.065V227.538Z" fill="white"/>
<path d="M384.236 227.538H492.199C508.241 227.538 521.864 230.347 533.067 236.093C547.072 243.244 558.912 255.247 568.588 271.975C578.391 288.702 583.229 308.495 583.229 331.351C583.229 350.25 580.301 367.233 574.445 382.301C569.989 393.921 563.241 404.008 554.074 412.691C544.908 421.375 533.704 427.887 520.463 432.228C510.533 435.421 497.419 437.081 480.868 437.081H384.236V426.482H403.97C408.935 426.482 412.373 425.716 414.283 424.056C416.192 422.396 417.211 419.97 417.211 416.522V247.713C417.211 244.776 416.192 242.478 414.155 240.69C412.118 238.902 409.19 238.008 405.498 238.008H384.236V227.538ZM459.479 238.136C455.278 238.136 452.095 239.03 450.058 240.818C448.021 242.605 447.003 245.287 447.003 248.862V416.011C447.003 419.459 448.148 422.013 450.567 423.673C452.986 425.461 456.933 426.355 462.662 426.355H480.614C496.655 426.355 510.66 422.268 522.628 413.968C530.521 408.478 536.505 400.816 540.579 390.856C546.181 377.448 548.982 358.933 548.982 335.31C548.982 300.322 542.871 274.784 530.648 258.567C520.209 244.904 504.549 238.008 483.542 238.008H459.479V238.136Z" fill="white"/>
<path d="M609.201 227.538H717.164C733.206 227.538 746.829 230.347 758.032 236.093C771.91 243.244 783.75 255.247 793.553 271.975C803.356 288.702 808.194 308.495 808.194 331.351C808.194 350.25 805.266 367.233 799.41 382.301C794.954 393.921 788.206 404.008 779.039 412.691C769.872 421.375 758.669 427.887 745.555 432.228C735.625 435.421 722.511 437.081 705.96 437.081H609.328V426.482H629.062C634.028 426.482 637.465 425.716 639.375 424.056C641.285 422.396 642.303 419.97 642.303 416.522V247.713C642.303 244.776 641.285 242.478 639.247 240.69C637.21 238.902 634.282 238.008 630.59 238.008H609.328V227.538H609.201ZM684.572 238.136C680.243 238.136 677.187 239.03 675.15 240.818C673.113 242.605 672.095 245.287 672.095 248.862V416.011C672.095 419.459 673.241 422.013 675.66 423.673C678.078 425.461 682.025 426.355 687.754 426.355H705.706C721.747 426.355 735.752 422.268 747.72 413.968C755.613 408.478 761.597 400.816 765.671 390.856C771.273 377.448 774.074 358.933 774.074 335.31C774.074 300.322 767.963 274.784 755.74 258.567C745.301 244.904 729.641 238.008 708.507 238.008H684.572V238.136Z" fill="white"/>
<path d="M82.8817 280.658C82.8817 280.658 138.009 245.159 143.738 192.039C139.664 173.013 134.699 160.627 134.699 160.627C139.537 210.044 86.3192 244.393 86.3192 244.393C21.134 279.381 15.2776 335.438 17.6965 366.212C24.5715 333.778 42.9049 302.11 82.8817 280.658Z" fill="#C9CACC"/>
<path d="M26.8634 448.19C26.8634 448.19 -1.65509 354.336 91.794 304.153C91.794 304.153 145.012 269.932 140.174 220.387C140.174 220.515 214.653 405.158 26.8634 448.19Z" fill="white"/>
<path d="M104.016 140.324L112.292 135.982L110.764 145.176L117.384 151.689L108.218 153.093L104.016 161.393L99.9421 153.093L90.7754 151.689L97.3958 145.176L95.868 135.982L104.016 140.324Z" fill="white"/>
<path d="M97.7778 178.121L105.035 174.29L103.634 182.335L109.491 188.081L101.343 189.358L97.7778 196.764L94.0856 189.358L85.9375 188.081L91.9213 182.335L90.5208 174.29L97.7778 178.121Z" fill="white"/>
<path d="M75.3704 208.256L81.8634 204.809L80.7176 212.087L85.9375 217.322L78.6805 218.344L75.3704 224.984L72.1875 218.344L64.8032 217.322L70.1504 212.087L68.8773 204.809L75.3704 208.256Z" fill="white"/>
<path d="M49.3983 234.944L54.7455 232.262L53.727 238.136L58.0557 242.35L52.0719 243.244L49.3983 248.735L46.852 243.244L40.8682 242.35L45.1969 238.136L44.1784 232.262L49.3983 234.944Z" fill="white"/>
<rect x="883" y="221" width="5" height="217" fill="#D9D9D9"/>
<g clip-path="url(#clip0_5_29)">
<path d="M1206.37 292.525L1174.69 317.277L967.931 256.861L1206.37 292.525Z" fill="#FFDA00"/>
<path d="M1067.47 341.943L1045.28 359.097L946.043 267.042L1067.47 341.943Z" fill="#FFDA00"/>
<path d="M1222.91 247.283L948.178 241.73C947.725 241.73 947.337 242.074 947.294 242.526L946.82 248.058C946.776 248.531 947.121 248.94 947.596 248.983L1184.96 273.391L1222.91 247.283Z" fill="#FFB600"/>
<path d="M1103.16 342.287L1131 322.679L947.187 256.753C946.648 256.559 946.087 256.925 946.022 257.485L945.656 261.66C945.634 262.005 945.807 262.349 946.13 262.5L1103.16 342.287Z" fill="#FFB600"/>
<path d="M1017.27 47.1792L965.387 218.786L1039.91 83.9843L1017.27 47.1792Z" fill="#FFB600"/>
<path d="M1071.42 133.251L990.704 225.157L1082.76 158.369L1071.42 133.251Z" fill="#FFB600"/>
<path d="M965.667 29.0352L948.048 233.938C948.005 234.39 948.372 234.778 948.825 234.799L955.316 234.928C955.682 234.928 956.027 234.67 956.092 234.304L993.377 67.3038L965.667 29.0352Z" fill="#FFDA00"/>
<path d="M1040.78 112.374L963.899 233.895C963.575 234.412 963.942 235.079 964.546 235.101L971.403 235.251C971.64 235.251 971.878 235.144 972.029 234.95L1049.96 137.04L1040.78 112.374Z" fill="#FFDA00"/>
<path d="M1067.28 210.887L1065.17 183.746L991.178 235.66L1067.28 210.887Z" fill="#FFDA00"/>
<path d="M1099.28 432.75V514.496H1081.73V391.92L1167.68 473.15V391.92H1185.24V514.496L1099.28 432.75Z" fill="white"/>
<path d="M1227.87 500.14C1219.98 491.552 1215.06 480.188 1215.06 463.723V391.92H1232.62V464.584C1232.62 476.142 1235.42 483.33 1240.34 488.754C1246.48 495.577 1255.6 499.602 1265.95 499.602C1276.31 499.602 1285.43 495.577 1291.57 488.754C1296.49 483.33 1299.29 476.142 1299.29 464.584V391.92H1316.85V463.723C1316.85 480.188 1311.93 491.574 1304.04 500.14C1294.74 510.127 1281.05 516.24 1265.98 516.24C1250.86 516.24 1237.19 510.106 1227.87 500.14Z" fill="white"/>
<path d="M1404.55 440.068V456.706H1364.2V514.496H1346.65V391.92H1416.82V408.558H1364.18V440.068H1404.55Z" fill="white"/>
<path d="M1436.14 514.496V391.92H1472.97C1492.45 391.92 1505.08 396.117 1515.09 403.478C1530.19 414.692 1539.65 432.901 1539.65 453.219C1539.65 473.537 1530.36 491.746 1515.26 502.96C1505.26 510.321 1492.45 514.518 1472.97 514.518H1436.14V514.496ZM1507.2 418.889C1499.48 412.239 1489.3 408.558 1472.11 408.558H1453.7V497.859H1472.11C1489.3 497.859 1499.48 494.178 1507.2 487.528C1516.49 479.306 1522.1 466.865 1522.1 453.198C1522.1 439.53 1516.49 427.111 1507.2 418.889Z" fill="white"/>
<path d="M1561.58 391.92H1579.14V514.496H1561.58V391.92Z" fill="white"/>
</g>
<defs>
<clipPath id="clip0_5_29">
<rect width="634" height="551" fill="white" transform="translate(946)"/>
</clipPath>
</defs>
</svg>
